<svg xmlns="http://www.w3.org/2000/svg" viewBox="0 0 195.16 194.65"><defs><style>.cls-1{fill:#c86c6c;}.cls-2{fill:#323333;}</style></defs><title>search</title><g id="レイヤー_2" data-name="レイヤー 2"><g id="レイヤー_1-2" data-name="レイヤー 1"><path class="cls-1" d="M87.57,42.25a5.56,5.56,0,0,1,1.12-.44,4.77,4.77,0,0,1,3.17.1c1.8.77,4.79,1.93,7,1.31a2.91,2.91,0,0,0,1.8-1.16,1.05,1.05,0,0,0-.49-1.55c-3.27-1.32-9-1.85-10.11-5.64-1.45-5.07,3.09-11.16,6-13.54a7,7,0,0,1,2.69-1.45,3.59,3.59,0,0,1,2.49.13,7.27,7.27,0,0,1,2.89,2.64c.81,1.42.31,3.17,0,4.15-.55,1.45-1.07,3.7-1.34,4.74-.16.69-.49,1.1-1.41.56a2.88,2.88,0,0,1-1.47-1.75,7.68,7.68,0,0,1,.61-4.36c.53-1.65,1.07-3.57.44-3.8-1.67-.61-8.25,7.2-7.21,11.54.59,2.48,6.3,3.15,8.05,3.77a2.5,2.5,0,0,1,1.66,1.58,5.11,5.11,0,0,1-.6,3.39,6.92,6.92,0,0,1-4.48,3.34c-2.72.78-6.76.29-10.68-2.26C87,43.07,87.1,42.59,87.57,42.25Z"/><path class="cls-1" d="M111.71,35.66a5.06,5.06,0,0,1-2.88-.06,8.25,8.25,0,0,0,.29,2.29c.47,1.64,1.47,2.6,2.59,2.28,2.83-.81,4.53-4.28,5.4-7,.24-.71.7-.92,1.21-.26a3.34,3.34,0,0,1,.17,2.57,10.08,10.08,0,0,1-6.28,6.19A5.12,5.12,0,0,1,105.36,38a9.6,9.6,0,0,1-.08-4.61c.81-4.5,3.26-7.34,5.42-8a2.57,2.57,0,0,1,1.39-.07A7,7,0,0,1,115,26.59a2.84,2.84,0,0,1,.77,1.27C116.36,30.1,115,34.72,111.71,35.66ZM108.94,34a1.64,1.64,0,0,0,.9,0c.89-.26,1.76-1.71,2.22-2.93.66-1.76.94-3.74.44-4C111.81,26.89,109.71,30,108.94,34Z"/><path class="cls-1" d="M129.79,36.48c-1.91.67-3.37.08-4.09-1.33a6.37,6.37,0,0,1-3.6,3.45c-2.16.62-3.8-.6-4.45-2.87a10.24,10.24,0,0,1,.37-6c1.75-5.13,4.28-7.67,6.26-8.24a2.43,2.43,0,0,1,2.83.89c.16-.58.31-1,.39-1.29.32-.73.79-1.07,1.42-.68a2.9,2.9,0,0,1,1.22,1.74,5.48,5.48,0,0,1,.11,2.47c-.16,1.13-.5,2.19-.76,3.4a35,35,0,0,0-.85,3.91,7.92,7.92,0,0,0,0,2.28c.17.6.46.88.82.73,2.09-.84,3.89-5.95,4.1-11.69A1.89,1.89,0,0,1,132,21.79c-.54-1.9,1-5.27,2.16-5.69.77-.26,1.29.15,1.53,1a12.57,12.57,0,0,1,.27,3.35,11,11,0,0,0,2.86-2.51c.58-.69.91-.91,1.6-.5a4.15,4.15,0,0,1,1.79,2.18,2.76,2.76,0,0,1-.13,1.65,22.67,22.67,0,0,0-2.3,7.43,5.7,5.7,0,0,0,.2,1.71c.27.93.74,1.44,1.31,1.32,1.33-.26,2.71-3.31,3.13-6.37.09-.67.73-.82,1.24-.16a3.4,3.4,0,0,1,.6,2.53,7,7,0,0,1-4.77,5.56,3.75,3.75,0,0,1-4.79-2.82,8.28,8.28,0,0,1-.27-2.06,20.1,20.1,0,0,1,2-6.9,7.81,7.81,0,0,1-2.53,1.45C135.54,28.59,133.72,35,129.79,36.48Zm-4.34-12.89c-1,.28-2.82,3.22-3.9,6.91a10.51,10.51,0,0,0-.28,5.36c.18.63.43,1.08.73,1,1.23-.35,2.4-3,3.3-6.75.7-2.9.85-4.91.57-5.88C125.74,23.74,125.6,23.54,125.45,23.59Z"/><path class="cls-1" d="M154,15.66c.91,1.07.71,2.62.42,4.27a13.72,13.72,0,0,0-.23,1.72c-.06.78-.37,1-1.22.79A2.56,2.56,0,0,1,151,20.69a7.88,7.88,0,0,1,.06-3c.16-.86.23-1.6,0-1.71-.55-.24-2.28,2.87-2.91,6.31a10.66,10.66,0,0,0,.08,4.49c.47,1.64,1.43,2.45,2.44,2.2,2.81-.76,4.55-4.36,5.4-7,.18-.66.69-1,1.1-.4a3.11,3.11,0,0,1,.23,2.64,9.8,9.8,0,0,1-6.16,6.19c-3.42,1-5.94-.63-6.79-3.61a9.64,9.64,0,0,1-.09-4.65c.8-4.38,3.17-7.23,5.33-7.85A4.88,4.88,0,0,1,154,15.66Z"/><path class="cls-1" d="M167,25.94c-2.46.7-3.93-.21-4.48-2.14-.67-2.35.22-6.11,1-8.71.35-1.43.66-2.48.4-2.41a17.31,17.31,0,0,0-4.26,7.22,52.58,52.58,0,0,0-1.53,7.89c-.1.76-.63,1-1.23.6-.8-.54-1.58-1.28-1.35-4,.37-4.33,4.16-18.91,6.07-23.65.38-.91,1-.93,1.53-.28a3.39,3.39,0,0,1,.7,1.33,9,9,0,0,1-.2,4.33c-.4,1.44-1.71,5.57-1.94,6.2a6.55,6.55,0,0,1,2.77-2.17,2.58,2.58,0,0,1,2.9,2,3.17,3.17,0,0,1,0,1.68c-1,4.24-1.48,6.07-1.64,7.08a6.26,6.26,0,0,0,.15,2.33c.22.78.55,1.21,1.07,1.06,1.3-.37,2.52-3.58,3-6.17a.62.62,0,0,1,1.16-.33,2.89,2.89,0,0,1,.58,2.45C171.28,22.7,169.39,25.26,167,25.94Z"/><path class="cls-2" d="M4.4,104.64a5.5,5.5,0,0,1-.07-1.06c.34-2.38.53-4.8,1.1-7.13,1.05-4.33.13-8.52-.66-12.73q-.61-3.21-1.31-6.41A8,8,0,0,0,2.94,76a5.06,5.06,0,0,1-.14-4.72,4.4,4.4,0,0,1,5.86-1.78,42.33,42.33,0,0,1,4.21,2.48,1.09,1.09,0,0,0,0-.32c-.74-3.4-1.51-6.8-2.21-10.21-.35-1.73-.64-3.48-.86-5.23a5.75,5.75,0,0,1,4.36-6.08c.5-.12,1-.35,1.48-.51q1.64-.54,3.27-1.05c.29-.09.59-.12.87-.2,6.15-1.75,12.3-3.53,18.46-5.23,2.13-.58,4.31-1,6.48-1.4,4-.78,8-1.5,12.06-2.26.52-.1,1-.25,1.54-.39a9.55,9.55,0,0,1,7.58,1.09,9.37,9.37,0,0,1,4.73,6.18c.32,1.27.75,2.5,1,3.78,1.29,7,3.76,13.74,5.53,20.63a2.07,2.07,0,0,0,.15.34c3.93-.54,7,.84,8.83,4.21,1.56,2.82.67,5.52-1.08,8.11,3.62.38,5.23,2.91,6.19,6,1.07,3.39-.87,5.85-2.93,8.22,0,0,.06.14.1.15,3.58,1,4.47,5.75,3.14,8.5a21.92,21.92,0,0,1-1.43,2.66,28.29,28.29,0,0,1-1.89,2.29,6.52,6.52,0,0,1,2.62,6.23c-.35,2.39-1,4.65-4.18,5,.34,1.36.68,2.64,1,3.93a31,31,0,0,1,.9,4.19c.29,3.24.06,4.47-3.42,5.63a200.49,200.49,0,0,1-21,5.56,4.76,4.76,0,0,0-3,1.95,37.13,37.13,0,0,1-4.54,5c-3.65,3.3-7.45,6.43-11.13,9.69a4.79,4.79,0,0,0-1.4,2.15,29,29,0,0,0-1,10.53c.13,1.55.49,3.08.71,4.62.08.54.07,1.08.1,1.63l-.3.12a10.69,10.69,0,0,1-.84-1.51A21.47,21.47,0,0,1,42,164.79c.34-1.94.81-3.86,1.27-5.78a2.06,2.06,0,0,1,.62-1c1.8-1.63,3.62-3.23,5.45-4.82,3.21-2.8,6.45-5.57,9.64-8.39a6.85,6.85,0,0,0,1.51-2.14L59.4,143c-6.67,1.83-13.35,3.68-20,5.5a7.67,7.67,0,0,1-8.71-3.85c-2.72-5.35-4-11.07-5-16.93-2.14-12.6-4.37-25.18-7.84-37.51-1.33-4.73-2.45-9.52-3.81-14.24a8.78,8.78,0,0,0-1.82-2.82,8.06,8.06,0,0,0-4.49-2.53C4.86,69.9,2.84,72.18,3.54,75c1.23,4.92,2.32,9.87,3.53,14.8.4,1.6-.08,3.09-.33,4.61-.5,3.11-1,6.22-1.59,9.32a4.25,4.25,0,0,1-.45,1ZM60.47,40a14,14,0,0,0-1.68.2c-2.44.53-4.85,1.26-7.31,1.63a127.23,127.23,0,0,0-16.19,3.29c-2.34.68-4.71,1.27-7,2-4.83,1.44-9.66,2.89-14.46,4.42a4.21,4.21,0,0,0-3,5.13c.78,3.85,1.47,7.73,2.44,11.53C15.05,75.29,17,82.38,19,89.46c2.55,9.26,4.62,18.63,6.39,28.06,1.39,7.37,2.32,14.84,4.55,22a17.82,17.82,0,0,0,3.16,6A3.86,3.86,0,0,0,35.2,147a12.69,12.69,0,0,0,4.68,0c3.82-.91,7.54-2.16,11.33-3.17,7.58-2,15.18-4,22.77-6,3.76-1,7.54-1.92,11.28-3A3.18,3.18,0,0,0,87.48,131c-.39-2.07-.83-4.14-1.2-6.22C84.53,114.9,82.91,105,81,95.12,79.6,87.69,78,80.29,76.2,72.92c-1.15-4.8-2.69-9.52-4-14.27-.49-1.72-.92-3.46-1.35-5.19-.64-2.59-1.2-5.19-1.9-7.77C67.86,41.77,64.56,40.14,60.47,40ZM82.68,97.78a13.48,13.48,0,0,1,2.4-.5c2.9-.09,4.25-2.44,4.94-4.75.76-2.55-.92-6.27-3.28-7.61a4.37,4.37,0,0,0-3.69-.58c-.92.33-1.81.75-2.8,1.16Zm.09,1c.66,4.14,1.33,8.31,2,12.42a5.13,5.13,0,0,0,4.64-2.75,30.33,30.33,0,0,0,1.44-2.77,6,6,0,0,0-.42-5.44,4,4,0,0,0-3.48-2.09A23.24,23.24,0,0,0,82.77,98.77Zm-5.46-27L80.08,84.3a24.72,24.72,0,0,0,3.29-1.47A4.44,4.44,0,0,0,85.11,81a6.2,6.2,0,0,0-2-7.68A6.84,6.84,0,0,0,77.31,71.77Zm9.3,49.81c.61-.27,1.35-.37,1.67-.79,1.63-2.14,2.46-4.76.86-7.43-1.13-1.9-1.33-2-3.51-1.52l-.76.16Z"/><path class="cls-2" d="M165.28,120.64a7.77,7.77,0,0,0-.69-1.42c-.23-.31-.67-.71-1-.69a17.64,17.64,0,0,1-6-.81c-.59-.16-1.21-.23-1.81-.35l-.13.24,4.57,3.62-.23.31c-.27-.14-.55-.25-.8-.41q-3.88-2.53-7.74-5.09a8.75,8.75,0,0,0-7.35-1.34c-2.41.65-4.76,1.5-7.16,2.16a27.66,27.66,0,0,1-3.29.49l.55.4c.94.65,1.91,1.28,2.8,2,.24.18.26.63.37,1a3,3,0,0,1-.94-.25c-1.53-1.07-3-2.22-4.57-3.27a16.22,16.22,0,0,0-2.34-1.22c-1.08-.49-2.22-.86-3.27-1.39a5.64,5.64,0,0,0-3.91-.55,25.09,25.09,0,0,0-7.91,2.72l-.51.32c.37.32.66.61,1,.85a37,37,0,0,0,9.17,5.16c3.41,1.2,5.3,3.81,6.67,6.91,0,.05,0,.12-.09.43-.88-1.21-1.73-2.24-2.42-3.36a5.72,5.72,0,0,0-3.54-2.64,24.9,24.9,0,0,1-9.24-4.51c-1-.78-2.12-1.41-3.16-2.15-.24-.17-.35-.52-.56-.74-3.44-3.76-5.5-8.31-7.73-12.77-1.74-3.47-3.52-6.92-5.28-10.38a1,1,0,0,0-.15-.25l-1.42-1.27a16.62,16.62,0,0,0-1,1.36c-1.77,2.88-1.8,5.87-1,9.11,2.16,8.44,7,15.34,12.62,21.82,1.3,1.5,2.81,2.84,4.18,4.29a3.53,3.53,0,0,1,.47,1.12c-.42-.07-1,0-1.26-.24a26.25,26.25,0,0,1-2.75-2.52,64.53,64.53,0,0,1-14.52-25,10,10,0,0,1,1.74-9.73c1.17-1.51,2.54-1.42,3.46.29,2.51,4.66,4.91,9.36,7.53,14,1.7,3,3.71,5.75,5.57,8.62a1.3,1.3,0,0,0,2,.44,23.49,23.49,0,0,1,8.56-2.9,7.1,7.1,0,0,1,3.25.42c2,.72,3.85,1.72,5.81,2.49a4.69,4.69,0,0,0,2.36.33c1.9-.33,3.77-.85,5.65-1.32s3.6-1,5.44-1.4a9,9,0,0,1,6.24,1.38c.34.2.68.41,1,.64a4.36,4.36,0,0,0,3.68,1.08,8.5,8.5,0,0,1,2.73.33c1.4.17,2.81.4,4.22.47s1.8.25,2.1,1.64c.11.51.16,1,.23,1.56Z"/><path class="cls-2" d="M119.45,174a9.94,9.94,0,0,1-1.53-.55c-5.88-3.18-12-5.39-18.87-4.73-5.42.53-10.8,1.4-16.2,2.14-1.1.15-2.19.41-3.3.53-.67.08-1.07-.28-1.41-1-1.23-2.45.34-7.71,2.26-9.3a16.52,16.52,0,0,1,8.32-3.56c4.56-.72,9.13-1.43,13.64-2.4a38.28,38.28,0,0,0,6.39-2.34,14.22,14.22,0,0,0,6.14-5.37,4.67,4.67,0,0,0,1-3.66,9.27,9.27,0,0,1,0-1.75,16.71,16.71,0,0,0-1.36-7c-.35-.8-.71-1.61-1-2.44a4,4,0,0,1-.07-1.05c.29.2.7.33.86.61a18.75,18.75,0,0,1,3,10.74,9.8,9.8,0,0,1-2.52,6.09,25.56,25.56,0,0,1-11.38,7.29,75.9,75.9,0,0,1-11.24,2.28c-1.49.24-3,.46-4.49.74a11.68,11.68,0,0,0-8.54,5.89,7.4,7.4,0,0,0-.53,3.31c0,2.13.16,2.29,2.34,1.95,3-.48,5.9-1.11,8.87-1.57a86.28,86.28,0,0,1,10.69-1.35,35.11,35.11,0,0,1,9,1.13,49.06,49.06,0,0,1,7.45,2.9,5.87,5.87,0,0,1,2.7,2.12Z"/><path class="cls-2" d="M5.08,106a5.43,5.43,0,0,1,.33.93,97.17,97.17,0,0,1,1.64,20.57A41.81,41.81,0,0,0,8.55,140c.71,2.72.24,5.36-.06,8a99.44,99.44,0,0,1-5.3,22.55c-.49,1.35-1,2.67-1.6,4a1.35,1.35,0,0,1-.51.69,3.4,3.4,0,0,1-1,.14,2.62,2.62,0,0,1,0-.88c1.69-5.13,3.54-10.21,5.07-15.38,1.69-5.69,2.29-11.6,3-17.47a1.88,1.88,0,0,0-.19-1.13c-2.19-3.51-2.32-7.43-2.2-11.33.23-7.2-.63-14.33-1-21.49l-.09-1.68Z"/><path class="cls-2" d="M194.82,176.06A5.16,5.16,0,0,1,194,175a23.82,23.82,0,0,0-6.2-8.25,42.14,42.14,0,0,1-8.09-10.29c-.54-1-1.39-1.78-1.91-2.76a18.39,18.39,0,0,1-1.59-3.85c-.84-3.36-2.64-6.29-4.14-9.36-2.59-5.33-5.34-10.61-6.51-16.48a3,3,0,0,1-.15-1,4.15,4.15,0,0,1,.36-1,3.39,3.39,0,0,1,.59.76c.89,2.69,1.55,5.46,2.66,8,1.93,4.52,4.16,8.92,6.2,13.39.77,1.69,1.36,3.45,2,5.17a22.84,22.84,0,0,0,1.13,2.85c2.34,4.08,4.77,8.1,8.23,11.41,1.68,1.61,3.29,3.28,4.91,4.95a14.65,14.65,0,0,1,3.39,5.89,9,9,0,0,1,.22,1.39Z"/><path class="cls-2" d="M168.58,194.65c-.4-.28-.51-.32-.55-.39-1.58-2.93-4.09-5.15-6.53-7.27-2.81-2.44-5.78-4.86-9.51-6-2.32-.7-4.64-.38-7-.14s-4.92.56-7.39.62a13,13,0,0,1-4.39-.59,47.86,47.86,0,0,1-11.34-5.24,1.41,1.41,0,0,1-.47-.35,6.36,6.36,0,0,1-.47-.85,4.27,4.27,0,0,1,1,.17c3.45,1.55,6.84,3.22,10.34,4.65,3.67,1.51,7.47.87,11.23.27,1.07-.17,2.15-.31,3.23-.47A14.52,14.52,0,0,1,157.6,182a31.39,31.39,0,0,1,3.79,3c2.08,2,4.05,4.16,6,6.3a6.33,6.33,0,0,1,1.06,1.86A5.07,5.07,0,0,1,168.58,194.65Z"/><path class="cls-2" d="M147.36,129.61c-.08.12-.15.34-.25.36a.67.67,0,0,1-.53-.12c-1-1.14-2-2.29-2.87-3.47-.13-.17,0-.56.08-.85.26.09.61.1.75.28.9,1.12,1.76,2.27,2.62,3.42A2.63,2.63,0,0,1,147.36,129.61Z"/><path class="cls-2" d="M134.28,133.86a4,4,0,0,1,.73.51c.72.79,1.44,1.6,2.09,2.44.15.19.06.56.08.84-.28-.09-.66-.09-.81-.28-.85-1-1.63-2.12-2.43-3.18Z"/><path class="cls-2" d="M63.31,131.48c-.05.88-.09,1.72-.17,2.56-.4,4.17-5,5.09-7.75,4a2.51,2.51,0,0,1-1.09-1,8.1,8.1,0,0,1-1.09-6.19,4,4,0,0,1,3.29-3.15A5,5,0,0,1,61.67,129c.28.32.52.67.81,1-.35-1.9-3.14-3.72-5.11-3.24-2.48.59-4.42,1.91-5.15,4.47-.2.71-.08,1.49-.28,2.2a2.18,2.18,0,0,1-.88,1.23,8.22,8.22,0,0,1-2.55,1q-5.59,1.07-11.22,1.93a6.55,6.55,0,0,1-2.19-.35.57.57,0,0,1-.34-.32c-.35-1.05-.67-2.11-1-3.16a79.57,79.57,0,0,1-2.32-10.56c-1.44-7.3-3.15-14.56-4.76-21.83C25.39,95.73,24,90,22.81,84.3c-1.11-5.18-2.1-10.38-3.11-15.58a24.4,24.4,0,0,0-1.25-5.07A7.83,7.83,0,0,1,18.14,60a2.7,2.7,0,0,1,1.1-1.75,22.94,22.94,0,0,1,4.25-2.42,101.23,101.23,0,0,1,20.39-5.57c3.41-.62,6.75-1.56,10.16-2.18a52.41,52.41,0,0,1,6.39-.66,2,2,0,0,1,1.6.66,54.39,54.39,0,0,1,6.4,13.36c1.13,3.77,2,7.6,3,11.42,1.3,5.34,2.67,10.67,3.74,16.06.95,4.74,1.51,9.56,2.26,14.34.33,2.06.8,4.09,1.07,6.15.38,3,.58,6,1,8.91.3,2.38.77,4.75,1.16,7.12a5.45,5.45,0,0,1,0,1.07c-.08,1.3-.35,1.61-1.63,1.88L65,131.27C64.41,131.38,63.85,131.41,63.31,131.48Zm.48-1.25.61-.1c4.68-.81,9.36-1.65,14-2.45,1.26-.21,1.39-.31,1.2-1.56-.36-2.37-.78-4.73-1.09-7.1-.39-2.94-.63-5.89-1-8.81-.3-2.06-.85-4.07-1.16-6.12-.78-5.08-1.2-10.22-2.28-15.23C72.17,80,70,71.25,67.73,62.5a50.13,50.13,0,0,0-5.8-13,1.79,1.79,0,0,0-2.11-1c-1.38.23-2.78.38-4.16.61-2,.33-4,.66-5.94,1-1.78.36-3.53.87-5.31,1.19-7,1.26-13.88,2.71-20.41,5.49a23.94,23.94,0,0,0-4,2.27,2.29,2.29,0,0,0-.58,2.74,5.23,5.23,0,0,1,.41,1.45c.09.64,0,1.31.12,1.94C21,70.33,22,75.39,23.21,80.42c2.41,10.33,5,20.62,7.31,31,1.74,7.83,3.18,15.73,4.73,23.61.28,1.41.52,1.62,2,1.4,2.47-.39,5-.73,7.43-1.14,1.94-.31,3.94-.22,5.79-1.14a1.13,1.13,0,0,0,.7-1.45,5.25,5.25,0,0,1,.73-3.93A6.81,6.81,0,0,1,58,125.51a5.91,5.91,0,0,1,5.45,3.92C63.51,129.69,63.65,130,63.79,130.23Zm-6,7.46c2.61-.21,4.07-1.14,4.59-3.37a5.18,5.18,0,0,0-1-4c-1-1.6-2.3-2.1-4.33-1.68a3.49,3.49,0,0,0-2.92,3.17,10.83,10.83,0,0,0,.34,3.45C55,137.13,55.86,137.67,57.8,137.69Z"/><path class="cls-2" d="M47.3,44.92a5.93,5.93,0,0,1,1.66.17,1.56,1.56,0,0,1,.94.94c.06.36-.3.85-.59,1.19a1.72,1.72,0,0,1-.88.41c-4.55,1.2-9.11,2.37-13.65,3.56a1.63,1.63,0,0,1-2.17-.79,1.28,1.28,0,0,1,.86-2q5.93-1.69,11.87-3.28A11.48,11.48,0,0,1,47.3,44.92Zm1.88,1.43L49.12,46a3.4,3.4,0,0,0-1-.22,18.22,18.22,0,0,0-3.14.25c-2.76.62-5.51,1.31-8.24,2a18.6,18.6,0,0,0-2.83,1.14c-.19.08-.29.37-.43.56.26.1.53.3.76.26,1.43-.23,2.87-.47,4.27-.8,3.17-.77,6.33-1.58,9.49-2.4A6.56,6.56,0,0,0,49.18,46.35Z"/><path class="cls-2" d="M23.16,52.64a4.16,4.16,0,0,1-2.78,3.24,2.22,2.22,0,0,1-2.47-2.36A3.56,3.56,0,0,1,20,50.64,2.24,2.24,0,0,1,23.16,52.64Zm-3.72,2.3a3.08,3.08,0,0,0,2.86-2.11c.13-.72-.46-1.58-1.18-1.43a3.11,3.11,0,0,0-1.83,1.07,3.72,3.72,0,0,0-.34,2C18.94,54.64,19.34,54.85,19.44,54.94Z"/></g></g></svg>