<svg xmlns="http://www.w3.org/2000/svg" viewBox="0 0 111.66 193.26"><defs><style>.cls-1{fill:#d2c46e;}.cls-2{fill:#323333;}</style></defs><title>c2_mix</title><g id="レイヤー_2" data-name="レイヤー 2"><g id="レイヤー_1-2" data-name="レイヤー 1"><path class="cls-1" d="M50.57,19.45a80.81,80.81,0,0,1,0-8.86,92.28,92.28,0,0,0-3.69,13.8c-.07.48-.51.7-1,.4a2.2,2.2,0,0,1-1-1.4,5.36,5.36,0,0,1-.08-2.06c.45-3.43,3.18-12.82,5.28-18a1,1,0,0,1,1.4-.59,3.29,3.29,0,0,1,1.93,2.17,8,8,0,0,1,.15,2.34c-.22,3-.35,5.09-.37,9.53,1.95-5.78,4.47-9.68,6.47-16C59.9,0,60.3-.18,61,.22a3.2,3.2,0,0,1,1.46,1.9,6.33,6.33,0,0,1-.07,2.73A124.35,124.35,0,0,0,59.5,21.07c-.06.68-.33.75-.94.45a2.35,2.35,0,0,1-1.18-1.58,7.15,7.15,0,0,1-.22-1.83v0a60.9,60.9,0,0,1,1.36-8.69,96.34,96.34,0,0,0-4.67,13c-.17.71-.45.78-1,.56a3.38,3.38,0,0,1-2.09-2.42A6.73,6.73,0,0,1,50.57,19.45Z"/><path class="cls-1" d="M72,7.93c.21.54.43,1.14.64,1.78a45.77,45.77,0,0,0,2.68-5.77c.34-.85,1.08-1,1.27-.07a5.43,5.43,0,0,1-.5,2.85,54.78,54.78,0,0,1-2.69,5.14c.31.94.63,1.89.87,2.55.45,1.07.75,1.36,1,1.29.84-.22,2-2.85,2.37-4.82.15-.8.72-.79,1.1-.22a2.63,2.63,0,0,1,.17,2.27A6.46,6.46,0,0,1,75,17.27c-1.64.43-2.79-.26-3.62-2.3-1.6,2.21-3.5,4.17-5.14,4.6a2.56,2.56,0,0,1-3.46-2,6.81,6.81,0,0,1-.18-2.07,40.2,40.2,0,0,1,2-8.47c.26-.73.58-.91,1.21-.52a2.26,2.26,0,0,1,1,1.44,4.6,4.6,0,0,1,0,2c-.19,1.31-1.13,4.14-1.38,5.72a5.29,5.29,0,0,0,0,1.85c.14.53.37.77.7.65,1.1-.36,2.87-2.55,4.56-5.21C70,10.91,69,8.21,68.34,6.77c-.27-.56.2-.88.85-.95C70.33,5.75,71.23,6,72,7.93ZM67.58,3.6a2.64,2.64,0,0,1,.46.87,1.83,1.83,0,0,1-.14,1.36A1.41,1.41,0,0,1,65.55,6a2.61,2.61,0,0,1-.65-1.09,1.47,1.47,0,0,1,.26-1.39A1.51,1.51,0,0,1,67.58,3.6Z"/><path class="cls-2" d="M30.09,116.65a29.68,29.68,0,0,1-6.35-1.59,24.45,24.45,0,0,1-3-1.3,12.38,12.38,0,0,1-2.77-1.87,4.21,4.21,0,0,1-1.52-3.1,4.42,4.42,0,0,1,1.67-3,18.49,18.49,0,0,1,5.83-3.12A65.34,65.34,0,0,1,36.68,99.8a73.56,73.56,0,0,1,13-.75v.16c-4.32.45-8.64.64-12.92,1.27a64,64,0,0,0-12.58,2.9,18.05,18.05,0,0,0-5.59,3,3.65,3.65,0,0,0-1.44,2.48,3.48,3.48,0,0,0,1.28,2.54,11.44,11.44,0,0,0,2.6,1.76A23.37,23.37,0,0,0,24,114.41c2,.73,4.09,1.32,6.16,2Z"/><path class="cls-2" d="M68.14,99.8a44.58,44.58,0,0,1,10.2,1.57,39.54,39.54,0,0,1,5,1.58,17.83,17.83,0,0,1,4.61,2.55,8.85,8.85,0,0,1,1,1,5.09,5.09,0,0,1,.72,1.24l.14.34.06.37a2.7,2.7,0,0,1,0,.75,3.4,3.4,0,0,1-.42,1.41,6.35,6.35,0,0,1-1.85,2A15.7,15.7,0,0,1,85.31,114a42.45,42.45,0,0,1-9.88,3.16,108.85,108.85,0,0,1-20.52,2c-3.43,0-6.87-.06-10.3-.3-1.71-.11-3.42-.26-5.13-.46a25.7,25.7,0,0,1-5.07-.92l0-.23a51.24,51.24,0,0,1,5.12.46c1.69.18,3.4.31,5.1.42,3.41.2,6.83.27,10.24.21a109.82,109.82,0,0,0,20.33-2.11,41.47,41.47,0,0,0,9.65-3.08,8.68,8.68,0,0,0,3.7-3c.79-1.34,0-2.9-1.29-3.88a17.14,17.14,0,0,0-4.35-2.39,40.11,40.11,0,0,0-4.84-1.55c-3.29-.84-6.65-1.38-10-2.16Z"/><path class="cls-2" d="M18.43,115.36c1,4,1.48,8,2.15,12l1.88,12q1.89,12,3.71,24.07l1.82,12,.91,6,.23,1.51c.07.5.11,1,.21,1.46a4.32,4.32,0,0,0,.48,1.34,5.69,5.69,0,0,0,1,1.12A16.1,16.1,0,0,0,36,189.86a38.91,38.91,0,0,0,5.82,1.62,65.92,65.92,0,0,0,12,1.22c2,0,4,0,6.06-.19a50.12,50.12,0,0,0,6-.81A30.8,30.8,0,0,0,71.67,190a10.4,10.4,0,0,0,4.64-3.47,6.74,6.74,0,0,0,.63-1.26c.14-.47.34-.94.48-1.43.3-1,.49-2,.7-3,.44-2,.79-4,1.18-6q1.08-6,2-12,1.93-12,3.7-24.07l1.75-12,.85-6a35.27,35.27,0,0,1,1.23-6l.22,0a33.44,33.44,0,0,1-.49,6.09l-.88,6-1.81,12C84.68,147,83.41,155,82,163c-.69,4-1.4,8-2.16,12-.41,2-.78,4-1.24,6-.21,1-.45,2-.7,3-.12.5-.16,1-.29,1.51a5.81,5.81,0,0,1-.71,1.46,11,11,0,0,1-5,3.69,30.17,30.17,0,0,1-5.91,1.7,47.89,47.89,0,0,1-6.08.77c-2,.16-4.07.19-6.11.15a66.8,66.8,0,0,1-12.13-1.31,39.86,39.86,0,0,1-5.88-1.68,16.31,16.31,0,0,1-5.32-3,11.55,11.55,0,0,1-1.06-1.15,5.53,5.53,0,0,1-.78-1.41,6.38,6.38,0,0,1-.38-1.52l-.24-1.5-.95-6-1.89-12q-1.92-12-3.74-24.07l-1.84-12c-.57-4-1.36-8-1.57-12.08Z"/><path class="cls-2" d="M23.71,53.73a7.86,7.86,0,0,1,0-1.68l.34-1.65.46-1.61.56-1.57a28.39,28.39,0,0,1,3.16-5.87,25.38,25.38,0,0,1,4.54-4.89,18.17,18.17,0,0,1,2.79-1.88,14.09,14.09,0,0,1,1.53-.7,10.32,10.32,0,0,1,1.64-.4l.11.4c-.49.26-1,.43-1.48.66s-1,.44-1.43.72a17.75,17.75,0,0,0-2.64,1.83A24.56,24.56,0,0,0,29,41.86a28.44,28.44,0,0,0-3.1,5.68l-.55,1.52-.45,1.55-.35,1.57a9,9,0,0,1-.41,1.58Z"/><path class="cls-2" d="M40.33,33.52a1.88,1.88,0,0,1,1.39.48,2.71,2.71,0,0,1,.74,1.3,7.26,7.26,0,0,1,.09,2.82,18,18,0,0,1-1.65,5.25,29.21,29.21,0,0,1-2.8,4.69,24.32,24.32,0,0,1-3.67,4l-.32-.33a47.82,47.82,0,0,0,3.38-4.15A28.92,28.92,0,0,0,40.19,43a18.89,18.89,0,0,0,1.65-5,6.62,6.62,0,0,0,0-2.55,2.12,2.12,0,0,0-1.51-1.7Z"/><path class="cls-2" d="M1.42,38.5c2,1.34,3.83,2.82,5.69,4.29l5.57,4.44c1.87,1.46,3.73,2.93,5.62,4.36s3.78,2.87,5.74,4.2l.1.13a3.56,3.56,0,0,0,3.15,1.75h0l.12,0,.13.08a52.13,52.13,0,0,1,8.79,6.92A64.87,64.87,0,0,1,43.72,73a60.2,60.2,0,0,1,5.79,9.59A49.8,49.8,0,0,1,53,93.22l-.33.07a67.14,67.14,0,0,0-4.06-10.24,71.51,71.51,0,0,0-5.8-9.36,73.91,73.91,0,0,0-7.18-8.35,63.24,63.24,0,0,0-8.37-7.15l.25,0h0a2.4,2.4,0,0,1-2.53,0,2.47,2.47,0,0,1-1.26-2.14l.1.13c-2-1.25-4-2.57-5.95-4S14,49.42,12.11,48A132.72,132.72,0,0,1,1.16,38.82Z"/><path class="cls-2" d="M.81,37.86A2.29,2.29,0,0,1,0,36.36a6.22,6.22,0,0,1,0-1.67A14.49,14.49,0,0,1,1,31.56,24.56,24.56,0,0,1,4.31,26a20.72,20.72,0,0,1,2.17-2.42,9.4,9.4,0,0,1,2.68-1.86A12.49,12.49,0,0,1,10.69,21a2.62,2.62,0,0,1,1.77,0c1,.37,2,.77,3,1.21,3.9,1.82,7.87,3.42,11.84,5.05,2,.82,4,1.64,5.92,2.52s3.93,1.72,5.88,2.62l-.11.26c-2-.78-4-1.62-6-2.44s-4-1.66-5.91-2.52c-3.94-1.7-7.86-3.44-11.92-4.83-1-.35-2-.76-3-1.09a4.66,4.66,0,0,0-1.4-.22,3.1,3.1,0,0,0-1.48.4,18.83,18.83,0,0,0-4.57,4.34,26.4,26.4,0,0,0-3.24,5.45,13.09,13.09,0,0,0-.93,3A4.38,4.38,0,0,0,1,37.72Z"/><path class="cls-2" d="M88.31,53.76a26.68,26.68,0,0,0-4.8-11.94A24.78,24.78,0,0,0,79.17,37a18.72,18.72,0,0,0-5.56-3.31l0-.05a13.28,13.28,0,0,1,5.94,2.87A24.34,24.34,0,0,1,84.1,41.4a28.24,28.24,0,0,1,3.14,5.86,21.81,21.81,0,0,1,1.47,6.47Z"/><path class="cls-2" d="M72.12,33.76a1.74,1.74,0,0,0-1.1.55,2.46,2.46,0,0,0-.53,1.13,6.65,6.65,0,0,0,0,2.59A18.75,18.75,0,0,0,72.34,43,36.32,36.32,0,0,0,75,47.57a47,47,0,0,0,3.28,4.23l-.27.27a25.18,25.18,0,0,1-3.77-4,24.7,24.7,0,0,1-2.84-4.7,18.4,18.4,0,0,1-1.48-5.31,7.47,7.47,0,0,1,.16-2.78,2.82,2.82,0,0,1,.71-1.24,2.07,2.07,0,0,1,1.3-.56Z"/><path class="cls-2" d="M109.78,38.63c-1.66,1.55-3.32,3.14-5,4.66s-3.42,3-5.18,4.52S96,50.74,94.23,52.15s-3.66,2.78-5.6,4l.09-.12h0A2.41,2.41,0,0,1,87.33,58a3,3,0,0,1-2.32.2h0l.15,0C83,60,80.7,61.74,78.68,63.78a51.91,51.91,0,0,0-5.59,6.59c-1.74,2.31-3.46,4.65-5.43,6.8-.5.53-1,1.06-1.52,1.58l-1.58,1.5A11.84,11.84,0,0,0,62,83.59,22.49,22.49,0,0,0,60,91.85c-.15,1.43-.23,2.88-.31,4.33s0,2.86,0,4.3a8.46,8.46,0,0,1-.16,2.28,9.67,9.67,0,0,1-.8,2.13c-.15.34-.33.66-.5,1a7.85,7.85,0,0,1-.64,1,8.23,8.23,0,0,1-1.63,1.6,15.73,15.73,0,0,0-3.28,2.64,5.41,5.41,0,0,0-.82,3.88l-.52.08a5.87,5.87,0,0,1,.68-4.44,16.41,16.41,0,0,1,3.33-2.93,7.85,7.85,0,0,0,1.44-1.44,7.61,7.61,0,0,0,.54-.85c.16-.31.33-.63.47-1a9.29,9.29,0,0,0,.7-1.92,10.35,10.35,0,0,0,.19-2,40.06,40.06,0,0,1,.37-4.36c.17-1.43.31-2.87.43-4.32a24.77,24.77,0,0,1,1.92-8.52,11.61,11.61,0,0,1,2.67-3.55l1.59-1.47,1.53-1.51a69.35,69.35,0,0,0,5.54-6.64c1.75-2.3,3.44-4.66,5.4-6.84a24.79,24.79,0,0,1,6.76-5.51l0,0,.13,0h0a6.26,6.26,0,0,0,1.85-.57,3.73,3.73,0,0,0,1.39-1.24h0l0-.07.06,0a111.11,111.11,0,0,0,10.82-8.41c1.73-1.49,3.46-3,5.16-4.52s3.4-3.06,5.23-4.47Z"/><path class="cls-2" d="M110.45,37.39a8.38,8.38,0,0,0-.62-5.93A25.75,25.75,0,0,0,106.64,26a21.43,21.43,0,0,0-4.46-4.46,7.88,7.88,0,0,0-2.78-1.38,3.12,3.12,0,0,0-1.49.08c-.49.19-1,.4-1.47.64-3.89,1.83-7.68,3.88-11.49,5.89l-5.71,3a45.92,45.92,0,0,1-5.83,2.8l-.06-.12A43.33,43.33,0,0,1,79,29.24c1.9-1,3.81-2,5.74-3,3.84-1.95,7.68-3.89,11.59-5.74.49-.22,1-.44,1.5-.64a4,4,0,0,1,1.69-.14,8,8,0,0,1,3.1,1.22,21.24,21.24,0,0,1,4.77,4.5,23.24,23.24,0,0,1,3.39,5.62,12.26,12.26,0,0,1,.88,3.23,5,5,0,0,1-.06,1.73,3.17,3.17,0,0,1-.86,1.52Z"/><path class="cls-2" d="M27.57,46.6c2.5,2.68,5.11,5.28,7.53,8.06S40,60.19,42.33,63a66.79,66.79,0,0,1,6.52,9,26.77,26.77,0,0,1,3.91,10.36l-.17,0a50.7,50.7,0,0,0-4.49-10A86.27,86.27,0,0,0,42,63.3,98.63,98.63,0,0,0,34.69,55c-1.28-1.32-2.55-2.64-3.81-4a20.94,20.94,0,0,1-3.36-4.4Z"/><path class="cls-2" d="M84.07,49.66a54.69,54.69,0,0,0-7.88,5.84,38,38,0,0,0-6,7.77,25.45,25.45,0,0,1-3.06,4c-1.11,1.25-2.25,2.46-3.39,3.67a79.17,79.17,0,0,0-6.43,7.55,21.58,21.58,0,0,0-2.47,4.21,11.7,11.7,0,0,0-.8,4.7c0,1.62.31,3.24.48,4.91a18.26,18.26,0,0,1-.13,5.06,19.2,19.2,0,0,1-4.48,8.94c-1.08,1.28-2.37,2.37-3.33,3.66a6.35,6.35,0,0,0-1.26,4.53l-.18,0A6.52,6.52,0,0,1,45.1,112a5.7,5.7,0,0,1,1-2.36,46.21,46.21,0,0,1,3.36-3.71,18.6,18.6,0,0,0,2.82-4,14.34,14.34,0,0,0,1.53-4.63c.49-3.26-.61-6.44-.67-9.86a11.82,11.82,0,0,1,.93-5,22,22,0,0,1,2.66-4.31c2-2.67,4.29-5.11,6.52-7.58s4.56-4.83,6.14-7.71c.84-1.43,1.69-2.88,2.67-4.25a26.92,26.92,0,0,1,3.31-3.85,23.89,23.89,0,0,1,8.53-5.31Z"/></g></g></svg>