<svg xmlns="http://www.w3.org/2000/svg" viewBox="0 0 92.06 185.18"><defs><style>.cls-1{fill:#323333;}.cls-2{fill:#85b359;}</style></defs><title>c3_complete</title><g id="レイヤー_2" data-name="レイヤー 2"><g id="レイヤー_1-2" data-name="レイヤー 1"><path class="cls-1" d="M61.38,56.42a124.16,124.16,0,0,1-4.73,18.23c1,.25,1.83.48,2.69.68a29.94,29.94,0,0,1,13.78,7.14,20.11,20.11,0,0,1,2.7,3.31c.56.79.34,1.33-.6,1.83a11.29,11.29,0,0,0-.55-1.79,6.1,6.1,0,0,0-1.14-1.64A29.88,29.88,0,0,0,60.8,76.84c-1.15-.33-2.32-.57-3.48-.9-.65-.19-.92,0-1.07.66-.5,2.29-1,4.56-1.59,6.84a2.35,2.35,0,0,1-.12.33,2.81,2.81,0,0,1-.26-2.38c.42-1.93.91-3.85,1.37-5.77,1.54-6.42,3.1-12.85,4.62-19.28.31-1.34.51-2.7.76-4.06.47-2.58.91-5.18,1.42-7.75.17-.84.53-1.63.78-2.45A1.86,1.86,0,0,0,62.45,40a3.84,3.84,0,0,0-3.24-.27c-.27.08-.51.53-.59.85-2.32,8.52-4.79,17-6.66,25.62-.77,3.54-1.65,7-2.53,10.55-.49,2-1.1,4-1.66,5.93a6.82,6.82,0,0,1-.37.77c-.51-1.7,0-3.12.27-4.54s.59-2.85.92-4.39c-.48-.06-.88-.12-1.28-.15a56,56,0,0,0-12.59,1c-2.95.48-5.94.73-8.89,1.25a49.69,49.69,0,0,0-14.6,4.6,15.67,15.67,0,0,0-6.32,6.21,10.06,10.06,0,0,0-.57,1.86,2.83,2.83,0,0,1-.35.86.7.7,0,0,1-.57.28.62.62,0,0,1-.28-.53c.15-1,.36-2,.56-3.06a3.8,3.8,0,0,0,.14-.67,51.67,51.67,0,0,1,0-5.28c.47-5.1,1.62-10,4.4-14.43A35.49,35.49,0,0,1,16.56,57a42.68,42.68,0,0,1,16.22-7.87,47,47,0,0,1,6.51-.77,10.75,10.75,0,0,1,1.86.18l5.1.57a29.12,29.12,0,0,1,7.42,1.78c.6.23.87.17,1.07-.48.92-3.12,1.88-6.22,2.84-9.34a3.4,3.4,0,0,1,4.07-2.46,10.38,10.38,0,0,1,2.13.75,1,1,0,0,1,.53,1.24c-.57,2.9-1.12,5.82-1.66,8.73-.31,1.64-.56,3.28-.88,4.92a.87.87,0,0,0,.45,1.09C69.3,59.52,73.63,66,76.61,73.43a27.69,27.69,0,0,1,1.51,11.23c0,.51-.13,1-.84,1.16A28.84,28.84,0,0,0,73.4,69C70.41,63.89,66.8,59.39,61.38,56.42Zm-57,28.44.29.11c1.75-2.65,4.4-4,7.2-5.15.19-.08.37-.18.57-.26,3.54-1.43,7-3.12,10.79-3.83,2.79-.52,5.6-.92,8.39-1.41a68.11,68.11,0,0,1,16.25-1c.81.06,1-.24,1.16-.93.64-2.82,1.29-5.63,2-8.42.93-3.53,1.95-7,3-10.53.17-.6.08-.91-.55-1.09-.91-.24-1.78-.58-2.68-.85a45.85,45.85,0,0,0-9.1-1.34,29.53,29.53,0,0,0-3.46-.45A28.83,28.83,0,0,0,30.2,51a41.12,41.12,0,0,0-10.53,5.34A35.91,35.91,0,0,0,8.6,68.55,34.17,34.17,0,0,0,4.8,81C4.62,82.29,4.54,83.58,4.42,84.86Z"/><path class="cls-1" d="M17.12,174.62a3.8,3.8,0,0,1,.68.35c2,1.75,4,3.53,6,5.25a15.75,15.75,0,0,0,6.43,2.89,34.08,34.08,0,0,0,13.55.91,25.75,25.75,0,0,0,10.66-4.24c1.54-1,3-2.14,4.46-3.29a7.86,7.86,0,0,0,2.64-3.8,21.73,21.73,0,0,0,.77-3.77c.73-5.25,1.38-10.52,2.14-15.77.38-2.65,1-5.27,1.4-7.91.26-1.64.37-3.31.59-5,.28-2.11.6-4.22.92-6.33a1.22,1.22,0,0,1,.4-.72,93.92,93.92,0,0,1-.92,11.26c-.41,3.72-1.23,7.4-1.87,11.1l.29.19c1.06-.72,2.15-1.4,3.16-2.18,1.23-.95,2.4-2,3.59-3,1-.83,2-1.63,2.93-2.55a5,5,0,0,0,1-1.71q2.82-7.4,5.58-14.83c.36-.95.58-1.95.92-2.9.09-.24.39-.4.59-.6a2.81,2.81,0,0,1,0,.76,122,122,0,0,1-5.31,15.34,6.44,6.44,0,0,0-.34,1,11.68,11.68,0,0,1-4.92,6.5c-1.2.86-2.27,1.9-3.47,2.76s-2.44,1.56-3.66,2.35c-.2.13-.47.34-.5.54-.41,2.91-.74,5.83-1.17,8.74a39.35,39.35,0,0,1-1.29,6.89,10.65,10.65,0,0,1-3.41,4.83c-4.23,3.46-8.86,6.14-14.31,7.14a31.19,31.19,0,0,1-8,.16A31.4,31.4,0,0,1,26,182.48a22.79,22.79,0,0,1-3.56-2.23,28.54,28.54,0,0,1-3-2.37,25,25,0,0,1-2.11-2.47C17.23,175.28,17.23,175.05,17.12,174.62Z"/><path class="cls-1" d="M74,87.69c.84,0,.92.58.71,1.09a5.74,5.74,0,0,1-1.12,1.94,18,18,0,0,1-3.39,2.73A58.77,58.77,0,0,1,50.46,100a91.85,91.85,0,0,1-18.38.73,78,78,0,0,1-12.94-1.43,14.81,14.81,0,0,1-1.74-.45c-1.94-.67-3.91-1.26-5.79-2.07A10.29,10.29,0,0,1,7,92.6a9.45,9.45,0,0,1-.5-1.06c.56-.42.92-.33,1.23.24A8.37,8.37,0,0,0,12.57,96c2.27.75,4.42,1.9,6.72,2.48a44.79,44.79,0,0,0,10.2,1.34c2.73,0,5.47.12,8.2.26A56.82,56.82,0,0,0,49,99.28a56.31,56.31,0,0,0,12.43-3c3.07-1.21,6.05-2.66,9-4.09a9.71,9.71,0,0,0,2.37-1.77C73.52,89.73,74.3,88.94,74,87.69Z"/><path class="cls-1" d="M25.43,143.79a7.49,7.49,0,0,1,1.82-.09,2.49,2.49,0,0,1,1.86,3.55,5.48,5.48,0,0,1-.87,1.37,12.57,12.57,0,0,1-5.74,3.76c-2.45.86-4.91,1.7-7.4,2.44a4.18,4.18,0,0,1-5.45-5.12,1.57,1.57,0,0,0,0-.24c-.79-.45-1.58-.88-2.36-1.35a4.42,4.42,0,0,1-.18-7.3,16.66,16.66,0,0,1,2.21-1.17,35.75,35.75,0,0,1,9.53-3.07,56.94,56.94,0,0,1,7.16-.35c1.1,0,1.56.56,1.67,1.69a15.16,15.16,0,0,1,.13,2.85,2.82,2.82,0,0,1-.78,1.28c-.51.61-1.07,1.17-1.61,1.76-.53.28-1.05.57-1.58.84-2.07,1-4.17,2-6.21,3.11a15.74,15.74,0,0,1-6,1.49,2,2,0,0,1-.57-.13v-.24c.21,0,.42-.08.63-.14a28.13,28.13,0,0,0,4.79-1.28c2.71-1.25,5.31-2.76,7.92-4.22a16.06,16.06,0,0,0,2.12-1.59.94.94,0,0,0,.36-.56,27.89,27.89,0,0,0-.23-3,1,1,0,0,0-1-.87,32.7,32.7,0,0,0-10,1,9.8,9.8,0,0,0-1.22.27q-3.12,1.24-6.21,2.53a3,3,0,0,0-2,3.25A4.11,4.11,0,0,0,8.37,148c.44.22.83.54,1.28.74a1.14,1.14,0,0,1,.69,1.39,3.47,3.47,0,0,0,4.33,4,40.84,40.84,0,0,0,11.39-4.6,7,7,0,0,0,2.07-2.17c.86-1.35.26-2.51-1.27-2.87A7.92,7.92,0,0,1,25.43,143.79Z"/><path class="cls-1" d="M74,103.65c.14-2.48.25-5,.45-7.5.16-2,.43-4,.65-6.05.06-.48.18-1,.8-.94s.57.66.49,1.13c-.35,2.08-.78,4.14-1,6.23s-.4,4.41-.59,6.61c0,.3-.09.59-.14.94a6.05,6.05,0,0,1,2.57,5.84c-.14,1.53-.29,3-.38,4.57a2.27,2.27,0,0,0,.23,1,11.08,11.08,0,0,0,3.84,4.83,14.84,14.84,0,0,1,2.33,1.93,2.92,2.92,0,0,1-.15,3.9,5.3,5.3,0,0,1-.15-1.37,2.66,2.66,0,0,0-1.12-2.73c-.39-.31-.77-.62-1.17-.91a10.71,10.71,0,0,1-4-5,12,12,0,0,1-.6-3.43,30,30,0,0,1,.13-3.9,5.58,5.58,0,0,0-.91-3.4c-.2-.34-.43-.76-1-.52a.27.27,0,0,1-.21-.08c-1-1.08-1.8-.32-2.49.28a13.12,13.12,0,0,0-4.49,7.23,27.8,27.8,0,0,0,.13,11.7,17.27,17.27,0,0,0,1.3,3,3.71,3.71,0,0,1,.15.66c-.22-.07-.58-.08-.66-.23a14.92,14.92,0,0,1-1.42-2.93,25.42,25.42,0,0,1-.25-13.27,12.91,12.91,0,0,1,5.15-7.15A2.3,2.3,0,0,1,74,103.65Z"/><path class="cls-1" d="M3.58,118.66c-.51-.3-1.17-.63-1.77-1a5.09,5.09,0,0,1-1.73-4.78C.53,110.52,2,109.44,4.15,109c3.77-.8,7.46-.06,11.15.45a12.07,12.07,0,0,1,5.31,1.73,6.22,6.22,0,0,1,2.9,5.93,2.43,2.43,0,0,1-1.66,2.25,16.85,16.85,0,0,1-4.2,1A37.24,37.24,0,0,1,4.75,119a.51.51,0,0,0-.22,0m15.28-7a11.09,11.09,0,0,0-2-.74c-2.09-.39-4.19-.73-6.29-1-1.75-.22-3.52-.27-5.27-.5a7.15,7.15,0,0,0-3.42.54c-2,.68-3,4.9-1,6.33a8.19,8.19,0,0,0,2,.93,33.66,33.66,0,0,0,13,2,18.27,18.27,0,0,0,4.48-1,1.66,1.66,0,0,0,1.25-2.16A5.57,5.57,0,0,0,19.81,112Z"/><path class="cls-1" d="M17.83,124.19c2.33.51,4.53.91,6.06,2.82a3.07,3.07,0,0,1-1.47,5c-4.14,1.28-8.27,2.57-12.42,3.8a9.54,9.54,0,0,1-6.49-.31,2.53,2.53,0,0,1-1.6-2.33c-.14-2.79.5-5.14,3.32-6.49a20.35,20.35,0,0,1,8.63-2,19.38,19.38,0,0,0,2.12-.32C16.64,124.27,17.29,124.24,17.83,124.19ZM6.25,135.64a24.62,24.62,0,0,0,3.33-.56c4.17-1.27,8.31-2.63,12.47-4a2.55,2.55,0,0,0,1.53-3A4.06,4.06,0,0,0,21.47,126a11.74,11.74,0,0,0-5.85-.69,23.46,23.46,0,0,0-10.18,2.88A5.53,5.53,0,0,0,3,130.76,3.78,3.78,0,0,0,6.25,135.64Z"/><path class="cls-1" d="M6.1,106.45c0,.31.1.48.05.62-.11.3-.27.59-.41.88a3.89,3.89,0,0,1-.58-.77,3.78,3.78,0,0,1-.13-.84c-.44-2.85-.9-5.7-1.32-8.55-.21-1.47-.38-2.94-.53-4.42,0-.22.2-.46.31-.69.19.2.51.38.55.61.71,4.12,1.38,8.25,2.06,12.38A4,4,0,0,1,6.1,106.45Z"/><path class="cls-1" d="M16.71,173.12a5.5,5.5,0,0,1-.63-1.26c-.48-2.15-.94-4.31-1.34-6.48-.31-1.71-.54-3.44-.76-5.17a6.12,6.12,0,0,1,.12-1.4h.32L17.12,173Z"/><path class="cls-1" d="M47.49,84.27c.26.24.5.42.7.63a3.65,3.65,0,0,0,4.35.88c.51-.2,1-.35,1.66-.55C54,86.31,52,87.2,50.68,87,48.84,86.6,47.29,85.36,47.49,84.27Z"/><path class="cls-1" d="M10.64,139.8a6,6,0,0,1-.44-1.18,23.16,23.16,0,0,1-.18-2.49c0-.19.24-.39.37-.58.17.17.45.32.48.52a12.32,12.32,0,0,1,.07,1.61c0,.68,0,1.37,0,2Z"/><line class="cls-1" x1="8.72" y1="120.11" x2="9.48" y2="125.61"/><path d="M9.22,120c.14.92.22,1.84.29,2.76a23.69,23.69,0,0,1,.07,2.8l-.2,0a21.82,21.82,0,0,1-.69-2.7c-.18-.91-.35-1.83-.46-2.74Z"/><path class="cls-2" d="M14.88,23.62c.72.91.5,2.18.21,3.54a11.18,11.18,0,0,0-.25,1.41c-.07.64-.33.77-1,.62a2.16,2.16,0,0,1-1.52-1.51,6.46,6.46,0,0,1,.15-2.47c.16-.7.24-1.31.08-1.41-.45-.22-2,2.3-2.6,5.12a8.85,8.85,0,0,0-.08,3.71c.34,1.37,1.1,2.07,1.95,1.89,2.34-.54,3.9-3.45,4.68-5.62.17-.54.6-.78.92-.3a2.59,2.59,0,0,1,.11,2.19,8.11,8.11,0,0,1-5.29,4.92,4.18,4.18,0,0,1-5.49-3.2,8,8,0,0,1,.08-3.84c.8-3.59,2.84-5.87,4.64-6.32A4,4,0,0,1,14.88,23.62Z"/><path class="cls-2" d="M46.18,21.74a2.76,2.76,0,0,1,.33,2.13,7,7,0,0,1-4.44,4.61c-2.09.48-3.52-.39-3.93-2a4.79,4.79,0,0,1,0-2.11,34.88,34.88,0,0,1,1.28-4.46,14.06,14.06,0,0,0,.71-2.22c-.17,0-.9.65-2.23,2.89A28.83,28.83,0,0,0,34.69,30a.76.76,0,0,1-1.18.55,2.25,2.25,0,0,1-1-1.52,6.74,6.74,0,0,1,0-2.43,28.23,28.23,0,0,1,1.29-4.7c.53-1.58,1-2.85.8-2.9S33.24,20,31.88,22.55a27.71,27.71,0,0,0-2.5,8.58c-.11.52-.43.7-1.05.43a2.06,2.06,0,0,1-1.12-1.48,6,6,0,0,1-.13-1.71,26.59,26.59,0,0,1,.72-3.93,4.73,4.73,0,0,1-1.75.79c0,3.26-1.45,7.4-4.55,8.17a3.77,3.77,0,0,1-3.4-.82,4.62,4.62,0,0,1-1.49-2.47,9.13,9.13,0,0,1,.26-4.71C17.54,23,19,20.6,21,20.11a2.51,2.51,0,0,1,2.61.55A4.66,4.66,0,0,1,26,24c1.58-.66,2.76-3.25,3.65-5.81a.69.69,0,0,1,1.21-.29,3.09,3.09,0,0,1,.75,1.29,6.8,6.8,0,0,1,.12.9c1.06-1.71,2.4-3.23,3.42-3.48s1.94.75,2.25,2c1-1.48,2.53-3,3.43-3.18S42.44,16,42.69,17a4.3,4.3,0,0,1,.06,1.73,30.06,30.06,0,0,1-.85,3,15.37,15.37,0,0,0-.72,2.55,4,4,0,0,0,0,1.75c.17.72.6,1.11,1.1,1,1.11-.27,2.24-2.66,2.84-5C45.28,21.3,45.76,21.35,46.18,21.74ZM20.36,32c.75-.18,1.83-1.67,2.47-4a11.48,11.48,0,0,0,.42-2.74,4.28,4.28,0,0,1-2.44-1.87,11.15,11.15,0,0,0-1.21,2.84,9.43,9.43,0,0,0-.23,4.6C19.59,31.69,19.93,32.1,20.36,32Zm3.07-9.78c-.11-.46-.41-.59-.62-.53s-.41.36-.29.85a3.22,3.22,0,0,0,.93,1.65A5.24,5.24,0,0,0,23.43,22.21Z"/><path class="cls-2" d="M55,20a11.17,11.17,0,0,1-1.8,4.6c2.18-1,3.45-3.52,3.91-5.54.2-.81.89-.81,1.16-.22a3.37,3.37,0,0,1,.09,2.22c-.78,2.86-3.18,4.37-5.76,5s-4.18.14-5.31-1.37c-.74,2.89-1.42,5.89-2,9.25-.11.62-.46.84-.86.54a2.46,2.46,0,0,1-1-1.52,6.84,6.84,0,0,1-.12-2.11c.17-3.18,2.93-14.1,4.22-17.15.4-.82.83-.8,1.16-.52a1.92,1.92,0,0,1,.6,1.08,4.81,4.81,0,0,1,2.28-1.55c1.87-.46,3.18,1,3.57,2.58A11.12,11.12,0,0,1,55,20Zm-6.54.32c-.48,2.23.29,4.41,1.1,4.21,1-.23,1.94-2.28,2.58-5.18A10.09,10.09,0,0,0,52.28,15c-.14-.56-.29-.92-.46-.94-.62-.11-2,1.73-2.76,4.33Z"/><path class="cls-2" d="M65,6c-.06,3.93-2.55,8.43-4.83,10.93a12.3,12.3,0,0,0,0,4.33c.18.74.5,1.23.9,1.13,1.43-.35,2.72-2.88,3.36-5.41.21-.87.89-1,1.31-.28a3.05,3.05,0,0,1,.18,2.09c-.23,1.05-1.91,4.16-4.52,4.8-1.9.47-3.34-.33-3.87-2.48a7.69,7.69,0,0,1-.22-1.82,35.34,35.34,0,0,1,4.31-16c.45-.74,1-1.06,1.69-.65a3.11,3.11,0,0,1,1.58,2A4.28,4.28,0,0,1,65,6ZM62,9.32c-.48,1.57-1.27,4.23-1.36,4.82A20.75,20.75,0,0,0,62.8,9.43c.62-2,.69-3.5.47-3.58A12.91,12.91,0,0,0,62,9.32Z"/><path class="cls-2" d="M69.67,16.64a4.14,4.14,0,0,1-2.37-.15,6.51,6.51,0,0,0,.17,1.91c.34,1.36,1.13,2.19,2.06,2,2.36-.58,3.88-3.39,4.68-5.63.22-.58.61-.74,1-.18a2.7,2.7,0,0,1,.06,2.13,8.34,8.34,0,0,1-5.38,4.91,4.23,4.23,0,0,1-5.54-3.26,7.93,7.93,0,0,1,.08-3.8c.81-3.7,2.93-6,4.73-6.4a2.05,2.05,0,0,1,1.15,0,5.86,5.86,0,0,1,2.32,1.14,2.4,2.4,0,0,1,.59,1.08C73.69,12.19,72.41,16,69.67,16.64Zm-2.23-1.43a1.38,1.38,0,0,0,.74,0c.75-.19,1.51-1.36,1.93-2.36.6-1.43.9-3.05.49-3.25S68.2,11.86,67.44,15.21Z"/><path class="cls-2" d="M74.37,14a68.63,68.63,0,0,1,1.52-7,2.49,2.49,0,0,1-2-.4c-.6-.55-.36-.94.36-1.08A19.56,19.56,0,0,0,76.5,5,45,45,0,0,1,77.92.68c.29-.8.68-.86,1.16-.35a2.77,2.77,0,0,1,.66,1.19,5.91,5.91,0,0,1,0,2.26,2.31,2.31,0,0,1,2,.58c.45.48.32.91-.45,1a9.64,9.64,0,0,0-2,.59c-.68,2.31-1.7,5.82-2.21,8.45a6.15,6.15,0,0,0,0,2.47c.22.93.7,1.51,1.22,1.38,1.22-.3,2.35-2.65,2.87-5.25.16-.83.86-1.07,1.28-.28a2.61,2.61,0,0,1,.14,1.91c-.21,1-1.64,4.22-4.25,4.86a3.3,3.3,0,0,1-3.93-2.73A7.22,7.22,0,0,1,74.37,14Z"/><path class="cls-2" d="M86.27,12.56a4.08,4.08,0,0,1-2.38-.14,7.15,7.15,0,0,0,.17,1.9c.34,1.37,1.14,2.2,2.07,2,2.36-.58,3.88-3.39,4.68-5.63.22-.58.61-.74,1-.18a2.79,2.79,0,0,1,.06,2.13,8.36,8.36,0,0,1-5.39,4.91A4.23,4.23,0,0,1,81,14.26,8,8,0,0,1,81,10.45C81.85,6.76,84,4.5,85.76,4.06a2.05,2.05,0,0,1,1.15,0,5.79,5.79,0,0,1,2.32,1.14,2.33,2.33,0,0,1,.6,1.08C90.29,8.12,89,11.89,86.27,12.56ZM84,11.14a1.27,1.27,0,0,0,.74,0c.74-.18,1.51-1.35,1.92-2.35.61-1.43.9-3,.49-3.25C86.63,5.33,84.8,7.79,84,11.14Z"/></g></g></svg>