<svg xmlns="http://www.w3.org/2000/svg" viewBox="0 0 257.11 549.59"><defs><style>.cls-1{fill:#fbc845;}.cls-2{fill:#fcd559;}.cls-3{fill:#fbc950;}.cls-4{fill:#fbe177;}.cls-5{fill:#fdf1c1;}.cls-6{fill:#f9b91b;}.cls-7{fill:#fdf0c5;}.cls-8{fill:#fcedaf;}.cls-9{fill:#fac318;}.cls-10{fill:#69702e;}.cls-11{fill:#a2a93d;}.cls-12{fill:#ab9a50;}.cls-13{fill:#fbe38a;}.cls-14{fill:#767d33;}.cls-15{fill:#e6cab2;}.cls-16{fill:#d3d29b;}.cls-17{fill:#8f9836;}.cls-18{fill:#9ca43e;}.cls-19{fill:#c0b795;}.cls-20{fill:#c5ba7c;}.cls-21{fill:#d2ccb3;}.cls-22{fill:#b3b771;}.cls-23{fill:#caae63;}.cls-24{fill:#c6c0a0;}.cls-25{fill:#798434;}.cls-26{fill:#9ea536;}.cls-27{fill:#dad9c5;}.cls-28{fill:#dbcf9c;}.cls-29{fill:#fde9dc;}.cls-30{fill:#fce2d3;}.cls-31{fill:#eb5c3a;}.cls-32{fill:#fbda6e;}.cls-33{fill:#f5ba9e;}.cls-34{fill:#e5dc73;}.cls-35{fill:#d2d06f;}.cls-36{fill:#efd9cc;}.cls-37{fill:#e73e3d;}.cls-38{fill:#b9be3c;}.cls-39{fill:#f08a66;}.cls-40{fill:#edd3c6;}.cls-41{fill:#ee7e5c;}.cls-42{fill:#dad6b7;}.cls-43{fill:#f8d6b9;}.cls-44{fill:#e9d6ce;}.cls-45{fill:#ef837b;}.cls-46{fill:#fcf2c0;}.cls-47{fill:#e1d99b;}.cls-48{fill:#e7d2c7;}.cls-49{fill:#949d35;}.cls-50{fill:#e0ba51;}.cls-51{fill:#e5e4c5;}.cls-52{fill:#dfbf50;}.cls-53{fill:#ee7b50;}.cls-54{fill:#e7a157;}.cls-55{fill:#ecc1ac;}.cls-56{fill:#9aa429;}.cls-57{fill:#a7b73b;}.cls-58{fill:#ec6849;}.cls-59{fill:#a4ac43;}.cls-60{fill:#c49959;}.cls-61{fill:#b3b336;}.cls-62{fill:#f5b8ac;}.cls-63{fill:#a9b54b;}.cls-64{fill:#b4c050;}.cls-65{fill:#e1dfb3;}.cls-66{fill:#afbb57;}.cls-67{fill:#e77c70;}.cls-68{fill:#acba59;}.cls-69{fill:#c1cb77;}.cls-70{fill:#c8d055;}.cls-71{fill:#e48b84;}.cls-72{fill:#fdf1c0;}.cls-73{fill:#fef6e3;}.cls-74{fill:#fcdc84;}.cls-75{fill:#fcde92;}.cls-76{fill:#fde3ba;}.cls-77{fill:#b9bd39;}.cls-78{fill:#a3a741;}.cls-79{fill:#c5bd8a;}.cls-80{fill:#cec880;}.cls-81{fill:#e2aa71;}.cls-82{fill:#c89153;}.cls-83{fill:#bdbb78;}.cls-84{fill:#7d8c31;}.cls-85{fill:#cb8542;}.cls-86{fill:#d1cdab;}.cls-87{fill:#cbc19b;}.cls-88{fill:#bbb479;}.cls-89{fill:#828532;}.cls-90{fill:#c1b890;}.cls-91{fill:#c7c0a5;}.cls-92{fill:#dad4a7;}.cls-93{fill:#555627;}.cls-94{fill:#c2c556;}.cls-95{fill:#ccc98f;}.cls-96{fill:#636e31;}.cls-97{fill:#cfccb5;}.cls-98{fill:#ddd59d;}.cls-99{fill:#f9c8a6;}.cls-100{fill:#f7c0a4;}.cls-101{fill:#f8c8b1;}.cls-102{fill:#f5ab75;}.cls-103{fill:#f6b78a;}.cls-104{fill:#cb321f;}.cls-105{fill:#ee7948;}.cls-106{fill:#a3b420;}.cls-107{fill:#797e2c;}.cls-108{fill:#e6897a;}.cls-109{fill:#f7bb98;}.cls-110{fill:#f9d6ca;}.cls-111{fill:#e09d7f;}.cls-112{fill:#eb644b;}.cls-113{fill:#ddd33e;}.cls-114{fill:#f6b98c;}.cls-115{fill:#f7c9a2;}.cls-116{fill:#ee7e63;}.cls-117{fill:#e41f2c;}.cls-118{fill:#d11f22;}.cls-119{fill:#f08c81;}.cls-120{fill:#f8d1d1;}.cls-121{fill:#daab9b;}.cls-122{fill:#90a133;}.cls-123{fill:#848736;}.cls-124{fill:#df954d;}.cls-125{fill:#a4a844;}.cls-126{fill:#eebd88;}.cls-127{fill:#bdc130;}.cls-128{fill:#d19277;}.cls-129{fill:#dad6bf;}.cls-130{fill:#d6d3b9;}.cls-131{fill:#b9bf6d;}.cls-132{fill:#886b29;}.cls-133{fill:#d0be7a;}.cls-134{fill:#949d36;}.cls-135{fill:#99a63b;}.cls-136{fill:#b0b54a;}.cls-137{fill:#c5b585;}.cls-138{fill:#cec991;}.cls-139{fill:#d4c490;}.cls-140{fill:#7a802f;}.cls-141{fill:#dcdbcb;}.cls-142{fill:#cbcd85;}.cls-143{fill:#cec7ac;}.cls-144{fill:#a0a830;}.cls-145{fill:#7b7a2e;}.cls-146{fill:#b8c07e;}.cls-147{fill:#bdbf80;}.cls-148{fill:#b3a750;}.cls-149{fill:#666f2f;}.cls-150{fill:#c8bf93;}.cls-151{fill:#c9cd90;}.cls-152{fill:#f19466;}.cls-153{fill:#a2ac24;}.cls-154{fill:#d8d0b9;}.cls-155{fill:#a0a92b;}.cls-156{fill:#a6b137;}.cls-157{fill:#d0d288;}.cls-158{fill:#d7d984;}.cls-159{fill:#ae3b24;}.cls-160{fill:#9e732c;}.cls-161{fill:#d9d8a5;}.cls-162{fill:#756f2c;}.cls-163{fill:#f6da8c;}.cls-164{fill:#e98571;}.cls-165{fill:#cf4530;}.cls-166{fill:#e94d40;}.cls-167{fill:#b4b46c;}.cls-168{fill:#afb767;}.cls-169{fill:#797530;}.cls-170{fill:#ccc4a7;}.cls-171{fill:#d7b99a;}</style></defs><title>アセット 19</title><g id="レイヤー_2" data-name="レイヤー 2"><g id="レイヤー_1-2" data-name="レイヤー 1"><path class="cls-1" d="M66.49,275.28l-1.71,7.92c1.32,2.12.08,4.14-.37,6.11-1.5,6.54-4.15,12.48-9.73,16.68a4.26,4.26,0,0,0-1.06,1.64c-1.22,2.26-3.24,2.85-5.65,3.07-6.8.61-12.49-1.18-17.09-6.56-3-3.5-6.14-6.88-10.28-9.3-3.12-1.82-4.45-5.18-4.88-8.77-.19-1.62-.36-3.43-2.24-3.85C6.28,280.61,3.67,274.7.85,269A10,10,0,0,0,0,267.19v-76c2.29-1.57,5-2.36,7.46-3.42,3.68-1.56,5.69,1.62,8.16,3.36,5,4.75,10.92,8.43,15.94,13.21,3.1,3,4.43,6.5,4.72,11,.63-2.23,2-3.32,4.59-3.39-3.9-3.28-7-6.28-7-11.26,0-1.28-1.08-2.39-2.17-3.23-4.7-3.65-8.89-7.9-13.82-11.31-4.75-3.27-4.78-5.6-.32-9.37,2.1-1.78,3.39-5.05,7.09-4.45.79.13.85-.84,1.18-1.39,1.52-2.62,3.38-4.59,6.81-4.75,2.15-.09,4.75-4.29,4.79-7a11.15,11.15,0,0,1,.45-3.94A9.26,9.26,0,0,1,50.12,150a2.45,2.45,0,0,1,1.61,2.1,2.27,2.27,0,0,1-1.31,2.28,37.16,37.16,0,0,1-4.9,1.83c1.89,1.78,3.38,1.66,5.49.12,3.62-2.62,5.23-1.76,6.27,2.7a18.4,18.4,0,0,1,.69,6.31c-.4,3.54-.2,6.93,2.5,9.69a2.37,2.37,0,0,1,.82,1.77c-.94,5.08.22,10.46-2.1,15.29a2.73,2.73,0,0,0,0,2.91c1.53,2.62,2.1,5.75,4.49,7.93,1.13,1,1.7,2.71.47,3.93s-2.07-.39-3-1-1.63-1.38-2.44-.47.15,1.63.7,2.4c2.52,3.48,3.84,7.71,6.87,10.88.5,2.17-.45,3.51-2.46,4.23a7.32,7.32,0,0,1-4.2,0c-2.8-.66-4.73,1.19-4.77,4.51a6.36,6.36,0,0,1,.32,1,5.89,5.89,0,0,1-.31,3.45c-.58,1.5.2,2.18,1.48,2.59,1.74.85,5.21.22,4.58,3.18-.55,2.53-3.41.74-5.23.89a26,26,0,0,0-3.71,0c3,2.1,6.32,3.64,5.68,7.8a5.79,5.79,0,0,1-.27,1.07c-.74,3.19,1.81,2.3,3.09,2.18a7.68,7.68,0,0,1,7.42,3.33,4.58,4.58,0,0,1,1,2c.21.61,0,1.63.64,1.76s.75-.94,1.13-1.44a4.86,4.86,0,0,1,.7-.92c5.64-1.85,9.28-6.83,14.52-9.31a7.83,7.83,0,0,0,2.71-2.86A7.4,7.4,0,0,1,93.46,239c.89-.14,2-.52,2.6.37.82,1.16-.27,1.9-.91,2.7A135.22,135.22,0,0,1,71,260.76c-3.94,2.72-3.19,7.23-4.19,11.07C66.53,272.93,67,274.17,66.49,275.28Z"/><path class="cls-2" d="M65.42,218.4c-2-2.43-5.62-3.88-4.85-8.06.14-.78-.87-1.18-1.61-1.55-2.13-1.1-3-3-1.4-4.82s3.12-.1,4.43,1c.57.48.59,1.54,1.61,1.59.6-.72.61-1.82,0-2.17-3.58-2.25-3.62-6.64-6-9.59-.88-1.11-1.6-2.85.06-3.3,2.7-.73,1.89-2.08,1.63-3.86-.31-2.2-.64-4.56.58-6.64,1.46-2.51.84-4.71-1.08-6.48s-2.1-3.48-2.09-5.72c0-3.14.83-6.35-.58-9.42-.56-1.21.52-3.59-1.52-3.54a5.75,5.75,0,0,0-4.93,2.87c-.29.54,0,1.36-1.2,1.72-.61-2-2-3.2-4.28-2.89-.65.09-1.45-.09-1.43-1s.65-1.09,1.32-1.28l5.73-1.7c.68-.2,1.2-.55,1.17-1.36s-.47-1.53-1.06-1.51c-2.48.11-5,0-7.36,0-1.57,0-4.55,3.64-4.06,6.56.54,3.16-.89,5-2.27,7.43-1.24,2.16-2,3.26-4.75,2.64-2.34-.52-5,3.32-5.08,6.65-1.51.37-3.11-2.2-4.3-.39-1.9,2.93-5.72,4-6.84,7.53-.47,1.46.53,2.59,1.73,3.29,1.39.8,2.52,2.39,3.73,2.79,5.09,1.67,6.94,7.19,11.7,9.24A5,5,0,0,1,35.26,201c-.34,4.7,2.61,7.1,5.81,9.5.82.61,2.16,1.18,1.66,2.39s-1.57.17-2.43.08c-4.12-.44-2.51,3-2.87,5.39-3.23-2.28-2.15-5.63-3.14-8.14a18.81,18.81,0,0,0-7.52-8.73c-4.22-2.82-7.67-6.44-11.57-9.58-.46-1.24-.34-2.75-1.23-3.76-2.79-3.16-1.69-6.51-.46-9.75,1.51-4,4.55-7.14,6.6-10.86a3,3,0,0,1,2.38-1.31c5.08-.63,8.46-4.11,12.31-7-3.14-2.14-4.51-2.17-6.31.31-1.54,2.12-3.3,2.28-5.57,1.67-5.45-1.46-6.69-.79-9,4.54a5.47,5.47,0,0,1-2.1,2.83,29.15,29.15,0,0,0-6.51,5.2C3.84,175.34,2,176,0,174.39v-9.6c3.85-6.53,10-10.1,16.6-13.23,4.3-2.05,7.83-5.43,12.11-7.61,1.88-1,.29-2.23-.29-3.3a8.11,8.11,0,0,1-.63-.94,14.32,14.32,0,0,0-3.5-4.28,14.1,14.1,0,0,1-2.63-3c-1.29-1.73-2.53-4.12-.87-5.81,2-2,2.76,1.38,4.26,2,1.31-2-2-3.95,0-5.58,1.89-1.48,3.33,1,5.16,1a7.72,7.72,0,0,1,7.27,8.29,36.26,36.26,0,0,0-.41,4.76c.18,3.27,2.63,4.57,5.51,3a6.48,6.48,0,0,0,2.66-8,9.54,9.54,0,0,1-.27-6.93,9.24,9.24,0,0,0-.35-5.89,27.4,27.4,0,0,1,.78-18.68,3.86,3.86,0,0,0,.29-3.09c-1.64-3.47,0-6.42,1.36-9.42,1.43.16,2-.87,2.64-1.87,2.05-3,5-3.84,8.41-3,3.85,1,7.55,2.52,11.34,3.75a5.87,5.87,0,0,1,4.44,6.3c-1.49,1.24-2.81,0-4-.47C67.77,92,66,90.13,63.32,91.51c-1,.5-1.85-.74-2.55-1.56-1-1.17-2.07-2.08-4-1.07a7.14,7.14,0,0,0,4,3.67c2.85,1.07,2.79,3.24,2.14,5.59-.25.88-.7,1.83-1.82,1.87a1.81,1.81,0,0,1-1.7-1.44c-.89-2.5-3.35-1.51-5-1.88s-1.89,1.91-2.08,3.3a15.69,15.69,0,0,1-2.22,5.92,10.81,10.81,0,0,0-1.62,5.7c.06,2.87,1.69,4.33,4.45,4.7,3,.4,5.92.76,5.73,5-.07,1.51,1.27,1.15,1.9.32a20.12,20.12,0,0,0,3.28-5c.42-1.13.74-2.53,2.27-2.33s1.71,1.49,1.83,2.74a1.82,1.82,0,0,0,.73,1.61A11.7,11.7,0,0,1,75.83,114c6.16-1.75,7.56-9.83,3.07-14.38-.65-.65-2.14-1-1-2.46,4.23-.93,6-.25,6.91,3.62,1,4,3.19,5.87,7.18,6.12,3.78.24,5.47,2.85,6.54,6.08,1.38,3.63,3.81,6.9,3.55,11.08-.07,1.12,1.06,1.74,1.66,2.58a62.3,62.3,0,0,1,3.58,7.46c1.09,3.42,1.34,7,2,10.52.21,1,.29,2.23-1,2.74-1.06.44-1.69-.44-2.34-1.09-.85-.83-1.6-1.81-2.91-1.93-1.51-.15-3.46,2.21-4.48-.36-1.15-2.92-2.34-6-.56-9.19.26-.46.54-.91.78-1.39.55-1.14.84-2.41-.2-3.31-1.41-1.22-2.74,0-4,.55-1.53.68-1.32,1.74-.52,2.9a5,5,0,0,1,.79,4.2c-1.58,4.64.76,7.88,3.42,11.13a10.21,10.21,0,0,1,1.48,2.36c1.22,3.86,2,7.73.11,11.63-.61,1.25.07,2.3.62,3.37,2.17,4.24,2.75,8.5.54,13-1.18,2.38-1.88,4.92-.57,7.65.74,1.55,0,3.12-.78,4.56-2.09,4-4.17,8-7.71,11a4.2,4.2,0,0,0-1.44,2.31c-2.26,9.55-9,15.6-16.43,21.15-.87.65-1.91,1.32-2.9.49s-.47-2.22-.28-3.37a5.69,5.69,0,0,1,2.13-2.8,11.58,11.58,0,0,0,4.32-8.21c.15-2.17,1.57-3.92,2-6.25-.69,2.17-1.5,4.1-3.28,5.21-2.39,1.48-5,2.21-5.47,6C70.45,219.14,67.21,217.77,65.42,218.4Z"/><path class="cls-3" d="M47.25,88a10.23,10.23,0,0,1-.92,5c-.37.65-.8,1.89-.51,2.2,3,3.12.1,5.74-.42,8.64-.74,4.08-1.63,8.23-.43,12.46,1.06,3.76,2.73,7.51.33,11.48-.39.64.21,2,.62,3,1.93,4.51.82,8.06-3.07,10.78-2.1,1.48-3.85,0-5.69-.23S36.06,139.19,36,138c0-1.84-.24-3.7.47-5.52.37-.95-3-7.67-3.84-7.86a1.46,1.46,0,0,0-1.08.28c-1.67,1.32-3,1.48-4.07-.76a1.33,1.33,0,0,0-2-.58c-.93.75,0,1.41.44,2,.72.82,1.55,1.65,1,2.81-.41.92-.23,2.33-1.48,2.64-1.44.36-1.66-1-2.09-1.93s-.46-2.61-1.78-2.12c-1.69.64-.21,2.07,0,3.07.45,2.33,2.36,3.71,4,5.17A9.79,9.79,0,0,1,28.8,140c-1.23.48-2-.31-2.8-1-5.84-5.41-12.31-10.71-15.32-18S1.73,107.87,0,100V87.19c4.88-5.14,11.21-7.56,17.88-8.86,8-1.55,16-2.12,23.82,1.19,1.22.52,2.55.74,3.52,1.74a6.61,6.61,0,0,1,2.14,6.11C47.33,87.57,47.29,87.77,47.25,88Z"/><path class="cls-4" d="M103.2,127.19c-1.1-.56-2.36-1.41-2.23-2.56.48-4.23-2.09-7.44-3.35-11.07,2.11-.24,4.3,1.29,6.36-.78,1.54-1.56,1.75-2.53-.22-3.64a26.65,26.65,0,0,0-3.28-1.46c-4-1.58-5.09-3.26-4.83-7.56.2-3.44-2.78-4.93-4.41-7.19-1.13-1.57-2.57-3-3.72-4.6-2.72-3.91-7.08-5.1-11.43-5.54-3.64-.36-6.22-1.23-7.74-5-1.44-3.55-5.36-4.12-8.55-5.2C56,71.35,51.93,71.39,48,71.12a16.67,16.67,0,0,1-5.83-1,4.41,4.41,0,0,0-3.85,0c-4.64,2.17-9.23,1.72-13.89-.16C21,68.6,17.65,68.18,15,71.58c-.51.66-1.34,1.27-2.06,1-3.88-1.48-7.24.27-10.71,1.48A2.12,2.12,0,0,1,0,73.59V64c14.66-3.7,29.36-5.24,44.52-2.85,10.29,1.62,20.36,3.37,29.82,8A90.64,90.64,0,0,1,107.11,96.4c6.71,8.84,12.61,18.06,16.89,28.3,1.48,3.56,2,7.4,3.65,11,2.27,5,1.69,5.84-3.62,7.6-5.38.74-5.45.66-6.58-4.52-.68-3.09-1.41-6,0-9.27,1.18-2.84-1.19-5-3.55-6.39-1.83-1.06-3.77-1.88-5.25-3.5a3,3,0,0,0-4-.61c-1.62.9-1.61,2.22-1.08,3.76S104.59,125.81,103.2,127.19Z"/><path class="cls-5" d="M0,73.59c2.26-.65,4.5-1,6.51-2.64,2.34-1.84,5.3,2,7,.57,1.88-1.58,2.85-3.9,6-3.53a22.9,22.9,0,0,1,6.42,1.33c3.89,1.6,8.19,2.28,12.08-.51.69-.49,1.48-1,2.2-.7C48.83,71.87,59,69,67.34,74.33a4,4,0,0,1,2.19,3C70,80.7,72.09,82,75.12,81.54c4.17-.58,7.17,2.27,10.78,3.3a4.22,4.22,0,0,1,2.59,2.34c1.23,4.25,5.44,5.94,7.63,9.34.73,1.13,1.71,1.84,1,3.45a4.61,4.61,0,0,0,3,6.45,8.72,8.72,0,0,1,2.23.81c1.68,1.11,4.7,1.09,4.63,3.75-.07,2.48-3.06,2.93-4.66,4.31-1.82,1.58-3.14-1.12-4.76-1.73-1.12-3.61-2.92-5.92-7.35-5.7-2.82.14-5.79-1.38-6-4.71-.32-4.41-2.36-6.18-6.6-5.76a4.08,4.08,0,0,1-3.89-3.84c-1.35-4-3.83-6.27-8.26-6.54-1.73-.1-3.37-1.37-5.1-2-6.75-2.3-9.44-1-11.45,5.69-1.5-.36-.43-2.31-1.69-2.77h0c0-2.22.9-4.84-2.43-5.62-6.27-2.63-12.47-5.68-19.59-3.44-3.2,1-6.54,0-9.85,1.06C9.89,81.7,5.11,84.76,0,87.19Z"/><path class="cls-6" d="M0,100c3,4.64,6.23,9.28,8.85,14,1.88,3.4,3.1,7.32,5.44,10.71,4.05,5.88,9.33,10.49,14.51,15.25v0c1.47,2.38.38,4-1.86,4.59-6.71,1.74-11.57,6.22-16.7,10.46A79.59,79.59,0,0,1,0,162.39Z"/><path class="cls-7" d="M0,267.19a29.12,29.12,0,0,1,4.23,6c2.08,3.39,4.19,7.4,9.15,7.63,2.49.11,3.49,1.59,3.43,3.95-.16,5.43,2.82,8.65,7.32,11.17,4.31,2.42,6.78,6.9,10.36,10.19,4.82,4.44,10.51,3.59,16.16,3.11.81-.07,1.53-1.35,2.29-2.07,3.77-1.57,5.53-.87,6.7,2.69a12.38,12.38,0,0,1,.64,4.72,8.31,8.31,0,0,1-5.67,6.72A3.21,3.21,0,0,1,51.83,320c-.5-.61-1-1.57-1.85-1.26-5.24,2-9.52-2.86-14.65-1.93a5.06,5.06,0,0,1-4.59-2c-3-3.76-7.38-5.33-11.19-7.83a27.91,27.91,0,0,1-9.48-10.78,9.49,9.49,0,0,0-5.78-5.13c-3.53-1-4.32-2.85-3.57-6.15.3-1.32.5-2.94-.72-4.14Z"/><path class="cls-8" d="M0,174.39c2.6.3,4.59-.37,6-2.87a6.41,6.41,0,0,1,3.35-2.66c2.53-.81,3.52-2.54,4.11-4.88.91-3.63,5.42-6,8.76-4.28,3,1.56,5.05,1.78,5.79-2.14.27-1.44,1.07-1.56,2.33-1.24a19.83,19.83,0,0,0,3.53.46c1.25.09,2.51.19,2.77,1.7.23,1.29-.77,1.73-1.75,2.31-4.24,2.49-7.5,6.7-13.19,6.63-2.23,0-1.1,3.17-2.88,4.64a15.52,15.52,0,0,0-5,8.39c-.56,2.43-1.75,5.09,1.21,7.17,1.58,1.12,1,2.85.13,4.33-.95-.72-1.94-1.39-2.84-2.17-1.93-1.69-3.74-2.05-6-.39A8.38,8.38,0,0,1,0,191.19Z"/><path class="cls-9" d="M0,301.59v-11.2c2.69-.84,3.9.72,4.57,2.92,2,6.56,7.33,9.78,12.83,12.71a17.68,17.68,0,0,1,5.42,3.87c3.9,4.48,8.94,7.41,14.19,10a10.64,10.64,0,0,0,4.3.63A17.43,17.43,0,0,1,48.64,322c1,1.79-.38,2.82-1.43,3.61-2.2,1.65-4.33,3.48-7.06,4.28A81.39,81.39,0,0,1,20.6,318.51c-4.66-3.75-9.89-6.71-14.45-10.59C3.85,306.05,1.25,304.48,0,301.59Z"/><path class="cls-10" d="M0,503.19v-5.6c1-4.27,3.32-8.54,0-12.8V468c1.57-.12,1.64,1.16,1.78,2.12a108.3,108.3,0,0,0,2.76,12.58c-.5-4.74,2.15-10.12,2-15.8a2.22,2.22,0,0,1,.74-.9c4.41-.32,4.66,0,3.88,4.14-.31,1.61-1,3.24-.25,4.89,1.12-.22,1.16-1.38,1.78-2,1.06-1.08,2.12-1.5,3.51-.62a2.38,2.38,0,0,1,1.17,2.94,18.25,18.25,0,0,1-3.27,7.81c2.68-3.28,3.05-6.74,4.22-9.91.5-1.36,1.16-3.54,3.15-1,.86,6.17-1.66,11.11-5.69,15.49a49.07,49.07,0,0,1-5.58,5.11c-2.67,3.9-3.11,8.54-4.39,12.91-.55,1.9-.46,4.37-3.27,4.76-2-2.19-1.08-4.68-.7-7.11.31-2,1.2-3.77,1.68-5.75C2.35,499.48,3,502.49,0,503.19Z"/><path class="cls-11" d="M0,548V524c3.87-2.7,5.34,1.55,7.93,2.77-2.11-3.39-.07-9.39-6.45-9.93-.29-1.5.67-2.27,1.75-3,3.36-.91,6.62-2.32,10.2-2.16,1.61,4-.62,7.88-.52,11.9.18-3.73.78-7.65,4.31-9.25,1.84-.83,4.11,1.24,4.83,3.71a3.63,3.63,0,0,1,0,1.14c-4.37,6-7.11,13.28-13.15,18.13-2.45,2-1.78,5.75-4.26,7.79-.48.4-.72,1.1-1.26,1.51C1.91,546.25,1.37,548.14,0,548Z"/><path class="cls-12" d="M0,388.79c2.16-.94,3.51-.56,2.85,2.09a6.73,6.73,0,0,0,.79,5.41c2-1.74,2.38-3.48,1.17-6-4.15-8.57-4.65-17.69-3-26.89.65-3.64,2.15-7.22,6.93-9.61-5.51,10.32-5.89,20.07-3.07,30.07.9.64,1,1.87,2.13,2.84,1-2.71.63-5.67,2-8.06.69-1.2-.35-3.88,2.81-3.35.44.07,0-2.85,1.24-4.25,2.9,1.2,2.44,4.36,3.68,6.48a2.87,2.87,0,0,1,.37,1c0,.85-.8,1.83.38,2.52a6.07,6.07,0,0,1,2.11,1.43c0,3.66-7.16,14.8-10.52,15.71-2.19.6-4.47.19-5.65,3-.53,1.26-1.87.08-2.37-.87a13,13,0,0,1-1.07-5.42c-.06-1.52.61-3.21-.77-4.52Z"/><path class="cls-13" d="M48.93,322.33c-11.13.26-20.44-3.73-27.35-12.47-2.31-2.92-6-2.3-8.45-4.76-3.71-3.8-9.19-6.06-9.84-12.33C3.1,291,1.48,290.66,0,290.39v-9.6c2.9,1.24,1.55,3.57,1.18,5.44S1,289,2.85,289.53c4.13,1.23,6.26,4.11,8.91,7.62,3.31,4.39,6.21,11.19,13.74,11,1.25,0,1.36.8,1.89,1.57,2.75,3.94,6,7.14,11.43,6.33a4.58,4.58,0,0,1,3.82.66,6,6,0,0,0,6.82,1c1-.43,3.71-2,3,1.7-.07.38,1.37,1.06,2.12,1.59.4,3.48-2.62,4.78-4.46,6.76-.84.91-1.68.09-1.82-1a4.14,4.14,0,0,1,1.17-3.22C50.19,322.62,49.59,322.5,48.93,322.33Z"/><path class="cls-14" d="M0,428.79v-2.4c1.06-1.14,2.57-1.27,3.92-1.73,1.61-.55,3-.82,3.22-3.23.21-2.65,2.11-2,3.71-.86,2.21,1.07,3.66-.64,5.31-1.48a29.42,29.42,0,0,1,4.45-2.33c2.27-.84,3.79.2,5.11,2a29.79,29.79,0,0,0,4.89,5.69c-1.91-2.4-1.13-6.63-5.47-7.46-1.25-.24-.83-1.74-.5-2.78a5.8,5.8,0,0,1,.51-1c.84-1.79,3.45-1.94,3.83-4.34.11-.68,1.67-.55,2.56-.22a1.65,1.65,0,0,1,.91,2.32,3.61,3.61,0,0,0,1.15,4.58c1.35,1.68.84,3.84,1.5,5.75,1.2-.3.89-1.56,1.43-2.26s.68-1.62,1.68-1.35,1,1.15,1,1.95c.17.25-.42.82.17.76.26,0,.57-.7,1-1q2.51-1.26,2.69,1.54a4.84,4.84,0,0,1-.18,1.14A8.56,8.56,0,0,1,40,426.74c-3.39,2.48-4.87,5.48-2.73,9.54-.71,1.72-.41,4.1-3,4.61-1.69-2.2-.87-4.45-.24-6.53.38-.62-.83-.21-.3-.16.24,0,.16.12.14.34-.2,2.34-3.88.74-3.88,3.57,0,1.83.15,3.67,0,5.51-.05.67-.33,1.35-1.1,1.44-1.49.17-2.1-.78-2.38-2.06-.12-.78.12-1.67-.37-2.32-2.61-3.43-2.46-6.59.74-9.54a23.67,23.67,0,0,0,.06-3.57c-.69-4.05-4-5.79-7.76-4.09a12,12,0,0,1-3,1.12,19.69,19.69,0,0,0-7.75,2.21,7.15,7.15,0,0,1-1,.38C4.94,427.4,2.68,429.11,0,428.79Z"/><path class="cls-15" d="M0,301.59l6.4,5.5c6.29,5.83,13.34,10.66,20.4,15.46,2.32,1.58,4.79,2.95,5.72,5.79.85,2.59,4.28,2.75,4.94,5.45-.7,3.34-1.51,6.62-4.47,8.8-1.54.21-1.61-1.54-2.61-2-1.92-.83-3.21.11-4.09,1.81a4.32,4.32,0,0,1-1.44,1.73c-4.44-1.7-1.08-4.36-.81-6.64,3.48-2,4.4-5.07,2.19-8.47-3.24-5-8.45-8-13.08-11.42-4.22-3.09-8.76-5.89-13.15-8.84Z"/><path class="cls-16" d="M0,548c.86-.89,1.65-1.9,3.08-1.82a24.5,24.5,0,0,0,2.18-1.61A22.45,22.45,0,0,1,11.43,541c4.19-1.52,7.11-4.93,10.46-7.3-2.67,1.62-4.75,4.39-7.77,5.89-1.22.6-2.33,1.92-4,1.07-.7-1.74.2-3.12,1.29-4.19,2.13-2.07,3.9-4.53,6.51-6.07a34.77,34.77,0,0,0,8.41-6c4.12-3.87,10.18-5.24,13.26-10.42a1.67,1.67,0,0,1,1.82-.52c-2.08,5.6-6.87,8.82-11.14,12.42-2.06,1.74-3.82,3-4,6.21-.25,3.49-3.69,5.33-6.24,7.34-5.11,4-10.67,7.19-17.33,8-1,.12-1.8,1.36-2.69,2.08Z"/><path class="cls-17" d="M0,390.39c1.76-.69,1.66.5,1.61,1.61a19.28,19.28,0,0,0,1.73,9.56c.63-1.62,1.06-2.72,1.5-3.81.35-.88,1.14-2.16,1.86-1.25,1.87,2.38,3,.95,4.39-.34,1.15-1,2.88-1.09,2.89-3.58,0-2.66,3-4.16,4.4-6.39.78-1.24,1.86-2.23,1.58-3.86,2-3.17,4.69-4.11,8.14-2.44,3,4.48-2,3.58-3.48,5.07.69.18,1.25-.17,1.85-.17.94,0,2.07,0,2.33,1.06s-.77,1.9-1.68,2.43A98.21,98.21,0,0,0,16,396a53.83,53.83,0,0,0-10.91,9.86c-.82,1-1.64,2.51-3.08,2.16-1.69-.41-1-2.18-1.2-3.43a3.88,3.88,0,0,0-.79-2.2Z"/><path class="cls-18" d="M10.42,476.16c-2.29-2-.73-4.4,0-6.25,1.07-2.79-.28-3.28-2.35-3.68a6.94,6.94,0,0,0-2.29-5.18A32,32,0,0,1,0,453.59v-7.2a3.21,3.21,0,0,1,2.9-.76,10.28,10.28,0,0,1,3.35,1.21l.21.31c-4.29,3.36-.88,5.85,1,8.49a27.4,27.4,0,0,0,2.84,3.52c-1.71-2-1.48-3.79-.1-5.6,2-.39,2,1.4,2.55,2.43,1.31,2.31,2.34,4.78,4.41,6.57a3.23,3.23,0,0,1-.54,2.77c-2.24,2.64-3.1,6-4.51,9.05C11.72,475.19,11.7,476.24,10.42,476.16Z"/><path class="cls-19" d="M3.13,446.36l-3.13,0v-3.2a20.49,20.49,0,0,1,2.58-2.43c1.17-.88,3-1.65.62-3.41-1-.73-.14-2,.41-2.84a23.9,23.9,0,0,1,4.26-5.15,2.1,2.1,0,0,1,1.21-.17c5.13,4.61,7.2,13.42,4.43,18.86,0,0-7.95-1.69-8-1.69C4.72,446.39,3.92,446.38,3.13,446.36Z"/><path class="cls-18" d="M7.27,466.4a20.72,20.72,0,0,1-.76,9.28,35.86,35.86,0,0,0-1.1,10.18c-4.09-6-3.54-12.3-5.41-17.87v-10.4c3.52,1.33,2.18,4.38,2.49,6.68.41-1.19.33-3.4,2.5-2.94C7.67,461.89,7.76,464.13,7.27,466.4Z"/><path class="cls-3" d="M0,162.39c6.38-5.85,13.21-11.15,20-16.47,1.68-1.31,3.66-1.48,5.55-1.87,2.38-.48,3.53-1.6,3.23-4.06,2.75,2,3,4-.32,5.48-3.63,1.66-6.47,5-9.88,6.23-4.68,1.64-7.71,5.64-12,7C3,159.87,3.54,164.35,0,164.79Z"/><path class="cls-20" d="M0,402.39c2.47.92,1.06,3.47,2.23,5.44a50.31,50.31,0,0,1,13-12.45,1.92,1.92,0,0,1,1,1.85c-1.91,3.24-4.71,5.72-7.28,8.39-1,1-2.38,1.81-2.31,3.54a6.84,6.84,0,0,1-2.17,2.73c-1.19,1.18.15,1.4.62,2C4.83,417,2.86,418.19,0,418.39Z"/><path class="cls-21" d="M1.72,516.66c3.74-.85,6-.12,5.7,4.48-.15,2.67,2.27,4.94,2.27,7.92-4.12-.46-5-6.41-9.69-5.07v-6.4C.46,517.06.76,516.25,1.72,516.66Z"/><path class="cls-22" d="M10.33,421.6c-.88-.05-.76-2-2.1-1.12-1,.66-.36,1.26,0,2,.88,1.49.08,2.08-1.36,2.42-2.3.55-4.5,1.54-6.92,1.52V424c3-2.1,3.73-5.95,6.38-8.33,2.11.37,3.33-1.29,4.92-2.12,1.35-.7,2.86-1.25,3.94.18s-.12,2.53-1,3.42C12.79,418.53,11.88,420.34,10.33,421.6Z"/><path class="cls-23" d="M1.72,516.66,0,517.59v-14.4a18.07,18.07,0,0,0,2.58-7c.15-1.07.6-2.26,2.05-1.69s.46,1.63.22,2.37c-1.38,4.42-3,8.77-2.48,13.54,0,.17.06.34.1.51a15.66,15.66,0,0,0,.59,3c0,.17.07.34.1.51Z"/><path class="cls-24" d="M7.27,466.4c-.2-.35-.4-.69-.59-1-.64-1.17.14-3.46-2-3.35s-1,2.4-1.78,3.57c-2-2.31-.75-5.78-2.9-8v-4c3.37,2.47,5.35,6.26,8.49,9,1.71,1.47.42,2.55-.45,3.69Z"/><path class="cls-25" d="M6.41,416.09c-.26,4.15-3.1,6.21-6.41,7.9v-5.6c1.7-1.5,4.3-2.11,4.71-4.85-.13-1.82.93-2.64,2.53-2.89a1.45,1.45,0,0,1,1.84,1.09A4.07,4.07,0,0,1,6.41,416.09Z"/><path class="cls-26" d="M8,429.57c-.69,2.8-3.65,4.13-4.47,7,.51,1.19,2.8-.77,2.85,1.39,0,1.42-1,2.15-2,2.77C3,441.68,1.81,443,0,443.19v-6.4C2.14,433.78,3.83,430.28,8,429.57Z"/><path class="cls-27" d="M0,484.79c3.82,3.07,3.82,6.82,0,12.8Z"/><path class="cls-28" d="M8,429.57c-3.16,1.87-5,5.15-8,7.22v-4c2.26-2.64,4.59-5.2,8-6.39H8c.62-.48,1.35-.53,1.58.26.43,1.41-.81,2.1-1.61,3Z"/><path class="cls-26" d="M8,426.4c-2.62,2.19-4.66,5.11-8,6.39v-4A12.43,12.43,0,0,1,8,426.4Z"/><path class="cls-29" d="M196.09,228l15.75,2.84c-2.58,2.85-5.58-1-7.83,1.1a1.84,1.84,0,0,1-1.55.62c-.8,0-1.46-.61-2.45-.42,3.71,3.55,5.12,8.67,9.77,11.67,2.44,1.57,4.16,5.16,5.43,8.11,1.34,3.14,3.37,5.49,5.35,8.12,3,4,6.13,8.14,5.35,14-.48,3.61,2.69,6.32,4.49,9.31a3,3,0,0,1,1.16,3.22c-2.16,3.24-2.42,6.91-2.15,10.61.11,1.58.67,3.17.4,4.74-.55,3.24-1.34,6.22,1.08,9.37,1.44,1.87-.1,4.5-1.71,6.1s-4.1,3.17-6.46,1.88c-3.73-2-8-2.44-11.82-4.41-2.82-1.46-5.31-3.76-7.86-4.64-4.89-1.69-7.32-5-10-8.74s-7.12-6.3-8.56-11.1a1.89,1.89,0,0,0-.67-1c-7.85-5.73-8.2-15.39-12.09-23.19a8.58,8.58,0,0,1-.21-5.52c1.16-5.26.24-10.55.25-15.82.87-5,1.89-5.62,6.65-6.88,4-1.06,8.18-2.36,10.51-6.25C190.63,228.88,194,229.84,196.09,228Z"/><path class="cls-30" d="M212,75.91c-.75,2.93-3.32,3.81-5.61,5-1.39.72-2.8,1.41-4.2,2.11a10.76,10.76,0,0,1-2.89-3.23c-2.24-3-5.1-3.26-7.53-.46-1.33,1.54-2.62,3-4.79,3.24a23.65,23.65,0,0,1-5.58-.09c-2.8-.5-5.61-1.89-5.81-4.71-.25-3.49-2.34-5.68-3.76-8.43C169.51,64.93,167,60.47,168,55.1c.35-1.77-.92-3.05-2-4.17-3.2-3.26-3.94-7.08-2.92-11.39a18.21,18.21,0,0,0,.13-7.5c-.8-4.62,2.62-8.21,3.41-12.51a15.16,15.16,0,0,1,4.3-8c4.12-4.19,9.58-4.75,13.31-.07,3.54,4.46,8.83,7.34,11.23,12.75.1.25.27.58.48.62,6,1.27,5.77,7.67,9.07,11.22,2.25,2.42,1.27,6.61,3.83,9.28,3.18,3.32,4,6.64,1.71,11.36-1.06,2.16,0,5.78-1.78,8.47-.82,1.19.1,2.25.74,3.27A13.55,13.55,0,0,1,212,75.91Z"/><path class="cls-31" d="M97.7,266.47c3.62-2,6.85-4.64,10.9-5.79a14.11,14.11,0,0,1,11.82.72,5.22,5.22,0,0,1,3.08,3.38,2.34,2.34,0,0,1-.24,2.28,1.44,1.44,0,0,1-2.14,0c-2-1.68-3.43-.15-5.48.9,2.5.69,1.84,2.69,2.33,4.22,3.2,3.33,6.53,6.44,10.8,8.45,1.4.66,3.24,1.34,3.34,3.45a4.06,4.06,0,0,1-4.13.82c-4.4-1.54-6.63,1.15-8.89,4,.53,1.18,1.89,1,2.57,1.81a3.49,3.49,0,0,1,1.06,2,3.7,3.7,0,0,1-1.22,2.38c-1.26,1.29-.7,2.84-.61,4.33-.38,3.44-3.14,5.81-4.12,9.46,2.74,0,4.81,1.63,7.07,2.91,2.72,1.53,3.54,3.08.68,5.94a4.88,4.88,0,0,0,3-1.89c1.08-1,2.25-1.51,3.55-.49s2.76,2.19,2,3.56c-1.79,3.12-1.2,4.7,2.28,5.37.26.05.23.71.1,1.1a13.37,13.37,0,0,1-1.46,1.25c.68-.38,1.13-1.05,1.82-1.42,2-.12,3.63.68,3.73,2.69.12,2.5-2.3,2.51-4,3.16a6.15,6.15,0,0,1-1.2.28c-1.56.18-3.14.15-4.68.48-1.68,0-3.34-.45-5,.71a3.47,3.47,0,0,1-3.81,0c-4.52-3.3-10-3-15.07-4.33-1.17-.32-2.33-.53-3-1.68a13.84,13.84,0,0,1,1.64-7.6c1.51-2.87,3.46-5.68,2.19-9.26-.21-.59.17-1.29.38-1.92.47-1.36,2-3.32,1.16-4-2.56-2.05-2.27-5.74-4.9-7.52-.44-.3-.8.49-1.1.89-1.13,1.76-2.34,3.29-4.66,1.66-1.63-2.11-3.78-3.74-5.39-5.87-.6-.81-1.79-1.84-.58-2.71,2.76-2,1.45-4.89,2-7.36.3-1.33-1.14-2.86.39-4.09.27-.21.41-.34.3-.59-4.31,2.06-1.39-3.9-4.06-3.66-.86-3.07,1.78-4,3.4-5.59A14.12,14.12,0,0,1,97.7,266.47Z"/><path class="cls-32" d="M99.22,151.18c-2.44-2.09-4-4.86-5.76-7.47s2-4.94.28-7.55c-.29-.46.21-1.43-.1-1.85-.79-1.1-3.06-2.2-1.82-3.34a13.91,13.91,0,0,1,6.43-2.82c1.93-.41,3.56,3.84,1.8,5.55-3.27,3.19-1.12,6.41-.79,9.65.08.73.67,1.52,1.26.92,4.28-4.34,5.07,1.36,8.12,2.4q-1.12-6.15-2.23-12.29c3.27.06,3.71,2.48,3.89,4.91.37,4.81.32,4.83,4.91,4.81,1.23,0,2.87-.09,3.09,1.17.46,2.63,2.53,2.15,4.11,2.69,3.23,6.78,3.73,14,3,21.3-.81,8.7-1.85,17.39-3.18,26-1.15,7.48-2.74,15.19-6.68,21.53-4.86,7.85-11.27,14.75-17.14,22-1,1.19-1.64,2.79-3.3,3.33.38-1.3,1.44-3.06-1.46-2.12-.75.25-1.92.25-2.2.74-2.36,4.33-7.66,5.23-10.39,9-2.53,3.45-6.82,3.3-9.93,5.47a3.52,3.52,0,0,1-.63-4.1c1.77-4.16,3.54-8.41,7.2-11.34,6.42-5.15,13.18-9.9,19.13-15.58,5-4.82,8.85-10.5,9.56-17.73.14-1.37.3-2.86,1.41-3.61,3.42-2.32,3.68-6.35,5.4-9.56,1.2-2.23.47-3.79-2.13-4.42-1.38-.33-3.15-.59-3.35-2.36-.22-1.94,1.52-2.67,2.92-3.37a4.85,4.85,0,0,0,2.77-4.07,34.45,34.45,0,0,1,1.71-7,11.32,11.32,0,0,0-.24-7.44c-1.18-3.56-2-7.17-.42-10.9,1-2.29,0-3.58-2.46-3.77a31.83,31.83,0,0,1-5.12-.86A7.83,7.83,0,0,0,99.22,151.18Z"/><path class="cls-33" d="M212,75.91c-1.83-2.75-2.2-6.28-4.62-8.72-.07-.08-.12-.31-.06-.38,3.34-4.1.13-9.82,3.45-13.94,1.27-1.57,2.61-3.27-1-3.53-.26,0-.71-.12-.72-.22-.38-3.25-3.83-5.29-3.86-8.28a7.54,7.54,0,0,0-1.41-4.94c-1.66-2.31-4.13-4.3-3.84-7.65,0-.69-.55-1.51-1.19-1.33-4,1.12-4.36-2.06-5.16-4.45-.91-2.7-4-2.67-5.47-4.89-2.52-3.72-5.43-7.4-10.45-8.34C176.23,9,175,8.61,174,9.7c-3.58,3.62-6.42,7.79-7.22,12.87A11.27,11.27,0,0,1,165,27.28,4.49,4.49,0,0,0,164.1,31a16.47,16.47,0,0,1-.1,9.41c-1.38,4.57.82,7.91,3.81,10.89,1.62,1.61,1.82,3.06,1.18,5.33-1,3.64,1.57,6.79,2.61,10.12.57,1.82,1.41,4,3.6,5,1,.47,1.06,1.84,1.13,2.87.39,5.27,2,6.81,7.29,6.88l3.6.06c-.59,3-3.63,2.52-5.44,3.78-.93.64-2.32.37-3.31,1.12a3.7,3.7,0,0,1-2.83.89,12.07,12.07,0,0,1-9.27-4.59,40.52,40.52,0,0,0-7.32-6.12c-8.65-6.17-11.7-15.24-10.15-24.85,1.95-12.08,3.41-24.53,9.72-35.51.74-1.29.93-3.21,3.19-2.75,1.46,4.26-1.6,7.83-1.8,11.83-4.74,10.83-8.76,22-6.55,34,1.57,8.48,8.25,13.56,15,18.22a2.31,2.31,0,0,0,2.29,0c2.54-1,2.55-2.47.88-4.24-1.1-1.16-2.54-1.94-3.74-3-2.31-2-4.7-4-4.81-7.47a4.65,4.65,0,0,0-1.53-2.75,5,5,0,0,1-1-5.21,6.42,6.42,0,0,0,.33-3.93c-2.67-8.26,1.43-16.17,1.18-24.3,0-.38.41-.86.27-1.14-2.82-5.81,2.38-9.73,3.53-14.58a4.4,4.4,0,0,0-1.05-4.3c-.49-.94.28-1.42.74-2a2.63,2.63,0,0,1,2.59-1.37c.53.72.93,1.89,2.06.73.87-.89,1.84-1.85,3.08-1.55,4.93,1.2,10.14,2,13.43,6.48a16.64,16.64,0,0,0,5,5,11.8,11.8,0,0,1,5.47,5.6c.21.49-.23.14.18.33,4.31,2,6.16,6.69,10.1,9a6.29,6.29,0,0,1,3,3.85c1.71,5,2.66,10.27,6.44,14.36,1.45,1.57.82,3.45-.25,5.16-2.43,3.89-2.43,4,1.59,5.65,1.29.54,1.19,1.1.62,2.09a4.21,4.21,0,0,1-3.49,2.33,5.45,5.45,0,0,0-2.67.72,4.3,4.3,0,0,0-1.2,1.06c-.14.71.62,1,.92,1,3,.65,4.88,1.62,1.91,4.67,0,0,.63.36.93.62C214.82,72.67,213.06,74.09,212,75.91Z"/><path class="cls-34" d="M246.22,140.08c.55-4.43,1.16-8.82,5-12.27,1.44,2.93.32,5.32-.18,7.69a25.59,25.59,0,0,1-1.1,3c-1.63,4.7-3.38,9.43,2.67,12.61,0-2,1.16-3,3.36-2s.45,2.38,0,3.22c-2.05,3.64-2.8,7.47-3.42,11.61a19.79,19.79,0,0,1-8.39,13.44c-1,.73-2.48,1.08-3,2.52,1.4,1,2.19-1.2,3.63-.58-1.35,4.36-.44,9.07-2.1,13.75-1.38-2.4-.82-4.86-1.15-7.16-.67-1.77-1.76-2-3.31-1a11.07,11.07,0,0,0-4.44,5.84c-.42,1.27-.74,3.38-2.61,2.73-2.15-.74-1-2.59-.47-4,.26-.74.45-1.51.75-2.24a6.82,6.82,0,0,1,.35-.72c3.49-6.21,3.16-6.8-3.86-6.8-1.67,0-2.86.18-1.86-2.36,1.52-3.89,4.09-7.21,5.33-11.21-4.92-2.53-5.44-4.15-2.43-8.16a6.84,6.84,0,0,1,1.43-.89c3.93-1.71,3.92-1.69.6-4.38-1.11-.9-2.22-1.78-3.37-2.62-2.46-3.82-1.66-4.57,5.36-4.92-.54-1.69-1.86-2.88-2.67-4.37s-2.78-2.76-1-4.49c1.64-1.55,3.71-2.13,5.71-.28,2.81,2.64,6.54,4.08,9.09,7.22A23.14,23.14,0,0,0,246.22,140.08Z"/><path class="cls-35" d="M131.84,284c-5-3.64-10.77-6.33-14.74-11.33,1-2.42,1.14-2.68,4.19-2.52,2.43.13,4.11.07,4-3.13-.08-2.47,1.83-2.92,3.91-2.7.31,4.24,3.51,5.12,6.84,5.86,1.08.24,1.85.1,1.49-1.32-1-3.11-4.17-5.05-4.67-8.44-1.31-1.94-3.12-3.7-2.17-6.71,3.06,2.69,6.17,5.11,8.89,7.91,2.28,2.35,3.74,2.22,5.09-.67a1.94,1.94,0,0,1,1.64-1.37c-.65,2.42-1.34,4.84.68,6.88s5,3.86,4.58,7.56c-1.47,1.6-2,4.51-5.38,3.37-1.33-.45-2.07,1.31-2.17,2.37-.48,4.78-3.13,10,2.43,13.73a1.84,1.84,0,0,1,.8,2.08c-.1.39-.42,1-.26,1.12,6.06,6.09-2.49,8.82-3.09,13.36a7.89,7.89,0,0,1-.69,1.85c-1.26,1.82-2.69,4.32-5.1,3-2.63-1.41-1.29-4.1-.44-6.29a28.18,28.18,0,0,0,1.45-3.62,6.51,6.51,0,0,1,.86-1.68,34.71,34.71,0,0,1-8.72,2.21c-2,.33-4,.45-5.27-1.58-.45-3.57,2.11-5.68,3.84-8.44-2.31-1-5.36-.61-7.44-2.7l-1.11-1.67c1.72-3,5.28-2.25,7.76-3.72C130.43,286.62,132.54,286.51,131.84,284Z"/><path class="cls-36" d="M214.51,198.57c-13.38,2.69-26.88,4.44-39.22-3.13-8.14-5-16.57-9.89-21-19.36-3.67-7.89-2.42-15,2.63-21.19,8.27-10.08,18.54-17.72,31.17-21.78a7.5,7.5,0,0,1,4.65-.34c.74,2.62-1.09,3.46-3,4.2-2.22.9-4.44,1.75-4.79,4.58a5.61,5.61,0,0,1-.39,1.06,1.73,1.73,0,0,1-2.4.77c-1.18-.58-2.43-.29-2.81.62-1.8,4.29-6.71,4.39-9.46,7.33-2.64,1.53-5.26,3-7.16,5.58-4.18,5.65-4.42,11.78-.49,17.66,4.23,6.33,10.52,10,17.1,13.29,5.85,2.93,11.79,5.67,18.65,4.27a3.85,3.85,0,0,1,1.12.12c.25.07.57.12.69.31,2.21,3.52,5.73,3.17,9.15,3.13C210,198.24,213.23,196.55,214.51,198.57Z"/><path class="cls-37" d="M184.11,142.33,184,142l0-.37c.74-1.32,1.44-2.37,3.39-1.8,1.46.43,3.12-.06,4.87,0-1.51-4.18,2.29-3.83,4.19-5.14,1.61-1,1.24-3.26,2.6-4.45,1.63-1.53,3.9-1.33,5.8-2.12,2.64-1.07,5.07-2.82,8.19-2.11,1.51.34,3.22.23,3.45,2.37a19.72,19.72,0,0,0,2.48,5.73c.5.86,1.7,1.65.71,2.74-.73.8-1.76.18-2.63,0a9.36,9.36,0,0,1-2.83-1.19c1.19,1.19,1.94,2.3.5,3.35-2.34,1.72-1.11,2.7.59,3.76,2.43,1.51,3.89,3.94,5.69,6.07,1.14,1.33.46,2.12-.54,3s-2.3,1.27-3.29,2.12c-1.31,1.12-2.2,2.37-.35,3.82,2.2,1.59,4.1,3.29,3.45,6.47-.33,1.63.91,2.5,2.06,3.5,2.18,1.89,1.89,2.91-.93,3.71-1.13.32-2,1.19-3.25,1.28-2.09.16-.61,1.45-.51,2.28a11.18,11.18,0,0,0,1.07,2.13c1.45,2.39,1.27,4.23-1.64,5.31-.79.3-2.19.46-1.8,1.66s1.7,1,2.76.68c.38-.09.75-.25,1.14-.35,1.1-.27,2.22-.3,2.74.9s-.18,2.28-1.27,3a6.16,6.16,0,0,1-4.91.91c-1.86-.39-3.75-1.15-6-.49,1.32,1,2.51.41,3.63.42s1.91.08,2.42,1c.71,1.3-.38,1.88-1.13,2.6a6.15,6.15,0,0,1-2.85,1.09c-3.53-.06-7.44,1.06-9.63-3.12a1.91,1.91,0,0,1,0-1.18c.33-.73,1.33-1.23,1.22-2-.61-4.64,2.11-4.76,5.68-3.86.1-2.1-1.42-3-2.27-4.15s-1.15-2.12.54-3.19a5.63,5.63,0,0,0,1.06-9.1c-2.58-2.5-3.56-4.46-.61-7.24,1.36-1.29.54-2.12-1-2.32-2.39-.32-2.31-1.6-1.5-3.4a49.24,49.24,0,0,0,3.24-8.15c1.05-4.23-.87-6.57-5.24-6a7.65,7.65,0,0,0-4.48,2.4c-1.21,1.18-2.57,2.59-4.46.94-1.11-.94-2-.37-2.73.49-1.06,1.2-2.3,2.21-3.33,3.44s-2.16,2.34-3.69,1.92-2.32-1.89-3.86-2.53c-.93-.38.13-1.82,1.06-2.45S184.5,144.39,184.11,142.33Z"/><path class="cls-38" d="M196.29,325.47c-.69,4.34-4,7.3-6.21,10.69-3.83,5.92-7.09,12.38-12.64,17.13-3.23,2.76-6.38,5.57-10.13,7.63-.63.35-.68,1.12-1.13,1.59-.77.81-1.81,1.63-2.72.68s.09-2,.88-2.64c6-4.49,9.73-11.16,15.41-16,.31-.26,0-.75-.22-1.25a84.9,84.9,0,0,1-14.48,16.51c-2.25,1.93-3.24,4.89-5.69,6.6-1,.71-2,2.37-3.34,1.28s-.32-2.77.54-3.91c2.55-3.38,5.74-6.2,8.52-9.38a20.94,20.94,0,0,0,3.5-5.1c-1.78,4.29-5.74,6.85-8.52,10.32a31,31,0,0,1-3.43,3.77c-.87.78-1.77,2-3,1.19s-.83-2.14-.46-3.3a38,38,0,0,1,1.43-3.72c2.41-5.62,4.53-11.35,6.81-17,.06-.26.07-.6.25-.75,4.21-3.64,7.8-8.13,13.31-10a4.94,4.94,0,0,0,2.2-1.54,15.8,15.8,0,0,1,2.25-2.23c1.36-1,2.93-2.68,4.51-1.21s.08,3.09-1.12,4.43c2.7-2.08,5.07-4.52,8.24-5.81C193.3,322.77,194.44,325,196.29,325.47Z"/><path class="cls-39" d="M202.42,231.84l1.59.09a54.45,54.45,0,0,1,16.34,8.81c6.08,4.59,8.68,11.21,10.76,18.18,4,13.45,5.4,27.35,6,41.23.3,7.09.18,14.57-3.53,21.21a1.78,1.78,0,0,0-1.43.5c-7.09,4.86-14.15,4.59-21.3-.12-3.14-2.07-6.79-3.24-9.15-6.54-1.16-1.62-2.85-.76-4.16.4a2.44,2.44,0,0,1-3.46-1.64,3.67,3.67,0,0,1,.93-2.86c3.81-.66,7.42-.47,10.28,2.62a5.27,5.27,0,0,0,3.15,1.56,9,9,0,0,1,4.52,2.41c5.44,4.84,10.05,4.73,15.83.76,3.21-2.2,3.49-4.22,2.49-7.57a41.72,41.72,0,0,1-1.64-11c0-.92-.34-2.15.31-2.71,2.25-1.94,1.24-4.09.71-6.24a5.53,5.53,0,0,1,.49-4.61c.21-1.24-.55-1.87-1.48-2.39-.56-3.36-3.31-6.43-1.32-10.13a1.33,1.33,0,0,0-.15-1.15c-3.32-7.24-5.33-15.26-12.13-20.43-.2-.16-.47-.39-.49-.61-.42-4.51-4.32-6.93-6.22-10.53-1.18-2.24-2.55-4-5.06-4.68a5,5,0,0,1-3.32-2.68C200.36,232.4,200.38,231.28,202.42,231.84Z"/><path class="cls-40" d="M161.53,13.55c-3.65,5.82-6.59,12-7.71,18.77-1,6-2.93,11.79-3.68,17.8C148.86,60.41,151,69.5,160,76c2.66,1.93,5.12,4.18,7.59,6.36,2.09,1.84,3.57,4.78,7.23,3.35.68-.26,1,.64,1.15,1.33.78,3-.64,5.88-.58,8.85-6.8,1.81-11-.36-12.5-7.6-.56-2.71-2.73-4.62-5.09-6.39-10.5-7.88-14.57-18.57-11.44-31.25,3-12.16,4.37-24.76,9.35-36.4,1.93-4.51,4.59-8.37,9.79-9.59l-.61,1.8A11,11,0,0,1,161.53,13.55Z"/><path class="cls-41" d="M215.21,70.42c-1.09.33-2.1,1.33-3.39.42.42-2,2.62-2.44,4.41-4.89-3,2.06-4.77-.19-7,0,.42-6,7.39-3,9.57-7.25-1.9.12-3.73,1.3-4.82-1.44-1-2.42-.26-3.6,1.28-5.11,1.85-1.82,1.83-3.13-.18-5.52-3.16-3.79-4.38-8.88-5.74-13.66-.47-1.65-.84-2.84-2.65-3.2a4.85,4.85,0,0,1-3.67-3.25c-.82-1.89-1.46-4.48-4.65-3.62a1.5,1.5,0,0,1-1.22-.83c-1-4.94-5.49-6.45-8.68-9.25-1.28-1.12-2.65-2.23-3.07-4.08-.13-.59-.69-1.53-1.1-1.56C180.6,7,177.88,4,174.25,3.53c-1.5-.2-2.77-.46-3.37,1.58a1.93,1.93,0,0,1-3,.95c-1.37-.85-.12-1.85.16-2.77,4.51-4.23,7.67-4.41,15.12-.39,6.86,3.7,12.45,9,17.71,14.66,4.24,4.53,8.6,9,12.79,13.55,4.55,5,5.82,11,6.81,17C221.79,56.14,219.73,63.64,215.21,70.42Z"/><path class="cls-42" d="M48.78,498.4c-1,1.16-2.42.8-3.66.82-3.57,0-4.37,1.64-2.86,4.71.58,1.42-.3,1.73-1.42,1.86a3.47,3.47,0,0,1-1.55-2.45,4.41,4.41,0,0,1,.36-2.22c-.48,2.61-2.22,5.2-3.69,7.92a5.81,5.81,0,0,1-1.05,1.32,10.41,10.41,0,0,0-3.18,4.45c1.14.62,3-.1,3.4,1.44s-1.07,2.68-2.22,3.43c-4.21,2.75-7.72,6.38-11.83,9.24-.86.6-1.53,1.57-2.76.79-.64-2.38,1-3.9,2.13-5.61,1.55-2.39,3.61-4.48,4.32-7.37,1.3-3,3.44-5.41,5.06-8.18,3.1-3.92,6.11-7.9,8.93-12,1.74-2,4.66-.31,6.48-2.07,4.65-2.77,9.31-5.5,13.92-8.51-1.16.54-2,1.48-3.07,1.92-1.3.54-2.45,2.4-3.79,1.65-1.79-1,.26-2.86-.19-4.34.61-3.63,3-5.84,6-7.5,11.65-2.77,21.59-8.37,29.16-17.81.3-1.05,1.55-1.66,1.39-2.94.58-.58,1.16-.7,1.74,0a4.67,4.67,0,0,1-.11,5.23,44.53,44.53,0,0,1-10.93,12.07c-2,1.53-4.37,2.39-3.59,5.63.18.73-.59,1.44-1.4,1.75-2-1.33-2.38.88-3.35,1.59-2.18,1.57-3.69,4.26-7.13,3.32-1.06-.29-1.7,1.11-2.48,1.79C55,493.87,50.13,496.83,46,497.68,47,497.63,48.05,497.43,48.78,498.4Z"/><path class="cls-43" d="M97.7,266.47c-2.15,2.95-6.06,4.2-7.53,7.8a2.49,2.49,0,0,1-1.38,2.26c-2.07.77-3.52,2.47-5.34,3.63a47.68,47.68,0,0,0-14,11.44c-5.09,6-8,12.47-5.75,20.51a13.44,13.44,0,0,0,2.19,4.63,4.45,4.45,0,0,1,.63,5.19,9,9,0,0,1-1.94,2.51c-1.14,1.05-2.35,3-3.91,2.08-1.81-1,.23-2.42.61-3.64.24-.76.76-1.9,0-2.15-3.14-1-1.69-3.45-1.94-5.36,0-.92,0-1.86-.12-2.77-.44-3.66-1.75-6.36-6.21-5.43-.21-3.35,3.45-3.06,4.84-5.18,3.8-5.8,5.71-12.14,7-18.79,2.1,1.39,3.21-.25,4.29-1.52A50.58,50.58,0,0,1,86.48,268.2C90.21,266.44,93.85,266.28,97.7,266.47Z"/><path class="cls-44" d="M196.29,325.47c-1.27.38-3,2.31-3.11-1.05,0-1-1.31-.35-2-.46a4.71,4.71,0,0,0-2.38-2.95c-7.31-4.55-13.82-10.15-20.29-15.79-2.2-1.92-4.66-3.42-7-5.12-2.3-3.46-4.73-6.9-2-11.25,2.43-1.47,3.69.56,5,1.85,6.43,6.31,12.61,12.87,19.9,18.25a64.85,64.85,0,0,0,16.86,9.33c5.71,2.45,10.86,6.14,17.07,7.48.6.13,1.19.62.73,1.46a36.71,36.71,0,0,1-20.92-2.09C197.65,324.93,196.91,325.34,196.29,325.47Z"/><path class="cls-45" d="M220,151.15c0-.55,1.48-.38.41-1.64A47.05,47.05,0,0,0,212.6,142c-3.37-2.48,1.05-2.82,2.17-4.15-.11-1.76-2.43-1.38-2.93-3.08,3-1.83,4.88,2,8.55,1.57-3.56-1.35-3-4.92-5.41-6.45l.91-1.17c.9-3.23,2.77-4.12,5.92-2.77,1.15.49,2.61-.17,3.88.34l1.72,1.5c2.64,1.61,4.44,4.32,7.46,5.45a2.43,2.43,0,0,1,1.46,2.93c-.19.87-.81,1.33-1.72.63-1.63-2.3-3.64-.83-4.79.12-1.47,1.21.76,2.08,1.2,3.17.95,2.32,3.66,3.56,4,6.76a32.07,32.07,0,0,0-5.39-.71c-2.09.06-4.1.63-1.61,3.21-1.33,1.51-1.29,2.91,0,4.51,1,1.19,2.31,2.22,2.53,3.93l-.85.56a3.35,3.35,0,0,1-2.87,0A13.28,13.28,0,0,0,220,151.15Z"/><path class="cls-46" d="M122.41,148c-1.79,0-3.66.46-4.45-2.08-.46-1.47-1.87-.84-3.06-.61-4.87.92-6.46-.57-5.6-5.39.49-2.73-1.06-4.13-2.89-5.5l-3.21-7.19c-.16-1.31,0-2.8-.55-3.88-1.07-2-1.71-3.54.71-5s4.64-2,6.46.81a6,6,0,0,0,3.82,2.56c4.23,1.19,6,5.91,4.31,9.9-1.49,3.61.7,7.07,1.52,10.5.52,2.2,3,.78,4.56,1.21a4.07,4.07,0,0,1-1,.63c-1.43.41-3.51.13-3.64,2.15C119.33,147.74,121.78,146.68,122.41,148Z"/><path class="cls-47" d="M162.22,340.7l-8.89,23.19,1,.6c4.46-6,11.13-10.05,14.07-17.29,1.73,1.95,1.64,3.47-.51,5.45a122,122,0,0,0-9.71,10.48c-.94,1.1-2.27,2.27-1.91,5.05,8-9.25,17.69-15.94,23.18-26.54a1.5,1.5,0,0,1,.43.35c.69,1.12-.6,3.32-2.12,5.26-4.27,5.45-9.41,10.09-14.28,15.47,1.94.25,2.51-1.65,3.87-1.8.23.75.47,1.5.7,2.25-3.48,3.47-6.86,7-10,10.78-2.4,2.82-3.8,3-5.92,1-1.73,3.57-4.75,6-7.58,8.64a2.3,2.3,0,0,1-2.9.57c-.73-1.84.5-3,1.53-4.19a12.33,12.33,0,0,0,2.58-4.84c1.08-3.56,3.62-6.34,3.09-10.83-.43-3.63,2.77-7.27,4.19-9.53a45.2,45.2,0,0,1-3.62,5.51c-.58.74-1,2.06-2.45,1.14A13.79,13.79,0,0,1,153,349.29a17,17,0,0,0,6-6.56C159.65,341.45,160.22,339.89,162.22,340.7Z"/><path class="cls-48" d="M151.23,274.3c.12-3.43-3.87-4.64-4.23-7.81,3.28-3.22,3.35-7.71,4.07-11.72,1.78-10,6.47-17.62,15.51-22.53,3.1-1.69,6.11-2.4,9.45-1.05.47,1.57-.7,2.43-1.55,3.35a33.07,33.07,0,0,0-4.85,6.61c-6.78,2.73-9.92,8.08-11.43,15-1,4.38-1,9.27-4.77,12.63-.65,1.42.13,2.8.09,4.19,0,1.23,0,2.79-2.05,1.89Z"/><path class="cls-49" d="M111.87,419.15c.84-1.41,2.24-.53,3.36-.81.83,1.09.33,2.09-.4,2.87-7.15,7.55-15,14.18-24.43,18.76-1.65,0-3.44.39-4.55-1.38A80.27,80.27,0,0,1,83.53,420a36.82,36.82,0,0,1,5.7-18.83c2.24-1.63,3.37-.66,3.71,1.71a14.43,14.43,0,0,1-.76,5.4c-1.42,5.2-2.55,10.49-3.7,16.2.55-1.27.14-2.75,1.6-2.8.94,0,1.09,1,1.24,1.8a21.16,21.16,0,0,1,.18,4c.27,1.59-1,3.7,1.59,4.48,1.15.26,2.45.89,3.39-.13,3-3.23,8.1-4.27,10.08-8C107.94,421.21,109.23,419.75,111.87,419.15Z"/><path class="cls-50" d="M169.6,240.74c-.86-2.94,1.78-4,3.12-5.76,1-1.33,2.2-2.53,3.31-3.79a34.35,34.35,0,0,1,9.21-5.36c3.94-1.35,7.56-.21,10.85,2.16,1,1.89.43,2.85-1.71,2.45-2.72-.5-4.32.73-5.25,3.09-.66,1.66-2,2-3.52,2.62-3.31,1.44-6.26,3.35-10.11,3.65-1.83.14-2.47,2.87-2.77,4.9-.57.56,0,2.18-1.67,1.71-1-1.34.06-2.4.48-3.48-1.06.68-.44,3.66-3.11,2.33A4.63,4.63,0,0,1,169.6,240.74Z"/><path class="cls-51" d="M156.73,383.9c-1.2,3-4.49,3.06-6.57,4.8-.86.72-2.9,1.31-.44,2.61-.68,2.24-2.75,1.37-4.14,1.92,1.29.5,3.64-.37,3.88,1.54.23,1.73-2,2.13-3.32,2.85a12.81,12.81,0,0,1-4.86,1.5c-1.2.12-1.62.69-1.22,1.84a5,5,0,0,0-3.09,3.11c-1-.39-2-.93-2.89,0-1.8,1.87-4.42,2.68-6,4.77-4,1.55-7.64,4-12.14,3.77a2.37,2.37,0,0,1,.52-2.15c9.24-4.85,17.65-10.8,24.4-18.89,1-1.1,1.29-2.55,1.94-3.83,4.67-4.64,10-8.59,14.83-13a27.35,27.35,0,0,1,6.35-4.44c1,4.42-2.51,6.31-5.06,8.57-1.15,1-2.25,1.75-2,3.44-.85.43-1.89-1.19-2.8.5a6.3,6.3,0,0,1-3.29,2.66C152.68,384.74,154.28,382.62,156.73,383.9Z"/><path class="cls-52" d="M177.72,85.6c3.09-1.51,6.71-1.73,9.5-4a4,4,0,0,0,2.7-1.5c5.88-6.19,8.86-5.49,12.22,2.88-2.2,6.31-6.67,10.08-13.28,12.32.35-2.49,1.9-3.53,2.67-5,.64-1.24,1.2-2.94,0-3.63-1.92-1.1-1.47,1.65-2.54,2.18A53.88,53.88,0,0,1,177.72,85.6Z"/><path class="cls-53" d="M132.87,260.45a28.94,28.94,0,0,1,5.67,8.57,2.63,2.63,0,0,1-3.23-.77c-1.66-1.65-3.87-2.19-5.84-3.21-2.77-.22-3.73,1-3.16,3.71.47,2.25.07,3.35-2.84,2.82-2-.35-4.71-1.62-6.37,1.13-.63,0-1.86-.29-1.45-.71,3.48-3.59-.37-2.82-2.13-3.16,3.49-4.33,5.81-4.82,9.1-2.11-.4-3.29-6-7-9.71-6.33a13.33,13.33,0,0,1-4.31.29A21.09,21.09,0,0,1,123,259.45C125.83,260.14,129.46,262,132.87,260.45Z"/><path class="cls-51" d="M90.38,439.32a120.54,120.54,0,0,0,23-17.67c.94-.9,2.1-1.73,1.87-3.31l-.07,0c1.34-1.62,3.55-2.55,4-4.91.44-.58,1.33-1.06,1.66-.59,1.28,1.84,2.48,2.31,4.29.63.7-.65,2-1.32,2.72,0a2.1,2.1,0,0,1-.71,2.82c-2.77,1.93-5,4.68-8.42,5.66-.68.19-2.28.72-.14,1.38-.11,1.29-1.14,1.36-2,1.43-2.34.18-.73,1.15-.41,1.87-4.11.67-6.28,4.53-9.89,6-2.94,2.89-6.77,4.38-10.18,6.53-2.09,1.52-4.56,1.95-7,2.42C88.13,440,89.57,439.87,90.38,439.32Z"/><path class="cls-54" d="M90.38,439.32,89,441.61q-2.49,2.49-5,5c1.38,3.9,1.28,4.09-4,7.93a7.66,7.66,0,0,1-.88.61,10.1,10.1,0,0,0-4.09,4.65c-3.16,3.39-6.45,6.67-8.33,11-2,1.23-3,4.51-6.34,2.9a2.4,2.4,0,0,1,.06-1.13c3-4.32,4.41-9.63,8.28-13.45,1.07-1.06.67-2.82,1.17-4.14.62-1.63.56-4.26,3.58-3.7,1.84.51,2.13-1.21,3-2.1,3.11-3.37,5.29-7.63,9.48-10C87.43,438.69,88.9,439.1,90.38,439.32Z"/><path class="cls-55" d="M212.1,192.92l2.3-1c2.42.64,2.42.64,0,3.79,2,.56,4,.49,5-1.08s2.39-1.89,3.79-2.53c2.15-1,4.72-1.22,5.73-4.07a1.85,1.85,0,0,1,3.21-.65c-.06.8-.15,1.59-.18,2.38,0,1.1-2.76,2-.51,3.05.86.38,1.12-1.66,1.44-2.76,1.29-4.33,4.26-6.73,8.91-7.33-.09,1.09-.17,2.11-.26,3.13-6.42,9.7-15.79,13.16-27,12.72-2-.71-5.09,1.21-5.73-2.52-1.14-1.49-1.88-2.83,1-2.86A4.83,4.83,0,0,0,212.1,192.92Z"/><path class="cls-56" d="M163.94,370.3c-1.71,1.72-1.44,6.05-5.77,4.39-.12-.05-.52.5-.73.82-3.65,5.42-9.23,8.64-14.21,12.55-2.46,3.29-6.36,4.14-9.81,5.75-.83.39-1.9.48-2.4-.63s.22-1.75.91-2.41c.38-.36-.11.09.31-.24,2.19-1.7,6.13-1.43,6.21-5.51a5,5,0,0,1,3.19-1.08c4.33-1.47,6.24-5.51,9-8.59.85-1,1.07-2.54,3-2.36.62,1-1.46,1.81-.5,2.58,1.11.88,2.07-.31,2.7-1,3-3.16,6-6.39,8.87-9.71.93-1.08,1.71-2,3.27-1.73C167.89,366.25,165.13,367.83,163.94,370.3Z"/><path class="cls-57" d="M48.78,498.4h-5c3-1.6,5.09-2.73,7.19-3.83a39.55,39.55,0,0,0,12-9.52c.32-.37.77-.91,1.15-.9,4.67,0,5.15-.15,8.46-3.76.59-.64.79-1.75,2-1.74,1,1-.33,2-.13,3C68.11,490.62,59.45,496.05,48.78,498.4Z"/><path class="cls-58" d="M219.07,327.22A70.34,70.34,0,0,1,200.92,319c-1.63-.81-3.6-1.32-3.36-3.79.57-4.59,4-2.29,4.62-1.09,2.49,4.58,7.79,4.88,11.11,8.11,2.63,2.56,11.45,2.45,14.61.74,1.69-.91,3.54-1.91,5.66-1.64C230.32,327.26,225,327.86,219.07,327.22Z"/><path class="cls-59" d="M40.81,505.6a1.94,1.94,0,0,0,1.45-1.67c.34-.38.72-1.1,1-1.07,1.22.12.76,1.11.55,1.7-.66,1.84-1.58,3.66.92,4.89.77-.19.94.15.74.82-1.47.93-3.16,1.58-4,3.23-1.26,1.35-2.62,2.61-3.75,4.07-1.57,2-3.14,3.88-6,4.09-1.92.14-2.63,2.09-4,3.06-3.13,2.16-5.63,5.22-9.37,6.51a1.16,1.16,0,0,1,.28-1.76c6-3.5,11-8.19,16.41-13.05-2.15-1-3.83-.48-6.14.29,2.48-2.59,2.89-5.93,5.89-7.33.93.74-.82,2.8,1.14,2.8,1.51,0,.89-1.61,1.13-2.57C37.54,507.61,38.35,505.81,40.81,505.6Z"/><path class="cls-60" d="M116.66,411.17l-.76,1.45c-1.81,1.89-5.09,2.86-4,6.53-.35,2.32-3,1.24-4,2.71.26,1,1.48.24,1.88,1-3.86,4.25-9.54,6.22-13.32,10.58-1.56,1.79-2.36-1.07-3.73-.72.18-3,2.71-4.56,4.29-6.67,1-1.34,2.09-2.65,3.21-3.91a3.52,3.52,0,0,1,1.92-1c4.6-3.24,8.34-7.47,12.64-11.07A2,2,0,0,1,116.66,411.17Z"/><path class="cls-61" d="M177.72,85.6c4.13-.2,8.06.28,11.27,3.27-3.44,4.5-7.2,8.36-13.64,7-2-3.1-.15-5.94.58-8.85Z"/><path class="cls-62" d="M234.61,136.77c2.7-1.36.46-2.84-.38-2.92-3.89-.39-4.86-3.74-6.82-6.09,1.24-1.21,2.69-2,4.19-.72,2.74,2.33,6.06,3.89,8.13,7.17,1.53,2.41,3.16,5.22,6.5,5.87-.3,1.64-.59,3.27-1,5.69C242,141.75,237.94,139.71,234.61,136.77Z"/><path class="cls-63" d="M90.45,456.92a1.64,1.64,0,0,0-1.73.57,4.58,4.58,0,0,1-3.88,2,40.77,40.77,0,0,1-6.35-.19c-.65-.11-1.38-.33-1.57-1-.27-1,.67-1.29,1.3-1.7a2.8,2.8,0,0,1,1.11-.43c9.68-1.2,16.69-7,23.16-13.62,1.09-.94,1.35-2.6,3-3.38,1.28,2,.36,3.73-.59,5.39A29.42,29.42,0,0,1,90.45,456.92Z"/><path class="cls-64" d="M140.06,401c-.75-.32-2.24.48-2.16-.92a2.25,2.25,0,0,1,2.46-2.1c3.29.33,5.75-1.5,9.39-3.24l-7.13-.42c1.65-3.57,5.23-1.12,7.1-3,4.95-.41,9.26-2.65,14.08-5.57C161.63,389.65,147.08,400.65,140.06,401Z"/><path class="cls-65" d="M102.49,442.48c-4.2,6.95-5.54,7.78-24.77,15.93h7.09c-2.24,2.55-6.1,2.84-10.19.78A7.18,7.18,0,0,1,79,454.28c7.13-1.16,13.61-3.65,18.63-9.14A9.79,9.79,0,0,1,102.49,442.48Z"/><path class="cls-66" d="M116.07,426.63c-.83-.63-2.78.74-2.66-1.11a2,2,0,0,1,3-1.58,2.1,2.1,0,0,0,2.16-.61c3.39-1.22,6.8-2.39,9.49-4.94,1.83-1.05,2.8-3.06,4.62-4.12.83-.63,1.29-2.51,2.64-1.39.86.71-.13,1.95-.74,2.76A27.54,27.54,0,0,1,116.07,426.63Z"/><path class="cls-67" d="M196.89,135.25c-.12,1.93-1.6.61-2.39,1-1.51.67-1.75,1.26-.66,2.68.92,1.19.2,1.54-.81,1.83-1.93.56-4-.64-5.89.55-1.33-2.57-2,.38-3.11.34-.4-3.44,2.19-4.71,4.62-5.29a5.31,5.31,0,0,0,4.11-3.55,4.23,4.23,0,0,1,.7-.06C195.92,131.78,196.24,133.74,196.89,135.25Z"/><path class="cls-68" d="M96,439.19c-.09-.23-.28-.65-.27-.65,3.62-1.72,6.48-4.79,10.45-5.88-.94,1.12-.35,1.43.67,1a40.74,40.74,0,0,1,7-2.78c-2.39,4.26-6.53,5.83-11,6.67A30.61,30.61,0,0,0,96,439.19Z"/><path class="cls-62" d="M225.69,126.26c-1.71-.05-3.43-.13-5.15-.14-1.56,0-4.67-1.32-2.1,2.37.23.33.38.78-.14,1a1.85,1.85,0,0,1-2.41-.76c-1.92-4.11-5.25-1.48-8.16-2.29,0,1.81,2.05,1.46,1.67,2.85-1.91,1.35-2.87-1.35-4.52-1.16,1.57-2,3.63-2.68,6.18-2.61C216,125.61,220.91,124.16,225.69,126.26Z"/><path class="cls-69" d="M128,408.85c-.79-.19-1.8-.41-.57-1.32,2.22-1.63,4.59-3,6.76-4.71,1.93-1.48,2.49-.6,2.74,1.25C134.45,406.51,131.23,407.67,128,408.85Z"/><path class="cls-63" d="M97.61,445.14c-3.15,5.24-8.66,7-13.8,9.23a18.62,18.62,0,0,1-4.18,1.25c-1.18.21-.51-.85-.65-1.34l.21-.09c2.83-1.28,5.48-3.09,8.78-3C91.52,449.72,94.41,447.17,97.61,445.14Z"/><path class="cls-65" d="M88,451.19a29.09,29.09,0,0,1-8.78,3,2.51,2.51,0,0,1,.5-.61c2.48-1.69,5.25-3.19,4.32-7C86.87,446.8,85.05,451,88,451.19Z"/><path class="cls-70" d="M156.73,383.9l-7.93,3.2-.3-.44c2.12-1.94,4.15-4,6.42-5.79,1.62-1.26.81,1.54,1.91,1.44C156.8,382.84,156.76,383.37,156.73,383.9Z"/><path class="cls-71" d="M196.89,135.25c-1.76,0-1.26-3.07-3.43-2.54a10.62,10.62,0,0,1,5.62-2.5C198.67,132,200,134.59,196.89,135.25Z"/><path class="cls-32" d="M66.49,275.28a25.83,25.83,0,0,1,2.14-13A2.2,2.2,0,0,1,71,260.76c-2.7,3.06-3,7-3.69,10.71C67.08,272.75,67.46,274.16,66.49,275.28Z"/><path class="cls-60" d="M119.12,413.46c.33,2.66-.5,3.69-4,4.91C115.45,415.91,117.69,415,119.12,413.46Z"/><path class="cls-51" d="M132.63,414.27c-1.18,1.78-2.35,3.56-4.62,4.12C129.37,416.81,129.43,413.77,132.63,414.27Z"/><path class="cls-16" d="M45.48,510.27l-.74-.82a1.19,1.19,0,0,1,.19-.33c.7-.7,1.2-1.72,2.38-1.65.21,0,.57.54.55.81C47.75,509.7,46.6,510,45.48,510.27Z"/><path class="cls-72" d="M99.22,151.18c0-4.6,3.81-3,6.16-3.55.93-.22,2.08.32,3.08.66,2.51.85,6-.42,7.53,1.76s-1.08,4.6-1.41,7a8.82,8.82,0,0,0,.72,5c2.73,5.23.8,10.13-.29,15.26-.74,3.51-1.2,6.62-5.35,7.5a2,2,0,0,0-1.26,1.35c-.09,1,1,1,1.72,1.26a15.69,15.69,0,0,0,2.71.55c1.61.18,2.84,1.27,2.28,2.6-1.77,4.15-1.66,9.25-6,12.15-1.17.79-2.12,2.16-1.73,3.37,1.68,5.24-2.6,8.33-4.39,12.15-3.7,7.87-11.63,11.65-18,16.9-5.38,4.41-11,8.68-13.39,15.67a18.66,18.66,0,0,0-.42,4.33h0c-1,1.69-2.1,1.74-3.12,0l-.73-1.65c-.77-1.72-1.63-3.32-3.82-3.48-.26,0-.7,0-.74-.17-.89-3.7-3.18-2.23-5.35-1.56-.45.14-.9-.42-.59-1.07h0c.53-3.12.06-6.68,4.16-8.07.9-.31.78-1.52.12-2.43-.56-.76-1.9-1.31-1-2.64,5.18-.8,8.23-3.81,9.43-8.87.27-1.13.8-2.35,2.44-2-.15.88-.3,1.76-.53,3.13,6.17-3.26,10.35-8,14.14-13.12,2-2.77,5-5.41,3.54-9.58-.19-.55.26-.89.79-1.16,5.23-2.72,6.76-8.23,9.59-12.76.52-.83.91-2.06.29-2.63-3.09-2.94-.75-5.85.34-8.26a12.09,12.09,0,0,0-1.1-12.75c-1.12-1.61-1.17-2.41,0-4.05C101.38,158.58,99.22,154.81,99.22,151.18Z"/><path class="cls-73" d="M72,223.18c-2.49,1.12-1.21,3.82-2.35,5.57-2.31,3.54-4.67,6.79-9.66,5.66a1,1,0,0,1-1,.14A26.26,26.26,0,0,0,54.42,228l-.12,0c-1-2.67.57-3.34,2.7-3.32,1.77,0,3.9,1.3,4.42-1.81,0-.28,1.27.08,1.71-.59,1.56-.84,3.45-1.48,2.29-3.91.17-.36.34-1,.52-1,3.1,0,5.94-.18,4.12-4.62a2.49,2.49,0,0,1,1.19-.73c4.54-.74,7-3.37,7.58-7.93a1.45,1.45,0,0,1,1.56-1.33c1.27,4.1-2.26,7.31-2.19,11.25C78.27,218.23,74.2,220.2,72,223.18Z"/><path class="cls-74" d="M59.19,234.45a7.14,7.14,0,0,1,.8,0c3.4,2.9,3.89,5.23-1,7.15-2.37.94-.47,4.11-2.17,5.63.5-3.59-1.29-5.71-4.44-7-.87-.36-2.53-.16-2.13-1.67s1.73-2,3.2-1.4c2.25.84,4.65.07,7.08,1.33-.41-3.63-3.49-1.66-4.62-3.12C56.74,234,58,234.28,59.19,234.45Z"/><path class="cls-74" d="M56.82,247.2c1.57,1.37,1.87-.36,2.63-1s2.63-1.34,2.59-.94c-.43,4.26,5.49,4.33,5.28,8.27-2.15-3.67-5.86-3-9.08-2.9C53.86,250.77,55.12,249.23,56.82,247.2Z"/><path class="cls-75" d="M63.13,222.31c-.05,1.1-1.88.41-1.73,1.72.29,2.67.31,2.56-2.59,1.84-2-.49-4.34-1.32-4.51,2.16-1.27-1.56-2.51-3.14.58-4.05,2-.59.17-2.42,1.29-3.56C58.35,221.3,60.54,222.64,63.13,222.31Z"/><path class="cls-72" d="M59.19,234.45c-.87,1.13-2.19.55-3.28.88-2.39-.43-4.29-1-2-3.94.61-.77.34-2.24.48-3.4C57.34,229.16,59.39,231,59.19,234.45Z"/><path class="cls-32" d="M68.05,255.13a2.2,2.2,0,0,0,3.12,0c.15,1.55-.25,3.37-1.81,3.35C67.29,258.49,68.21,256.41,68.05,255.13Z"/><path class="cls-3" d="M73.75,93.55l3.89,3.84c7,4.76,6.7,13.21-.73,18-.42.27-1.09.64-1.44.49-3.28-1.46-4.22.83-5.11,3.13-.44,1.12-1.09,2-2.35,1.63-1.61-.41-1.43-1.54-1-2.84.33-1,.45-2.55-.78-2.73-1.75-.26-.71,1.51-1.11,2.22a49.22,49.22,0,0,1-4.2,6.06,2.33,2.33,0,0,1-3,.35c-1.17-.61-.59-1.64-.34-2.47.81-2.56-.54-3.53-2.76-3.57-8.43-.15-8.64-5-6.25-10.87A57.28,57.28,0,0,0,51.84,98c.6-2.6,1.63-4.82,4.78-1.92,1.27,1.18,5.27-1.14,3.13,4.45,3.67-4.31,3.34-5.2-.22-7.11-1.68-.9-3-2.55-4.36-4-1-1.05-.15-1.92.77-2,2.1-.2,4.66-1.3,5.69,1.88.25.78,1.1,1.93,1.48,1.51,4-4.54,5.73,2.41,9,1.78C72.54,92.51,73.18,93.21,73.75,93.55Z"/><path class="cls-3" d="M31.15,130.13c0,.84-.14,1.66-1.18,1.67-.77,0-1.08-.6-1.1-1.32s.06-1.72,1-1.88S31,129.36,31.15,130.13Z"/><path class="cls-76" d="M28.32,114.84c-2.85-3.6-1.48-7.21-2.68-10.22a.84.84,0,0,1,.79-1.12c1,0,1.38.68,1.61,1.46A22.78,22.78,0,0,1,28.32,114.84Z"/><path class="cls-2" d="M44.81,82.34c4,1.07,4.5,2.21,2.43,5.62C45.61,86.44,47.23,83.51,44.81,82.34Z"/><path class="cls-77" d="M59.27,315.37c3.65.73-1.37,2.56.45,3.55,1.19.64,3.53-.62,3.49,2.06,0,2.09-1.91,3.25-3.3,5.67,3-1.34,4.26-3.29,5.78-4.95,2.65.18,2.74.66.73,3.91-5.11,2.88-7.84,8.45-12.89,11.4,3.27-1.87,5.65-4.7,8.06-7.5.64-.74,1.3-1.5,2.31-.76a2,2,0,0,1,.43,2.55,11.9,11.9,0,0,1-3.86,5c-5.72,4.32-11.28,8.86-17.54,12.42,5-2,9-5.45,13.08-8.77.94-.76,2-2.48,3.27-1.16s0,2.71-.94,3.83a36.84,36.84,0,0,1-6,5.23c-2.44,1.87-5.63,3-6.43,6.54-.1.43-.86.53-1.41.58a5.5,5.5,0,0,0-3.08.24c-.53.08.16.11-.37.14-3.48.23-5.33,1-8.64,3.57-.81.62-1.8,1.74-2.73.89-1.15-1.05-.06-2.2.67-3.1,1.17-1.43,2.09-3.09,3.58-4.22.85-.64.25-1.07,0-1.6.27-4,2.77-7.2,3.55-10.51-1.58,3.93-3.41,8.28-4.8,12.79A15.79,15.79,0,0,0,27,360.63c-.29.9-.71,2.11-2.18,1.8-1.68-1.56-1.09-3.62-1.16-5.5a17.42,17.42,0,0,0-.59-5c-.12-2.77-1.32-5.76,1.6-7.91.27-.6.53-1.21.8-1.81,2.86.49,1.26,3,2.24,4.16.62-1.24.56-3,.94-4.62.2-.91.41-1.94,1.57-2,1.41-.1,1.17,1.08,1.39,1.94.11.43-.24,2.08,1.14.74l4-8.71c.41-1.88.94-3.67,3.18-4.17,2.62-2.84,7-3.56,8.93-7.21,1-.63,1.84-2,3.7-1.18-1.12,2.12-3.91,3.24-3.57,6.55,2.07-2.39,4.28-4.11,5.48-6.73C56.28,319.25,58.33,317.78,59.27,315.37Z"/><path class="cls-78" d="M24.71,344c-1.25,2.67-.59,5.47-.65,8.23,1,3.81-.44,7.63,0,11.46a2.06,2.06,0,0,1-1.74,2.34A2.26,2.26,0,0,1,19.93,365a42,42,0,0,1-3.62-6.47,107.73,107.73,0,0,1,3.4,12.62c2-3.49,4.13-5.91,5.83-8.66,1.07-3.94,2.07-7.93,6.46-9.65.76-.66.9-2.33,2.54-1.6,1.51.24.84.88.31,1.54a31.36,31.36,0,0,0-4.61,6.81c2.26-2.13,4.44-4.35,6.79-6.35,1.41-1.21,1.59-1,2.13,1,.07.26,1.53.14,2.35.2.56,2.36-1.41,3.2-2.73,4.29-2.93,2.42-5.75,5-8.82,7.23-1.28.94-2.05,1.95-1.78,3.59-.85,1.66-1.42,3.44-2.13,5.15-1.49,3.59-4.31,4.78-8.37,3.75l-.26-.19c-2.88-10.82-6.63-21.49-4.79-33,.34-2.15-1.59-4.77,1.78-6,.52-.71.83-1.6,1.92-1.94.73,1.27,0,2.4-.31,3.54-.79,3.56-1,6.92,1.62,10,1.84,2.24,2.06,5.38,3.61,7.84.31.44.76-.35.38,0-.12.11-.22,0-.37-.16a7.89,7.89,0,0,1-1.5-6.4c.53-2.72.43-5.5,1-8.21-.34-2.88,1.12-4.83,3.29-6.43C25.27,339.59,21.51,342.17,24.71,344Z"/><path class="cls-79" d="M14.41,339.22c-3.06,2.62-.91,6.18-1.44,9.25a32.12,32.12,0,0,0,3,19.35,16.14,16.14,0,0,1,1.5,10.41c-2.77-1.2-1.22-4.66-3.51-6.41a4.23,4.23,0,0,0,0,3.24c.23,1,1,2.25-.25,2.78-1.43.59-1.24-1.33-2-1.86-2.13,4.13-1.57,9-3.78,13.57a7,7,0,0,1-2.22-5.66c2.16-1.13,1.55-3.48,2.22-5.24.88-2.33,1.21-4.76,3.88-6.07a3.56,3.56,0,0,0,1.56-4.14c-2.18-7.53-1.18-15.23-1.36-22.87-.5-3.09-1-6.18-1.46-9.28-.12-.88-.06-2.09,1.13-2.14,1,0,1,1,1.07,1.83C12.83,337.29,12.81,338.68,14.41,339.22Z"/><path class="cls-80" d="M20.75,344c.17,5.26-.42,10.55,1.12,16.46-6.23-9.82-8.38-13.94-5.85-19.59,0,1.57.05,3.15,0,4.71-.13,2.06.85,3.55,2.75,3.59,2.09.06.93-2,1.21-3C20.12,345.32,20.09,344.52,20.75,344Z"/><path class="cls-81" d="M40,329.54l-3.18,4.17c-5.62-3.88-8.44-10.66-14.86-13.83-5.42-2.68-9.61-7.21-14.39-10.88a2.27,2.27,0,0,1-1.17-1.91c4.62,3.22,9.55,6.07,13.79,9.74,5.37,4.64,11.52,7.81,17.67,11.09C38.69,328.37,39.55,328.65,40,329.54Z"/><path class="cls-82" d="M10.42,476.16c2.17-3.68,2-8.51,5.65-11.47a3.27,3.27,0,0,0,2.1-1c2.62-2.75,5.11-5.58,5.83-9.49a16.83,16.83,0,0,1,2.1-4.53c2,.37,3.31-1.3,5-1.87a3.31,3.31,0,0,1,2,2.5c-.64,3.35-4.34,5-4.74,8.48-1.75,2.57-4.84,4.31-4.85,7.94-.11,1,.79,1.8.68,2.82a5.2,5.2,0,0,1-1.3,1.5c-.63.49-1.06,1.41-2.11,1-2.64.23-2,2.51-2.35,4a17.9,17.9,0,0,1-6,9.76c.93-3.63,3.54-6.49,3.93-10.45A2.08,2.08,0,0,0,15.18,473c-1.45-1.11-1.61.52-2.1,1.21a22.09,22.09,0,0,1-1.58,2.69C10.73,477.66,10.47,476.91,10.42,476.16Z"/><path class="cls-83" d="M20.8,472.05l1.56-1.64c.78-.36,1.14.14,1.47.72a5.42,5.42,0,0,1,.14,3.09,67.3,67.3,0,0,1-3.44,12.44c-2.41,4.36-5.6,7.49-11.08,7A1.33,1.33,0,0,1,9.6,492C16.06,486.85,21.12,481,20.8,472.05Z"/><path class="cls-84" d="M9.6,492l0,1.64c.83,1.63-.27,3-.54,4.51-.24,1.34-1.45,2.63-.18,4,1.6.78,3.15,2.35,1,3.3-3,1.32-3.39,4.06-4.91,6.19-1.18.4-2.68,1.67-2.69-1l.16-.21c2-1.11,1.9-3.26,2.47-5.08C6.25,500.81,6.3,495.8,9.6,492Z"/><path class="cls-84" d="M30.58,509l-5,7.75c-.94,1.49-1.67,3.36-4.05,2.2v-.3l0-.29a1.37,1.37,0,0,1,.1-1.14c2.39-3.66,2-7.14-.79-10.41-1.57,2.55-3.11,5.48-7,5.24-3.53.85-6.91,2.37-10.62,2.38l0,0c-.38-.85.09-1.42.64-2,2.62-1,4.33-3,5.92-5.17,2.59-3,6-5,8.42-8.21,5.27-3.56,4.7-9.22,5.18-14.5,1-1.92,2.35-2.37,4.2-1.21,5.14,4.07,5.31,4.14,3,10.47C29,498,29.33,502.2,28.79,506.38c-.12.91.53,1.08,1.17,1.29S30.89,508.34,30.58,509Z"/><path class="cls-85" d="M21.5,519c1.62-.24,2.72-1.43,4.05-2.2,0,3.08-2.3,5-3.86,7.19a22.17,22.17,0,0,0-3.09,5.51c-.09.58-.18,1.17-.28,1.76-2.7,3-6.87,4.78-7.62,9.35-1.2,2.08-4,2.53-5,4.77-.78.58-1.54,1.2-2.62.82,2.65-4.32,3.87-9.31,8.28-12.84,3.3-2.65,5-7.24,7.49-10.93C19.66,521.2,20.61,520.11,21.5,519Z"/><path class="cls-86" d="M13.78,512.07c3.63-1.29,5.77-4,6.9-7.86,2.78,4.86,6,9.32.79,14.17-.68-1.14-2-1.8-2.67-2.68-1.42-1.92-1.94-.74-2.49.3-1.43,2.73-3.58,5.23-2.78,8.74.24,1.06.24,2.45-2.25,3.14C13.65,522.51,11.61,517.07,13.78,512.07Z"/><path class="cls-87" d="M2.76,534.59c.65-1.93.28-4.51,3-4.84.57-.07,1.86.91,1.8,1.2C7.05,533.39,4.45,533.37,2.76,534.59Z"/><path class="cls-88" d="M28.21,380.58c-3.25-1.78-5.62.63-8.25,1.75-.92,0-1.86.12-2.46-.83-.16-2.07,1.59-2.18,2.86-2.65,3.46-1.27,7-2.47,10.39-3.8,4.25-1.65,4.57-2.81,1.84-6.43-1.27-1.68-.21-2.31.91-3.1,2-.87,4.08-1.72,6.16-2.44,2.72-.95,4.35-.14,4.08,3.06-1.06,2.28-3.6,1.83-5.8,2.87,2.21,1.57,4.42.85,6.41,1.24a3.78,3.78,0,0,1,1.71.76c1.78,2.52.32,3.65-1.93,4.28a15.41,15.41,0,0,1-4,.21c-1.39.72-4.27-1.26-4.13,2.28A28.52,28.52,0,0,1,28.21,380.58Z"/><path class="cls-89" d="M33.54,366.35c-.55.52-1.9.84-.23,1.77,3.55,2,3.68,4.47.42,6.64-2.91,1.94-6.35,2.53-9.58,3.65-2.32.8-4.94,1-6.65,3.09-3.37-1.22-.36-2.08.18-3.08,4.29-.51,8.07-1.57,8.06-7.05,0-1.35,1.75-1.5,2.17-2.63.65-2.46,2.44-3.43,4.78-3.7C33.29,365.27,33.77,365.58,33.54,366.35Z"/><path class="cls-17" d="M6.33,408.76c-.63-.14-1.57-.28-.75-1.14,3.47-3.61,7-7.14,10.55-10.71,1.68-2.91,3.73-4.79,7.56-4.32,5.21.65,6.2-.44,6.42-5.77a8.82,8.82,0,0,1,.37-2.75c1.13-1.9,2.2-1.46,3.18.12a8.45,8.45,0,0,1,1.05,2.93c.52,2.92,2.36,4.17,5.17,4.3a3.44,3.44,0,0,1,1.95,2.1c0,.4-.07.93-.4,1-3.36,1.06-3.22,3.24-1.91,5.7,0,.1.12.06.11,0-.52-4.76,1.59-4.62,4.75-2.56.81,1.52.81,3.3,1.67,4.81s.26,3.38,1.35,5.11c1.43-2.08-1.71-4.5.68-6.21s4.79-4,8.27-2.55c2.11-1.23,4.51-1.44,6.79-2.07a55.46,55.46,0,0,0,18.38-9.09,23.22,23.22,0,0,1,4-2.62c.82-.38,1.78-.92,2.55-.09s.21,1.73-.26,2.54c-5.49,5.47-12.36,8.71-19.36,11.61A49,49,0,0,0,61.9,402c-4,1.52-5.26,2.71-8.47,8.18,3.66-1.24,6.72-2.83,8.82-5.93.65-1,1.15-2.15,2.56-2.28,2.56,1.28,1,3,.24,4.3a23.19,23.19,0,0,1-8.72,8.48c-5.17,3.08-7.45,8.46-10.74,13-.82,1.15-1.14,3,1.55,2.64a38,38,0,0,0,6.1-2.39c.52-.11.11-.7.25-.19,0,0-.08.07-.24.12-1,.31-1.93.87-2.88,0a1.37,1.37,0,0,1-.06-1.12,2.53,2.53,0,0,1,1-1.14c5.19-2.16,7.51-6.07,7.18-11.64.68-1.27,1.58-2.09,3.14-1.47a16.66,16.66,0,0,1,2.2,7.43c-1,3.93.65,7.56,1.26,11.3.27,1.65,1.19,3.35-.5,4.78-3.62-1.68-2.47-5.26-3.33-7.89a3.78,3.78,0,0,1-1,1.87c-3.35,2.85-7.47,4-11.61,5-6.1,1.48-7,2.35-8.66,9.34,3.24-.89,5.93-2.57,8.69-4.06.93-.5,1.76-1.19,2.71-1.67s2-1.19,2.91-.2c1,1.17.1,2.24-.61,3.17a12.4,12.4,0,0,1-3.77,3.52c-4.59,2.43-9.32,4.51-14.67,4.54-2.09-.45-2.15-1.71-1.13-3.19,5.66-8.24,7.52-17.91,10.17-27.06a3.75,3.75,0,0,0-.4,1.16c-.24.68-.63,1.14-1.43,1.06-.14-1.06.06-2.45-1.79-1.73-1.2-3,1.43-5.82.44-8.76-.41,2.18-.66,4.47-1,6.74-.14.91,0,2.28-1.67,2.14a3.45,3.45,0,0,0-.14-1.18c-.55-1.08-.59-.13-.76.23-.82,1.72-.91,3.77-2.3,5.39-2.21-2.57-.76-6-2.52-8.54a2.88,2.88,0,0,1,.29-3.62c2.54-3.34,1.68-12.5-1.85-14.35s-7.82-2.51-11.67.09c-1.08,1.13-.63,1.47.71,1.5,1.6,0,2.39,1.18,1.47,2.31-3,3.74.22,6.29,1.49,9.2a18.74,18.74,0,0,0,2.28,3.18c0,.72-.69,2.19,0,2,4.25-1,3.59,2.65,4.68,4.63A6.91,6.91,0,0,1,31,422.7c.27,1.42,2.94,2.71,1.1,3.93-1.23.82-2.48-1.52-3.53-2.6a21.41,21.41,0,0,1-3.59-4.69,3.37,3.37,0,0,0-4.19-1.9c-2.46-1.76-2.77-4.73-3.88-7.2-1.28-2.86-2.7-4-5.7-2.17C9.75,408.94,8.1,409.72,6.33,408.76Z"/><path class="cls-26" d="M8,429.6c-1-1.08,3-2.11,0-3.21A9.46,9.46,0,0,1,16,424c-2.6,3.31-1.79,6,1.43,8.35,1.22.9,1.9,2.42,3.13,3.36a8.56,8.56,0,0,1-3-4.86c-.19-.9-.43-1.9.66-2.44a1.73,1.73,0,0,1,2.2.29c1.67,2.66,3.88,2.82,6.52,1.82.3-.11.72.27,1,.52-.18,1.08,1.28,2.87-1.78,2.58-1.17-.12-1.22,2.66-.31,4.35.72,1.34,2.89,2.33,1.37,4.39-.66.24-1.4.71-.9,1.39,2.13,3,.18,4.26-2.06,5.52a2.35,2.35,0,0,1-1.72-.26c-2.15-2.85.14-5.94-.49-8.81-.47,2.87.48,6-1.56,8.71-1.76-.7-1.34-1.92-.84-3.29a6.15,6.15,0,0,0-2.57,5.19,8.49,8.49,0,0,1-.71,3.47c-.33.7-.65,1.6-1.54,1.58s-1.27-1-1.29-1.73c0-2-1.3-4-.39-6.11,1.95-6.61-1.12-12.16-3.78-17.78C9.18,429.91,8.45,429.82,8,429.6Z"/><path class="cls-90" d="M18.31,397.48c4.12-3.63,8.87-1.23,13.35-1.39.22,0,.48.21.67.38,1.91,1.7,4.66,13.17,3.44,15.21-.89,1.49-3.9,1.47-3.05,4.26-1.63-1.15-2.71-2.48-1.38-4.52.43-.66,1.08-1.39.2-2a2.59,2.59,0,0,0-1.9,0c-1.3.41-.13,1.25-.21,1.89a27.58,27.58,0,0,0,0,3.19c-1.29-2.69-2.52-2.44-3.73-.84-2-2.29-.78-4.51.35-6.54a6.89,6.89,0,0,0,.62-5.63c-.71-2.59-1.83-3.93-4.7-3.26C20.69,398.53,19.3,398.75,18.31,397.48Z"/><path class="cls-91" d="M27.92,431.07a8.29,8.29,0,0,0-1.58.11c-3.46.91-3.45.91-6.61-2a4,4,0,0,0-1.24-.46c-1.08,3.22,2.67,5,2.18,8.38-2-2-3.86-3.8-5.6-5.64-3.86-4.11-3.77-4.66.88-7.46.37-.15.73-.32,1.11-.45,2.28-.74,4.37-4.08,6.65-2.3C26.58,423.51,29.47,426.56,27.92,431.07Z"/><path class="cls-92" d="M42.48,421.65a19.33,19.33,0,0,1,4.08-6c-4,11.3-4.73,22.62-12,31.52-.87,1.07-.84,1.55.59,1.67-.09,1.69-1,1.94-2.43,1.43-.45-.76-1.51-1.07-1.55-2.13A8.5,8.5,0,0,1,34.43,441c1.58-1.36,1-3.68,2.31-5.16a20.36,20.36,0,0,1,3.12-8.22,24.89,24.89,0,0,0,2.61-6Z"/><path class="cls-93" d="M34.43,441l-3.24,7.21a22.77,22.77,0,0,0-1.68,2.13c-1.43,2.33-2.23,1.32-2.92-.49a1.73,1.73,0,0,1-1.7-1.14l-1.45-1.52c1.13-1.3,2,1.12,3.11.05.69-1.3-1-1.81-1.26-2.84-.17-.63-1.44-1.12-.38-1.88.64-.46,1.48-1.38,2.29-.09,0,1.2.51,1.94,2.08,2.26-.33-3.08-1-5.92.19-8.71.56-1.34.81-2.24,2.63-1.13,2.06,1.24.93-1.59,2.33-2.05Z"/><path class="cls-94" d="M38.44,420l2.23-12.44c2.82,4.27,1.26,8.29,0,12.32-1.11,1-.8,3-2.3,3.88C36.93,422.36,38.65,421.25,38.44,420Z"/><path class="cls-17" d="M42.47,421.61c-.31,5.37-3.45,9.61-5.73,14.19-2.26-2.66-2.31-5.25.33-7.65C39.19,426.22,41.32,424.32,42.47,421.61Z"/><path class="cls-80" d="M32.79,342.42c0,1.18,0,2.36-1.23,3.26-.84-1.69.24-3.66-1.14-5.56-1.62,2.83-.38,6.39-2.74,8.77-2.43-1.67-.35-4.83-2.17-6.66,0-2,1-2.81,3.08-3.14C31.46,338.63,31.9,340.69,32.79,342.42Z"/><path class="cls-11" d="M5.7,545.35c.49-2.82,2.93-3.59,5-4.76a21.28,21.28,0,0,0,7.38-4.54,56.84,56.84,0,0,1,6.3-5.24c-1.45,4-5.15,5.88-8.23,8.2C12.9,541.44,9.2,543.26,5.7,545.35Z"/><path class="cls-95" d="M26.39,385.56c1.27-1.46,3.37-.38,4.73-1.56,0,.93,0,1.85,0,2.77.17,6.75-1.84,8.29-8.8,6.48-1.23-.32-1.66.41-2.35.9-1.29.91-2.55,1.84-3.83,2.76a1.7,1.7,0,0,1-.91-1.53,64.69,64.69,0,0,1,11.69-8.07c.57-.31,1.75-.47,1-1.55C27.7,385.48,26.91,385.61,26.39,385.56Z"/><path class="cls-96" d="M13.13,448.05c1.68,2.1,1.06,4.72,1.46,7.23,3-3-1-9.31,5.39-10.37v3.93a18.35,18.35,0,0,1-3.25,13.43c-.94.64-1.59.66-2.17-.55-1.29-2.73-2.72-5.39-4.09-8.07-2.35-1.46-1.49-5-4.16-6.28-1.08-.29-2.35.07-3.18-1,2.07-1.15,4.81-.73,6.38-3.19.86-1.33,1.84-.21,2.26.81C12.31,445.3,12.68,446.69,13.13,448.05Z"/><path class="cls-97" d="M6.31,447.37c1.86-.58,3-.23,3.23,2a32.12,32.12,0,0,0,.93,4.26c-1.28,2.73.1,5,1.31,7.35-4.43-2.53-6.58-7.06-9.63-10.75-.69-.83.06-1.46.85-1.77C4.09,448.07,5.2,447.73,6.31,447.37Z"/><path class="cls-98" d="M16.73,462.27q1.62-6.72,3.25-13.43c1.36-3,1.49-6.36,2-9.83,1.43,3.33-.92,6.8,1.15,9.78a3,3,0,0,1,0,3.11C21,456,20.47,460.68,18.3,464.76a1.4,1.4,0,0,1-2.23-.07C16.34,463.9,17,463.21,16.73,462.27Z"/><path class="cls-11" d="M4,513l-.86,1.47c-2.22-.81-1.71-2.28-.92-3.81.54,1.64,1.63.45,2.49.48C5.34,512,4.38,512.39,4,513Z"/><path class="cls-99" d="M210.49,281.51c3.18,4.27,4.65,9.36,6.14,14.3,1.05,3.5,2.89,6.91,2.6,10.75-.07.88.39,2-.65,2.53s-1.6-.64-2.27-1.2c-4.15-3.46-6-8.73-9.76-12.53-3.05-3.07-5.6-6.64-8.62-9.74-2.06-2.12-2.48-5-3.93-7.32-.82-1.35-1.2-3-2.21-4.19-3.71-4.26-1.36-9.59-2.63-14.3-.47-1.75,1.63-3,3.52-1.1.83.84,1.42,1.92,2.22,2.79.55.61,1.09,1.9,2.17.77.78-.83.49-1.73-.49-2.33a5.38,5.38,0,0,1-2-2.9c-.43-1.09-1.83-2.4.15-3.36,1.46-.7,3.32-1.51,4.43,0,3.28,4.58,6.69,9.18,7.2,15.11-2.52.19-2.89-1.85-3.61-3.5-.56-1.27-.6-2.86-2.37-3.68a3.24,3.24,0,0,0,1,3.64c4.07,4.21,4.56,10,6.88,15,.55,1.18.66,2.74-.81,3.54s-2.2-.62-3.12-1.41c3.2,3.4,6.24,6.91,7.77,12.46,0-3.19-1.21-5-1.71-7.06S208.57,283.58,210.49,281.51Z"/><path class="cls-100" d="M171.29,246.43l1.44-1.73c.16,5.22,1.14,10.42,0,15.65-.6,2.84.34,5.36,1.1,8.15,1.21,4.46,4.25,8.14,4.7,12.84.22,2.39,2.15,3.9,3.89,5.38.8.68,2.33,1.21,2.41,1.93.52,4.4,4.38,6.48,6.64,9.56,2.12,2.89,5,5.23,6.36,8.72a1.92,1.92,0,0,0,2.43,1c2.94-1.52,3.73,1,4.9,2.53,1.37,1.85,2.16,4.61,5.3,2.18.62-.49,1.33.24,1.62.78,2.54,4.73,8.46,2,11.89,5.3.6.59,4.46-1,5.61-3.8.89-2.12,1.22-3.67-.93-5.14-1.51-1-2-2.63-.9-4.17a6.17,6.17,0,0,0,.83-6.09c-1.8-3.65.56-6.88.17-10.29-.19-1.73,1.22-2.18,2.35-2.84.15,1.57.35,3.12.62,4.68.37,2.08,2.56,4.66-1,6.36-.53.25-.68,2.42-.26,3.38,1.7,3.85-.28,8.51,2.69,12.18.18.22,1.72,5.4-2.78,5.22-.75,0-.91.48-1.15.87-3.49,5.76-9,2.66-13.63,3-1,.07-1.51-1.31-2.14-2.18-1.4-1.94-3-3.62-5.76-3.36-.37,0-1,.07-1.11-.14-2.68-4.16-7.19-4.28-11.34-5.22-2.49-4-5.18-7.74-9.86-9.51-1.32-.5-1.84-1.84-2.21-3.14-.29-2.94-1-5.47-4.56-6a3.12,3.12,0,0,1-2.49-2.85c-.18-2.78-1.59-5-2.85-7.31-1.47-2.68-3-5.26-3-8.47,0-1.61-.87-2.71-2.78-2.35a1.22,1.22,0,0,1-.74-.92c2.6-7.49,2.36-15.42,3.68-23.11A2.26,2.26,0,0,1,171.29,246.43Z"/><path class="cls-101" d="M202.42,231.84c-1.06,2-1,2.88,1.3,3.3,3.78.69,4.74,4,7,6,3.54,3.23,3.9,7.95,6.9,11,3.63,3.75,6.86,7.7,8.7,12.57,1,2.66.16,6.06,3.32,7.82.09.06.2.3.17.34-3.3,3.63.88,7.36-.16,11-2.38-3.83-6.54-7-4.32-12.47.87-2.16-1.72-3-2.2-4.84-.85-3.21-2.36-6.1-5.43-7.94a4.78,4.78,0,0,1-2.58-4.22,4.1,4.1,0,0,0-1-2.91c-3.49-2.7-4-7.58-8.44-9.94-3.52-1.89-4-7.27-7.55-10.2C199.79,231.11,201.17,230.81,202.42,231.84Z"/><path class="cls-102" d="M210.49,281.51c-.54,4.55,2,8.33,3.18,12.45.27,1,.76,1.71-.27,2.38a1.1,1.1,0,0,1-1.69-.47c-1.85-6-6.33-10.39-9.32-15.76,1.74.06,2.55,1.11,3.25,2.31.32.55.6,1.31,1.45,1a1.13,1.13,0,0,0,.53-1.67C205,276.47,205,270,200.1,265.88c-1.32-1.12-1-2.95-1.48-4.43-.25-.72.32-1.23,1.07-1.35a2.93,2.93,0,0,1,2.51.92c1.24,1.1,1,2.7,1.45,4.05a5.9,5.9,0,0,0,2.69,3.75C206.31,273.51,209.27,277.23,210.49,281.51Z"/><path class="cls-103" d="M179.55,28.57c4.57,3,6.55,7.8,9,12.18,1.59,2.83,2.37,6.11,3.61,9.15a6.55,6.55,0,0,1-.24,5.66c-1.09,2.08-2.16,2.76-4.45.48-5.16-5.1-4.35-12.13-6.57-18.14C179.84,35,180,31.7,179.55,28.57Z"/><path class="cls-104" d="M88.7,275.76l1.47-1.49c1.23.49,1.72-1.09,2.9-1,.44,1.52-.59,2.76-.83,4.46,1.64-.16,3.26-1.88,5.12,0-4.78,2-2.11,6.21-2.88,9.48-.4,1.67.48,4-3.29,3.42,2.71,2.15,4,4.85,6.52,6.34.53.3-.08.91-.28,1.36.19,2.46-1.57,3.78-3.05,5.27-3.67-.68-6.58.66-9.13,3.26-1.72,1.75-2.42-.07-3.29-1.27a3.39,3.39,0,0,0,.82,2.62c1.45,1.76.53,2.53-1.2,3.09-4.76,1.52-4.79,1.62-2.82,6.46a3.06,3.06,0,0,1,.22,1.55,2.4,2.4,0,0,1-.55,1c-4.74,1.64-5.14,1-7.91-3.43a19.27,19.27,0,0,1-3.08-13.11c.88-8,5.89-13.22,11.1-18.46,1.79.3,2.25-.83,2.41-2.27A2.88,2.88,0,0,1,82,281.82C84.32,279.88,88,279.48,88.7,275.76Z"/><path class="cls-105" d="M152.78,315.15c.09,4.45-3,7.1-5.73,9.89-2.37,2.46-5.61,3.72-8.44,5.55a3,3,0,0,1-3.36-.22c.09-.1.16-.22.25-.31,1-.93,3.44,0,3.32-2.06-.11-1.88-2.09-2.06-3.62-2.41h0c-.07-.54-.19-1-.88-1.06-4.88-.31-5.17-.66-2.43-4.74,1.37-2-.44-2.63-1.15-3.59-1.07-1.44-2-.58-2.74.6a7.74,7.74,0,0,1-.42.68c-.85,1.11-2.12,2.33-3.31,1.47s-.08-2.33.62-3.4c.28-.43.63-.81,1-1.29-1-1-2.65-.56-3.35-1.92a4.41,4.41,0,0,0-3.57-2.19c-7.91,1.24-2.35-3.1-1.88-4.75.63-2.22,2.71-3.87,3-6.32,1.16-.68,2.65-.35,3.83-1.26-.75-1.42-2.46-2-3.14-3.43l1.57-1.54c3,.12,5.79,1.77,9.24,1.53-1.67,3.54-4.86,5.8-5.23,9.54a2.75,2.75,0,0,1-.58,1c-.83,1.2.41.36.43.36,2.25-.18,4.47-.2,6.49,1.05,1.23.76,2.23,0,3.3-.46,1.27-.58,2.43-1.68,4-1.1-.08,2.06-1.25,3.72-2,5.55-.57,1.38-.89,3.2.22,4.12,1.45,1.2,2-1.07,3.1-1.58.51-.24.79-1,1.18-1.48,2.85-3,3.11-3,4.72.14-.72,3.86-1.51,7.71-2.57,11.47,1.61-1.39,2.71-3.39,4.08-5.16C149.81,316.51,150.62,314.79,152.78,315.15Z"/><path class="cls-106" d="M100.07,331.92c-4.88,6.32-9.6,12.8-16.18,17.55-1.19-1.7-1.29-1.76-.23-3.79,2.82-5.44,4.33-11.6,9.13-15.91-1.46.78-1,4.79-4.24,2.12a11.76,11.76,0,0,1,3.34-8.2c2.48-2.58,2.91-6.16,4-9.41,1.41-4.27,2.95-8.47,6.07-11.9.92-1,1.62-2.29-.17-3.49-.51-.33-.13-1.51-.14-2.3.34-1.26.52-3,2.09-2.92,1.76.11.45,2.55,1,2.82,2.74,1.22,2.91,3.29,2.33,5.69,1.32.71,1.2-1.49,2.21-.92.83.47.43,1.4.47,2.15a.63.63,0,0,1,0,.39c-2.72,3.73-.76,8.48-2.7,12.37a60.42,60.42,0,0,0-3.93,10C104.53,329.42,102.13,330.58,100.07,331.92Z"/><path class="cls-107" d="M101.63,296.59c2.72,3.67,1.85,6.31-1.21,9.77-2.46,2.77-3.22,7.14-4.4,10.9-1,3.19-1.7,6.55-4.6,8.52-2.32,1.59-.21,4.76-2.63,6.09a.94.94,0,0,1-.67.3c-.26,0-.38,0-.38-.07a1.8,1.8,0,0,1-.91-1.4c.17-2.38,2-4.82-.27-7.14-.24-.24-.19-.78-.1-1.17,1.3-5.78,2-11.77,5.43-16.85,1.65.14,1.33-1.85,2.45-2.28.2-2.17,2.18-3.23,3.09-5C99.39,299.11,100.76,298.47,101.63,296.59Z"/><path class="cls-108" d="M100.07,331.92c.68-2.07,3-3.29,3-5.7,5.38.59,10.35,4.3,16.19,2.26,0,.79-.93,2,.65,2.68s4.12,1.41,4.44.64c1.52-3.78,3.64-.07,5.27-.74a1.9,1.9,0,0,1,.83,1.82c-1.38,1.23-3,1-4.49.48a5.48,5.48,0,0,0-4.6.34c-.11.06-.27.07-.36.15-2.89,2.45-5.29-3.08-7.53-.82-3.1,3.13-4.52.57-6.51-1-.72-.57-1.8-1.08-2.53-.26C103,333.47,101.53,332.12,100.07,331.92Z"/><path class="cls-109" d="M131.84,284c2.56,1.07,2.7,2,0,3.27-3.4,1.7-7.11,2.45-10.58,3.87l-4-1.09c1-3,3.85-4.32,5.35-6.72a1.26,1.26,0,0,1,1.78-.36C126.76,284.45,129.38,283.64,131.84,284Z"/><path class="cls-110" d="M120.83,294.38c2.32.23,3.13,2.66,5.18,3.47-2,.56-3.44,3.25-5.87,1.22C120,297.45,118.11,295.58,120.83,294.38Z"/><path class="cls-105" d="M130.48,332.88a2,2,0,0,1-.83-1.82c1.48-1.17,3.18-.57,4.8-.59C133.54,332,132.38,333,130.48,332.88Z"/><path class="cls-105" d="M135.2,325.59c-.27,2-1.58,3.06-4,4,.9-2.42,1.41-4.21,4-4.05Z"/><path class="cls-41" d="M161.53,13.55c.8-2.51,1.47-5.07,3.32-7.09,2.82.67,4,1.85,2,4.73S165.49,18,162.14,20a1.22,1.22,0,0,0-.25,1.07c4.17,3.67-.22,7.66.39,11.55a21.32,21.32,0,0,1-1.82,11.58c-1,2.32,1.66,4,1.41,6.37-.11,1.06.6,2.24,0,3.43-1.31,2.58-1,4.8,1.48,6.55.42.29,1,.85,1,1.2-.88,6.2,4.5,7.91,8,10.53,2.23,1.66,1.56,3.51,1.69,5.17s-2.13-.16-2.85,1c-1.51.68-2.29,0-2.58-1.45.51-.84,1.25-.78,2.12-.47-1.83-.94-3.64-1.73-5.35-2.75-5.49-4.22-9.79-8.84-10.07-16.58-.25-6.79-.9-13.41,1.43-20,1.31-3.72.88-7.89,2.43-11.61C159.51,21.47,161.46,17.7,161.53,13.55Z"/><path class="cls-111" d="M168.77,76.79a2.66,2.66,0,0,0,2.41,1.64c-1.35,1.42-2.73.66-4-.08-4.71-2.82-8.33-6.9-11.53-11.2-4.82-6.48-4.65-14-3.32-21.57.94-5.44,3.95-10.37,3.73-16.09-.08-2,2.15-2.53,3.07-3.93a40.62,40.62,0,0,1-2.25,15.22c-1.56,4.51-1,9.18-.73,13.81,0,.38.38.77.34,1.13-.89,8.26,4.35,13.1,9.87,17.79C167.17,74.61,168.63,75.22,168.77,76.79Z"/><path class="cls-112" d="M232.1,187.38c-2,.13-3.22.91-3.16,3.2,0,1.37-.79,1.92-2.3,1.76-1.9-.21-4.67,1.47-5.64,3.11-.65,1.1-6.66,2.34-7.67,1.51-2-1.62-.58-2.43.85-3.09,1.27-.59,2.76-1,.22-2,.49-.8,2.35-2.38-.38-1.89-2.3.42-4.33-.1-6.94-.1,1.66-2.18,2.93-3.49,5.7-2.49,2.24.8,4.74,1.83,7.17.15.73-.51,1.92-.85,1.36-2s-1.5-.57-2.34-.11a5.31,5.31,0,0,1-2.14.86,3.78,3.78,0,0,1-3.54-2.14c-.6-1.25.84-2.28,2-2.41,4.64-.52,4-2.62,1.83-5.38-.21-.28-.15-.76-.22-1.15a3.43,3.43,0,0,1,2.4-1.22c4.25-.73,6.27-4,7.84-7.13-1.59.46-3.11-.34-4.13-1.95s-.61-3.27.84-4.59c1.11-.75,2-1.87,3.52-1.89a2.05,2.05,0,0,1,2.33-.14c-2.64,3.22-2.34,4.9,1.11,6.24,1.09.43,2.37.52,3.18,2.1-2,.76-4,1.62-3.27,4.5.24.93-.74,1.93-1.59,2.63a4.84,4.84,0,0,0-2.23,3.88c-.07,1.26-.94,1.42.77.89a9.09,9.09,0,0,1,3.13-.14c4.17.22,5,1.49,3.55,5.28C233.8,185.07,233.38,186.49,232.1,187.38Z"/><path class="cls-112" d="M230.52,157.76c-1.9-1.12-2.93-3-4.25-4.66-2-2.47-.89-3.44,1.71-3.78,2.89,1.51,5.2,3.76,7.87,5.85C234,156.43,232.64,157.83,230.52,157.76Z"/><path class="cls-113" d="M146.46,312.05c-.43-5.18-2.75.42-3.89-.69.58-3,3.78-5,3.29-8.48,0-.18.36-.4.43-.64.4-1.27,3.66,1.08,2.58-2-.57-1.64-1.73-1.82-3.18-1.3-.09-.33-.35-.78-.23-1,2-3-.07-4.14-2.17-5.58s-.9-3.85-1-5.87c-.15-3.31-.1-6.55,1.75-9.51.5-.81,1.1-2.16,1.89-1.42,2.56,2.42,3.31.68,4.17-1.4,0-.09.74.09,1.13.14l0,.11c1.26,1.49,2.35,3.06,2,5.24,1.84-.52,2.18-3.33,4.48-2.18a3.68,3.68,0,0,1,.63,2.78,8.7,8.7,0,0,1-.17,1.14c1.13,4.75.61,9.55.44,14.34a22.51,22.51,0,0,1-.62,6.33c-.63,2-1.92,3.73-1.86,6.47-3-2.1-1.37-5.15-2.82-7.47-2.08,2.41-2.8,5.23-4,7.79C148.73,310.2,148.7,312.15,146.46,312.05Z"/><path class="cls-114" d="M140.07,304.75,134.7,308c-.23.13-.45.28-.67.42-2.78-4.34-8.25-.4-11.33-3.9-.09-.11,2.7.74,3.71-.59,5.75,1.7,10.71,0,16-3.68C141.48,302,140.78,303.37,140.07,304.75Z"/><path class="cls-115" d="M129.47,265a4.9,4.9,0,0,1,5.57,1.63,6.49,6.49,0,0,0,3.49,2.34c1.27,2.33.87,3.35-1.92,2.45l-9-2.95C127.55,266.8,129.78,266.62,129.47,265Z"/><path class="cls-55" d="M198.44,192.75c-5.68,2.26-10.89,0-15.9-2.09a62.3,62.3,0,0,1-15.26-9c-5.09-4.15-8.86-9.07-8.89-16.05,0-7.87,5-12,11.28-15.12a1.86,1.86,0,0,1,0,2.55c-3.29,3.17-2.45,7.53-3.47,11.35-.37,1.37.28,1.95,1.4,2.33,1.69,1,2,2.6,1.72,4.39,1.24,2.76,3-.36,4.41.39a4.62,4.62,0,0,1,3.36,2.86c-.21,2-1.59,3.6-2,5.84,2.71.75,5.82-.41,8.33,1.38a4.23,4.23,0,0,1,.93.63c1.66,1.66-.63,2.37-1,3.62,2,1.18,3.78.57,5.72,0,3.12-.94,4.79.77,3.84,3.9-.44,1.45.33,1.6,1.27,1.8,1.11.24,2-.58,3.05-.71C198.47,190.94,199.16,191.44,198.44,192.75Z"/><path class="cls-67" d="M167.32,167c-3.72,1.24-2.47-1.57-2.31-3.06a27.49,27.49,0,0,1,4.66-13.54c1.93-1.43,3.25-4,6.28-3.44a1.12,1.12,0,0,0,.9-.62c.33-5.13,3.9-4.38,7.26-4,.51,0,1.16.19.9.8a2.76,2.76,0,0,1-2.74,1.69c-1.58-.17-2.06.83-2.19,2.13-.38,3.59-1.49,4.61-5.12,4-1-.18-1.21-.07-1.77.66-2.87,3.78-5.32,7.68-4.94,12.71A3.65,3.65,0,0,1,167.32,167Z"/><path class="cls-116" d="M212.1,192.92c-.9,1.26-4.49-.34-3.32,3.13-4.22,2-7.34.61-9.68-3.16.81-1.39,1.15-3.26,3.3-3.31C204.48,194,208.64,192.47,212.1,192.92Z"/><path class="cls-37" d="M202.4,189.58c-1.44.76-1.06,3.35-3.3,3.31l-.66-.14c-.09-1-.56-1.55-1.63-1.44-2.66-2.59-2.38-3.13,2.31-4.57,1.69.19,3.24.56,3.35,2.71Z"/><path class="cls-117" d="M202.47,189.45a5.63,5.63,0,0,0-3.45-2.16c-2.26.85-3.75.22-4.59-2.15a5.31,5.31,0,0,0-3.9-3.64c-4.13-.77-6.7-3.44-8.94-6.65-2.24,2.46-2.42,2.45-4.88-.39l-3.12-2.62c-.9-.59-.77-1.88-1.68-2.48-1.39.17-1.15,3.81-3.6,1.7,1-1.67.1-2.87-1-4l.06-3c1.43-.31,6.18,2,7.94,2.34,3.28.72,5.87,3,9,3.59,3.78.71,6.55,2.29,8.5,5.67-.16-6.1-.23-12.06-2.24-17.77-.38-1.09.22-1.38,1-1.73,3.85-1.71,4.11-3.7.9-6.6-.6-.54-1.4-.76-2-1.27s-1.16-1.44-.77-1.59c2.29-.92,2.18-4.89,5.54-4.29,1.44.62,2,.63,3.05-.72,2.53-3.18,5.62-3.46,9.11-2,2.83,1.18,3.89,2.51,2.47,6.05s-3,7.14-4.59,11a7.06,7.06,0,0,0,2.15,0c1.32-.5,2,.21,2.61,1.15.75,1.24-.05,1.92-1,2.57-2.9,2-3.17,3.72.06,5.91a5.51,5.51,0,0,1,2.29,5.72c-.69,2.38-.27,6.18-5.21,5.35,1.62,1.79,2.73,3.06,3.91,4.28.82.85,1.2,1.66.51,2.82-.9,1.5-1.65.42-2.61.09-2.43-.82-4.95-1.58-3.16,2.74C205.72,189.52,203.16,188.61,202.47,189.45Z"/><path class="cls-118" d="M195.2,142.39c-.75.52-2.21,1.2-2.14,1.52.65,2.71-1.38,2.48-3.32,2.71,1.6,1.84,3.78,1.88,5.11,4a6.31,6.31,0,0,1,.7,5.78c-.71,2.2-2.85-.32-4.2.56,1.77,2.14,3.21,15,1.83,16.64.73.58,1.88-.6,2.57.84-1.05,1-3.27,1.11-3,4.53-1.88-5.45-4.38-8.2-9.2-7.82a2.65,2.65,0,0,1-2.64-1.46c-.55-1-1.39-2-2.47-1.62-4.12,1.6-4.68-1.77-5.88-4.1-.25-.48.26-1.24-.87-1.2-.85,0-.83.31-1,1.09-.83,3.06-2.08,2.27-3.26.14-.8-4.71,1.34-8.46,4.25-11.74.86-1,.55-1.9,1-2.72.31-.58,1.12-2.12,1.82-.46,1.14,2.69,2.47.62,3.74.41,2.4-.39.82-1.42.74-2.61-.1-1.56,1.31-2.83,3.34-2.1-.58.34-1.28.75-1.12,1.46s.83.29,1.27.15c.73-.25,1.44-.57,2.12-.84,1.4,1.35-.78,2-.42,3.16,3.29-.56,4.59-3.5,6.52-5.47C192.2,141.69,193.33,141,195.2,142.39Z"/><path class="cls-119" d="M225,160.61c-1.49.8-2.21,2.09-1.45,3.62,1,2,3.18,2.1,5.05,2.3-2.39,4.92-5.12,9.44-11.69,8.71-.38-1.15-2.29-1.64-1.36-3.37,1-1.92,2.17.35,2.84-.05,1.43-.85,2.15-3.54,4.43-1a4.77,4.77,0,0,0,.23-1.05c-3.51-1.79-4.37-4.58-3.86-8.39.12-.88-2.11-2.08-3.26-3.13-.52-1.07-.68-2,.75-2.49,2.41,1.82,5.34,2.35,8.16,3.15A1.46,1.46,0,0,1,225,160.61Z"/><path class="cls-120" d="M216.69,155.92c-.27.77-.53,1.54-.8,2.32-3-1.84-1.2-3.6.28-5,1-1,2.51-1.39,3.79-2.06,4.87,0,6.42,3.36,7.38,7.31-.79.72-1.2,1.86-2.38,2.15,0-.46-.07-.92-.1-1.37C223.23,154.32,222.55,154.05,216.69,155.92Z"/><path class="cls-58" d="M184,298.38c.73,1.29.83,3.25,3.24,2.55a2.23,2.23,0,0,1,2.56,1.51,6.33,6.33,0,0,0,3.74,3.72c2.05.93,1.48,3.18,1.71,5-.12.94,0,2-1,2.6a3.63,3.63,0,0,1-3.58-1.33c-6.88-7-14.68-13.13-20.39-21.27-3.95-5.18-8.41-10.1-8.73-17.12-.26-5.69,1.28-11.06,3-16.4.78-2.36,1.63-4.66,4-6,2.11.15,1.54,1.68,1.48,2.92a64,64,0,0,1-2.85,14.52c-.22.75-.83,1.4.19,2l.65.08c1.89,1.05,1.61,2.92,1.6,4.59,0,1.48-.19,3.09.67,4.26,3.35,4.56,5.25,10.2,10.09,13.64C182.06,294.85,183.85,296,184,298.38Z"/><path class="cls-121" d="M171.26,291.05c3.31,3.71,6.17,8,10,11,4.66,3.6,7.76,8.83,13,11.71a3.43,3.43,0,0,0,3.27,1.51l3.36,3.79c-6.45-1.83-11.91-5.46-17.25-9.35-7.53-5.5-13.84-12.31-20.42-18.84-.93-.92-1.71-2.09-3.25-2-.74-2.69-2.9-4.93-2.46-8l.29,0c1.76-2.11,2.84-.55,4.11.67C165.15,284.59,167.6,288.4,171.26,291.05Z"/><path class="cls-122" d="M27.18,483.94c-1.37-.79-2.52-.77-3.22.89A5.85,5.85,0,0,1,21,486.71a1.26,1.26,0,0,1-1-.22c-1.45-1.43,0-2.42.61-3.43,1.64-2.66.88-6,2.46-8.63.61.31.91,1,1.44,1.35,1.53,1.11,2.78.27,3.92-.69.69-.58,1.74-1.26,1.29-2.25-.66-1.46-2.22-1.15-3.51-1.2-1,0-2.13.42-3-.43l-.87-.8,1.63-.92c1-1.08,2.42-.83,3.58-1.37s2.7-.78,3.66-1.92a23.92,23.92,0,0,1,4.1-13c.8-.95,1.74-1.86,3-1.09,1,.62.88,1.86.7,2.91-.37,2.22-1.08,4.37-1.39,6.61-.12.87-.72,1.93.25,2.56s1.78-.13,2.6-.5A31.66,31.66,0,0,0,51,456a13.24,13.24,0,0,1,4.2-3.6c2.61-.06,3.16,1.18,2.15,3.4-1.8.87-2.34,3.06-4.11,4A34.44,34.44,0,0,1,40.87,469c-3.9,1.7-2.78,5.26-3,8.57,1-1.45,1.16-3.87,3.34-3.31s2.07,2.53,1.83,4.32a49.57,49.57,0,0,0-.7,6c.4-.8-.17-2.29.91-3.27.9-.8,1.88-1.84,3.11-1.12,1.07.63.81,1.92.37,2.91A33.12,33.12,0,0,1,41,492.1c-1,1.06-2.24,2-2.12,3.67l.09,1.08c-1.39,5-5.54,8.13-8.35,12.17l-.89-1.09c-.56-3.23,1.18-5.91,2.33-8.65,1.46-3.46,2.17-6.66.51-10.32-1.13-2.49-1.16-5.41-1.92-8.1C28.39,480.88,28.63,483.32,27.18,483.94Z"/><path class="cls-123" d="M60.85,472.93a1.46,1.46,0,0,1-.23.61c-.17,1,.15,1.68,1.16,1,1.8-1.28,4-1.82,5.72-3.19,1.67-1.11,3.06-2.7,5.21-2.94.83.15,1.43,1.55,2.53.24.9-1.07,2.37-1.44,3.52-2.21,3.31-1.86,5.27-5.62,9.22-6.57.53.54.15,1-.2,1.36-8.06,8.61-17.3,15.23-29.28,17.17-4.43.75-6.27,4.63-9,7.4-1.1,1.11-1.63,3.27-4,2.32.27-6.89,4.44-11.27,9.62-15,.34-3.43-1.48-6.59-1.07-10.07.25-2.08.67-3.84,2.45-5.08,2.19-3.22,1.4-7.6,4.17-10.59.44-.47.64-1.16,1.06-1.67.76-.91,1.49-2.07,2.89-1.66,1.14.33,1.36,1.54,1.67,2.53a5.59,5.59,0,0,1,.07,3.14c-.2,1.77-2.89,1.53-2.83,3.51a22,22,0,0,1-.38,4.86c-1,3.31,0,6.75-.69,10.09A20.6,20.6,0,0,1,60.85,472.93Z"/><path class="cls-124" d="M45.61,488.23c3.28-2.09,4.66-5.92,7.67-8.28,1.61-1.26,3.07-2.37,5.22-1.59-2.33,2.13-5.2,3.82-5.84,7.31-.92,2.58-3.37,3.95-4.81,6.11-.78,1.16-2.17,2-2.17,3.62-1.87,2.3-4.68.14-6.75,1.44a1.52,1.52,0,0,1-.7-.08C38.75,492.23,42.13,490.18,45.61,488.23Z"/><path class="cls-125" d="M45.68,495.4c-1.13-1-.41-1.82.23-2.69a36.91,36.91,0,0,1,6.75-7c2,1.16-.83,2.12-.15,3.25,3-1.29,5.71-3,8.56-4.55C56.49,488.84,51.08,492.12,45.68,495.4Z"/><path class="cls-16" d="M40.81,505.6c-1.2,1.84-4.38,2.84-2.31,6.09.35.55-1.1,1.63-2.2,1.82s-2.21.6-3-.32.43-1.59.78-2.37c.21-.48.42-1,.64-1.44a2.33,2.33,0,0,0,.38-.26c1.68-1.95,2.21-4.8,4.79-6C40.22,503.92,40.51,504.76,40.81,505.6Z"/><path class="cls-59" d="M39.93,503.09c-1.84,1.81-2.59,4.49-4.79,6,1.09-3.84,3.76-6.83,5.52-10.36C41,500.35,39.32,501.51,39.93,503.09Z"/><path class="cls-126" d="M79,285.38c-3.72,3-5.38,7.67-8.64,11.21-2.34,2.55-2.53,7.62-2,11.73.32,2.62-.15,5.79,3.23,7.13.45.18,1,.56.69,1.23-1.54,3.82,1.18,3.31,3.39,3.37.91,0,1.81.17,2.72.27a2,2,0,0,1,.49,1.7c-1,3.13-.59,6.82-3.33,9.35-1.74-4.72-6.57-4.2-10.06-5.94-.56-1.27,4.1-2.28.18-3.73.38-1.24,1.16-2.47-.1-3.69-3.52-3.41-4-8-3.79-12.36a21.19,21.19,0,0,1,6.47-14.22c2.09-2,3.79-4.37,6-6.35a40.6,40.6,0,0,1,9.11-5.77c1,1.46.24,2.34-1,3l-.78.71A3.53,3.53,0,0,1,79,285.38Z"/><path class="cls-31" d="M82.29,282.34a4.51,4.51,0,0,0,1-3c1.75-1.24,2.73-3.64,5.37-3.55-.09,1.48-.61,3.08,1.81,4.29C86.41,277.83,85.08,282.23,82.29,282.34Z"/><path class="cls-35" d="M157.54,280.81c.11,2.88,3.36,4.79,2.46,8-1.94,4.33.47,7.77,2.32,11.32.53,1.5,1,3,1.59,4.48.4,1.05,2,2,1.07,3.09-.75.94-2.3.45-3.42.2a39.59,39.59,0,0,1-4.65-1.67c-.33,3.58-.64,7.11-1,11.52l-1.44-4.27c-1-1-.89-2,.27-3.39-1.57,1.71-.91,3.72-1.92,5.14v-.06c-3.79,2.57-5,7.54-9.8,10.24,1.25-4.79,2.36-9.07,3.48-13.34,2.28-2.95,3.06-6.61,4.54-9.93.67-1.51,1.24-2.8,2.87-2.66,2,.17,1.18,2,1.28,3.18.13,1.43,0,2.89,0,4.72,3-5.84,1.81-12.06,3.59-17.71a2.18,2.18,0,0,0-.55-2.13A6.66,6.66,0,0,1,157.54,280.81Z"/><path class="cls-127" d="M145.45,367l1.86-5.33,7.63-11.1c-1.32,4.86-3.89,9-5.37,13.62-.3.93-2.51,2.74,1,2.79,1.14,0,0,1.62-.43,2.13-3.64,4.51-4.27,10.72-8.5,14.87a4.84,4.84,0,0,1-2.6,1.54c-4.12-.77-4.36-1.1-2.84-5.08,1.84-4.81,2.89-9.89,5.07-14.57a4.07,4.07,0,0,1,1.33-1.9c1.92.45.24,2.5,1.49,3.2v0c1,1.23,0,2.29-.32,3.4C144.36,369.33,144.87,368.13,145.45,367Z"/><path class="cls-128" d="M171.26,291.05a1.62,1.62,0,0,1-2.65-.57c-2-3.51-5.72-5.5-7.76-8.93-.89-1.51-1.9-1-3-.72l-.36-3.24c-2.63-2.68-4-6.06-5.21-9.52,4.25-2.13,3.35-6.65,4.4-10.11,1.14-3.77,1.72-7.72,3.92-11.08s4.78-5.9,9-6.14c.41,1.86-.75,3.48-.79,5.27,1,2.09-.41,3.68-1.11,5.43-.79,2-2.54,3.57-2.24,5.94-.78,3.32-1.58,6.63-2.33,9.95-1.92,8.59,1.41,15.49,7,21.69A10.56,10.56,0,0,1,171.26,291.05Z"/><path class="cls-35" d="M152.26,268.07c2.55,2.73,4,6.08,5.21,9.52-1.67.17-1.77,1.75-2.49,2.77-.47.68-1.06,1.3-1.93.8a4.41,4.41,0,0,1-1.24-1.33c1.81-2-.78-3.6-.54-5.42,1.43.55,1.62-.31,1.35-1.34A10.48,10.48,0,0,1,152.26,268.07Z"/><path class="cls-129" d="M69.7,434.5c-.23-1.06-.43-2.32.32-3.08,6.54-6.53,7.68-16,12.68-23.34,1.86-2.74,3.25-5.83,7-6.43a44.09,44.09,0,0,0-3.1,33.83,4.78,4.78,0,0,1-.68,3.74c-3.48,4.24-6.94,8.5-10.48,12.68-.37.44-1.08,2.63-2,.2a2.2,2.2,0,0,1,0-1.94C76.36,446,77.35,441,79.93,437c-2,1.33-2.78,3.52-3,6a6.48,6.48,0,0,1-1,3c-.71,1-1.51,1.93-2.9,1.68s-1.85-1.44-1.93-2.67a38.35,38.35,0,0,1,.37-9.92C72.09,431.55,69.91,435.79,69.7,434.5Z"/><path class="cls-130" d="M91.87,412.1c2.09.63,1.26-1.57,1.84-1.93,5.58-3.48,2.52-9.27,3.63-13.85a141.4,141.4,0,0,1,4.4-14c.33-1,1-2.05,2.28-.83q-2,10.16-3.36,20.42a27.58,27.58,0,0,0,.2,8c.35,2.22.75,4.5-.56,6.59-3.07-.07-2.32-3.2-4-5.12a13.63,13.63,0,0,0,3.2,5.6c1.56,1.5,2.58,3.13,1.4,5.34-2,4-5.52,6.85-8.13,10.4-1.15.73-2.41,1.66-2.44-.82,0-1.28.12-2.56.19-3.84,1-3.93-.48-7.9.23-11.84C91,414.8,90.79,413.28,91.87,412.1Z"/><path class="cls-131" d="M91.87,412.1c.52,5.4-.48,10.68-1.38,16v-5.83c-1.77,1.64.08,4.11-2.59,5.63-.73-6.93,1.42-13,3.25-19C91.53,409.89,90.89,411.17,91.87,412.1Z"/><path class="cls-132" d="M165.46,257.38c-1.14.64-1.37.41-.87-.81,1.44-3.51,2.82-7,4.22-10.57a10.73,10.73,0,0,0,2.76-4.66c.78,2-.69,3.5-.28,5.09l-.22.82c-.89,1.51-.07,3.81-2.21,4.73Q167.15,254.68,165.46,257.38Z"/><path class="cls-133" d="M144.09,367.13c-1.17-.34-.7-1.6-1.41-2.46-2.27,6.6-4.49,13.08-6.71,19.54,2,.67,2.38-1.11,3.59-1.27.66,1-.58,1.66-.52,2.55-.38.5-1.19,1.25-1.06,1.48.63,1.16,1.52-.44,2.61.24-2.7,2.54-7,2.54-9.06,5.84,4.29-.81,7.82-3.31,11.7-5A4.38,4.38,0,0,1,141.7,392c-1.78.34-3.14,1.5-4.67,2.33-2.48,1.24-5.08,2.22-7.34,3.9-.82.61-1.48,1.11-.92,2.23.69,1.74-.32,2.67-1.57,3.61-1.92,1.45-4.28,2.12-6.16,3.62-.77.62-1.66,1-2.52.37s-.82-1.86-.48-2.92a3.91,3.91,0,0,1,.71-1.41c3.13-3.33,3.1-6.81.56-10.43a1.11,1.11,0,0,1,0-1.45c1.18-1.55.52-3.32.53-5,0-7.78.09-15.54,3.29-22.86A3,3,0,0,1,124,367c-1,8.05.85,16.1.28,21.36.48-5.56-1.27-13.91-.22-22.26.17-1.33-.87-3.33,1.65-3.64V370c2.85-3.28,1.89-7.08,2.91-10.33.61-1.94.39-5.41,2.34-5.25,2.14.18.58,3.35.88,5.17A37,37,0,0,1,132,364c-1.85,0-1.45-1.46-1.6-2.42.64,7.67.32,15.5.63,23.31-1.35,2-2,.31-2.42-.62a14.9,14.9,0,0,1-1.44-7.06,44.86,44.86,0,0,0,1.32,10.48c.1.41.06,1.23.82.94.43-.16.46-.89.76-1.33,3.89-4.2,5.62-9.46,7.35-14.74,1.13-3.46,1.35-7.31,4.14-10.1C144.69,362.79,143.65,365.35,144.09,367.13Z"/><path class="cls-134" d="M136.77,393.58c1.55-.8,2.68-2.94,4.92-1.57a67.35,67.35,0,0,1-25,19.16l-1.62-.6a1.26,1.26,0,0,1,0-1.12,3.34,3.34,0,0,1,.67-1.36c-2.91,4.33-6.26,8.2-11,10.66-1.79-1.22-.22-2.36.07-3.54,1-1.74,1.48-3.7,2.41-5.46.62-1.16,1.21-2.56,2.77-2.52.75,0,1.23.86.54-.59-3.94-8.27-3.58-16.69-.55-25.13a6,6,0,0,1,1.22-1.57c.52-.31.61-1.51,1.63-.77,1,2.93-.15,6,.69,9,.46,3.11.92,6.22,1.42,9.64,1.46-1.26.47-3,1.14-4.25s.79-3.86,3.3-1.72l0,0c4,4.84,4.07,7.15.45,12-.77,1-1.59,2.11-1,3.94,2.82-1.64,5.53-3.3,8.33-4.78,1.53-.81.75-2,.81-3.06,1-2,3.35-1.19,4.8-2.25S136.11,395.59,136.77,393.58Z"/><path class="cls-135" d="M69.7,434.5c1.09-1,.6-3,2.61-3.63,1.1,2.14,0,4.27-.07,6.37-.08,2.52-.17,5.05-.16,7.57,0,.85-.26,2.1,1,2.27a2.38,2.38,0,0,0,2.51-1.6,1.26,1.26,0,0,0,.13-.37c.35-2.22.1-4.48,1-6.67s4.22-1.52,4.55-4.29c-1.65,6.45-5,12.08-7.75,18-2.41,0-2.25,2.12-2.74,3.61-.19.58.25,1.44,0,1.89-3.25,5.14-6.58,10.23-9.88,15.33.67-5.13.19-10.38,1.55-15.45.82,1.55.23,3.18.4,4.8-.23-3.57.14-6.81,3.81-8.73,1.74-.91,1.49-2.57.81-4.18a59,59,0,0,1-3.48-10.09c-.25-1.11-.95-2.27.2-3.31,1.38-3.65-1.19-6.79-1.37-10.26-.1-1.94-.92-3.85.28-5.7.21.62.18,1.37,1,1.67.83.88,1.61.7,2.38-.08,2.31-2.36,4.88-4.48,6.34-7.55,2.3-.66,1.08,1.07.87,1.54a20.85,20.85,0,0,1-6.67,8.71c-2.37,1.72-2.7,3.49-1.86,6.07.93,2.84,1.52,5.79,2.25,8.69.34.52.94.83,1.19,1.5.94-1.16.43-2.65,1-3.85Z"/><path class="cls-135" d="M66,470.49c1.49-.65,1.35,1,2,1.46-2.31,2.26-5.8,2.28-8.19,4.77-1.08-1.72-.14-2.44.73-3.17C63.2,473.9,64,471.07,66,470.49Z"/><path class="cls-136" d="M105.6,416c.17,1-1.93,1.27-.74,2.53-.33,1.43-.71,2.82-2.49,3.1l-1.5.74-1.65-5.55,0,0c1.37-2.22.79-4.63.47-6.93-1.29-9.27,1.65-18,3.06-27,.08-.51.86-.91,1.31-1.36l0,0c1.32,4.32.5,8.63-.1,12.93a48.28,48.28,0,0,0-.19,11.08c1.56.43,3.24-1.56,4.44.34,1,1.52-.34,2.74-.83,4.06C106.65,411.93,105.44,413.74,105.6,416Z"/><path class="cls-51" d="M102.37,421.58l2.49-3.1c4.46-3.88,9.27-7.44,11.59-13.73,1.08,2.71-1,4-1.4,5.81-3.32,4.59-8.58,7.25-11.88,11.88C102.8,423,102.52,422,102.37,421.58Z"/><path class="cls-2" d="M51.22,110.05c.15-.57.14-.74.22-.82,1.21-1.32-.51-4.58,1.93-4.42,1.85.11.93,2.91,1,4.5a4,4,0,0,0,1.7,3.32,1.54,1.54,0,0,1,.23,2.43c-1.16,1.14-1.57-.15-2-.87C53.42,112.59,50.45,112.34,51.22,110.05Z"/><path class="cls-2" d="M66.38,107c0,2-.36,3.81-2.23,4.68a1.1,1.1,0,0,1-1.44-1C62.91,108.59,64.68,107.82,66.38,107Z"/><path class="cls-2" d="M59.21,105.44c.26-2.24.58-3.68,2.3-4.27.16,0,.71.44.71.69C62.23,103.52,61,104.26,59.21,105.44Z"/><path class="cls-137" d="M25.54,362.44c-.37,4.49-4.58,6.78-5.52,10.94l-.95-.22q-2-8.52-4.06-17.05l.81-.33c1.5,2.65,3,5.3,4.49,7.94.44.77.71,1.9,1.94,1.61,1-.24.82-1.22.89-2q.46-5.54.92-11.07c1.53,1.72.45,3.77.7,5.65C25,359.44,24.23,361.12,25.54,362.44Z"/><path class="cls-138" d="M44,354.24c0,.5.07,1,.11,1.5-4.05,3-6.65,7.68-11.51,9.68l-4.67,3.32c-1.73-1.56-.09-2.22.83-3.05,4.18-3.84,9.23-6.7,12.77-11.28C42.27,353.49,43.07,353.14,44,354.24Z"/><path class="cls-139" d="M34.54,351.19c-.84.54-1.69,1.07-2.54,1.6a51.24,51.24,0,0,1,6.09-14.69C38.14,343.49,35.27,347.05,34.54,351.19Z"/><path class="cls-83" d="M28.7,458.57c1.89,0,2.66-1.44,3.51-2.71s1.85-2.53,3.69-2.37a33.31,33.31,0,0,0-3.84,13.72c-2.49-3.44-3.61,1.49-5.63.93.53.24,1.26.05,1.6.71-1.2,1.14-2.65.66-4,.64-.56-.7-1.73-1-1.48-2.23,2.56-2.77,5.64-5,7.74-7.61C29.75,459.79,28.91,459.86,28.7,458.57Z"/><path class="cls-26" d="M18.3,464.76c.07-4.32,2.24-8.13,3-12.27a1.37,1.37,0,0,1,1.75-1.16c1.75.24,1.38,1.74,1.7,2.83C24.49,458.84,21.41,461.8,18.3,464.76Z"/><path class="cls-140" d="M28.7,458.57c.73.75,3.13.62,1.09,2.73-2.22,2.29-4,5-7.28,6-.24-4.15,2.24-6.6,5.38-8.64Z"/><path class="cls-141" d="M24.79,454.16c-1.36-.46-.86-2.05-1.7-2.83a3.08,3.08,0,0,1,0-2.54l1.76-.12,1.7,1.13A8,8,0,0,1,24.79,454.16Z"/><path class="cls-142" d="M7.89,503.09c1.08-1.17,2.82-1.21,3.42-.27,1.1,1.74-.85,2.88-1.73,4.19-.11.16-.16.56-.06.65s.47.12.72.17C8.92,510.47,7.14,512.55,4,513l.71-1.86c.85-2.5.14-6.2,4.63-5.91.27,0,.9-.82.83-1.15C9.9,502.73,8.71,503.28,7.89,503.09Z"/><path class="cls-143" d="M27.18,483.94a15,15,0,0,1,.54-2.7c.57-1.42,1.81-2.72,3.2-2.6,1.79.15,1,2.06,1.22,3.25s-.07,2.85.54,3.89c4.84,8.22-.48,15-3,22.16-.53.35-1.11,1.06-1.59,1-1.13-.13-.77-1.19-.66-1.87.85-5.43.37-11.07,3-16.22,1-2,1.58-4.39-2-5C27.91,485.8,27.59,484.62,27.18,483.94Z"/><path class="cls-83" d="M18.33,499.86c1.38-3.64,2.7-7.3,4.15-10.91.75-1.87.21-2.7-1.75-2.72a4.36,4.36,0,0,1,3.23-1.4c0,1.44,0,2.89.08,4.32C24.46,494,22.29,497.39,18.33,499.86Z"/><path class="cls-144" d="M32.58,365.42c2.71-2.66,5.45-5.29,8.1-8a4.71,4.71,0,0,1,3.41-1.67c2.1.61,3.49-.81,5.29-2,.08,3-2.9,4.3-3.29,7-.22,1.53-1,2.49.78,3.37.42.21.67.81,1,1.25.85,1.31.48,4.27,2.72,3.56,1.66-.53.31-3.08.45-4.72.3-3.66-.54-7.61,3.13-11.21v7.95c2.08-3.85,2.23-7.48,5.1-9.59,1.67,1,.58,5.17,3.74,3.77,1.7-.75.87-4.09,3.06-5.5,1.35,1.47,2.25,4.25,5.1,2.26.31.27.62.68.5,1-2.29,6.49-2.36,13.63-5.81,19.78-.56,1-.9,2.7-2.26,2.39-1.64-.37-1.41-2.14-1.06-3.37,1.28-4.48,1.81-9.12,2.59-12.29a63.21,63.21,0,0,0-4.36,18.71c-.11,1.85-.37,3.46,2.1,3.9,2,.36,1.76,1.65.89,2.95-2.29,3.45-5.67,3.36-8.48.41a37.69,37.69,0,0,1-9-14.39c-.4-1.24-.42.46-.8.31l-1.38-.09c-1.9-1.36-1.37-3.14-.83-4.91,0-2.94-1.45-3.36-3.82-2.13a19.83,19.83,0,0,1-5.87,2.2Z"/><path class="cls-145" d="M45.44,371.28c-.29-1.11-1-2.18-.29-3.72,1.71,3.26,3.62,6.14,4.78,9.3,1.5,4.07,6.21,5.65,7.2,10,.16.69.94.92,1.6.36,1.58-1.34,4.05-1.5,5.12-4-1.46-.37-3.33.62-4.23-1s.11-3.1.16-4.65c.26-8.09,2.86-15.48,6.75-22.56-1.18,6.42-1.3,13-3.42,19.3,5.45-6.54,4.61-15.18,8-22.36,2-6.76,2.94-13.75,4.15-20.68q1.56-4.87,3.13-9.77c2.87,1.29,1.54,3.52,1.06,5.4-1.22,4.79-2.42,9.74-1.79,14.54a15.92,15.92,0,0,1-1.59,9.24c1.44-1.12,2.83-1.82,2.86.87,0,1.81-1.47,3.09-2,4.73a6.06,6.06,0,0,1-.55,1A27.25,27.25,0,0,0,70,367.67c1.72.36,3.76.61,4.55,2.33s-.73,3.3-1.86,4.51a14.9,14.9,0,0,0-3.86,7.09c-1,4.16-4.65,6.63-8,8.94,1.74-.52,3-2,4.69-2.77,1.05-.52,2.48-1.77,2.89.71-.83,2.73-3.13,4.11-5.47,4.84-2.75.86-5.57,1.45-8.28,2.55s-3.12-1.09-3.61-3c.43-5.65-2-10.37-4.84-15-1.1-1.16-2.73-.77-4-1.35-1.06-.49-2.78-.13-2.82-2.05,1.66-.1,3.33-.14,5-.33C46.44,373.94,46.53,372.8,45.44,371.28Z"/><path class="cls-17" d="M39.35,374.53c2.36,1.67,5.36.88,7.86,2-.94,1.59-2.56,1.09-4,1.27-1.16.15-2.29.36-1.74,1.9.68,1.88,1.88,3.55,2.49,5.45.85,2.64,2.78,2.2,4.83,2.15,1.69,0,2.53,1.2,1.55,2.7a3.69,3.69,0,0,0,0,4.42c.46,2.37,1.27,4.82-1.33,6.56A19.23,19.23,0,0,1,43.36,392c-.59-1.77-1.18-.86-1.93-.85-.8-4.95-4-9-5.37-13.69a13.57,13.57,0,0,1-1.14-1.31A4.47,4.47,0,0,1,39.35,374.53Z"/><path class="cls-145" d="M43.23,366.28c1.47,1.44-.15,3.39.83,4.91L39,371a2.24,2.24,0,0,1-2.27-1.82c-.43-1.8,1.31-1.3,2.05-1.63A32.16,32.16,0,0,1,43.23,366.28Z"/><path class="cls-146" d="M87.15,387.17c-2,4.77-6.55,6.53-10.63,8.73-2.66,1.44-5.54,2.47-8.3,3.72-.7.31-1.68.61-1.6,1.53.07.71.4,1.73,1.27,1.83,4.4.53,1.39,2.41.44,3.28-2.33,2.12-5.13,3.74-6.79,6.56-1.3-.11-2,.71-2.49,1.73a3,3,0,0,1-2,1.72c-2.46.64-3.67,2.43-4.27,4.7s-1.58,4.14-2.34,6.23V428c-.13.13-.25.27-.37.4-.86.8-2.5.11-3,1.57a7.8,7.8,0,0,1,.22,1.25c-.92.7-2.08,1.16-2.8.09s-1.06-2.72-.18-3.77c3.77-4.51,5.84-10.43,11.41-13.48a23.24,23.24,0,0,0,8.11-7.54c.77-1.15,2.34-2.44.93-4.21-1-.75-2.39.44-3.21-.83,3.1-3.44,7.89-3.25,11.65-5.41C78,393.31,82.82,390.66,87.15,387.17Z"/><path class="cls-147" d="M55.35,452.9c6.5-5.25,8.8-16.82,4.64-23.34l1.22-2.87c1.76,3.07,1.62,6.42,2.93,9.28,1.35,4.64,2.15,9.46,4.64,13.72.92,1.58,1.53,3.43-.68,4.34-4.17,1.72-5.36,5-5.7,9.08v-5.63l.06-5.26c.26-.37.75-.43.9-.12,1.3,2.62.9-.22,1.25-.42a2.4,2.4,0,0,0,.83-1.23c.68-2.18-.06-4.08-1.19-6.23-4.35,4.16-5.18,9.69-6.8,14.84-2.09-.63-1.4-1.86-.67-3.1C56.81,454.7,57.94,452.92,55.35,452.9Z"/><path class="cls-148" d="M48.94,400.81c1.27-2,.89-4.21.64-6.38.49-.89.85-1.94,2.2-1.69.5,2.2,1.33,2.58,3.78,1.84,4.68-1.42,9.6-2,12.53-6.64.49-2.11,1.22-3.83,3.87-2.3-2,2.08-1.87,5.78-5.16,7-1.09.4-2.21,1.62-3.13,1.45-5.43-1-5.66,3.73-7.57,6.6-1.75-1.63-3.42-2.08-5.22,0-.44.51-.93,1.81-2.12.86A.47.47,0,0,1,48.94,400.81Z"/><path class="cls-149" d="M48.94,400.81l-.18.75a2.52,2.52,0,0,0-.67,2.89c.89,3.12,1,3.09-1.26,6-1.1-4.54-2.63-8.56-3-12.9-.94-1.17-1.16-2.76-2.22-3.87l-1.8-1.91c.36-.65,1-.68,1.62-.69,1.06,0,.78-1.26,1.63-1.73C44.33,393.57,47.57,396.69,48.94,400.81Z"/><path class="cls-150" d="M41.61,393.71c4.06-.61,1.84,2.37,2.22,3.87-7.42-1.06-1.14,4.43-3.17,6.33a13.39,13.39,0,0,1-3.49-7.52C36.79,393.49,40.42,395.19,41.61,393.71Z"/><path class="cls-151" d="M47.26,431.23l-.83-.7c.41-2.29,2.74-1.57,4-2.54l0,0c2.18.05,3.72-1.79,6-1.71A15.68,15.68,0,0,1,47.26,431.23Z"/><path class="cls-152" d="M184,298.38a16.27,16.27,0,0,0-2.95-2.91,41.39,41.39,0,0,1-12.32-16.66c-1-2.36.45-5.19-.74-7.68,1.3-1.95,2.58-2.29,2.9.45a24.64,24.64,0,0,0,5.46,13.35c.75.89.48,2,.45,3.08-.07,1.81.73,3.68,2.34,3.66C184.24,291.62,183.78,295.15,184,298.38Z"/><path class="cls-152" d="M168.86,252q1.09-2.37,2.21-4.73c-.72,8-.08,16.25-3.73,23.8-2.23.2-2.36.14-2-.71,1.86-4.06,2.68-8.43,3.78-12.71C169.64,255.74,170.18,253.8,168.86,252Z"/><path class="cls-153" d="M72,385.64c-2.06-.54-2.82,1.13-3.87,2.3-2.26-.26-3.26,1.81-4.93,2.64-1.25.62-2.61,1-4.76,1.83,1.9-3.5,5-4.39,6.63-6.71,1.49-2.08,4-3.55,2.84-7-.4-1.17,1.71-2.15,2.63-3.24.59-.71,1.51-1.28,1.8-2.09.41-1.12,2.69-1.9,1.14-3.36-1.36-1.27-3.17-2.25-5.09-.12,2-4.86,2.75-10.18,7.63-13.18,2.69-.92,2.69-.92,3.24,0-1.34,2-.22,4.38-1.1,6.52-.58,1.44.57,1.75,1.85,1.34,1.08-.34,1.73-1.73,3.51-1.19.06,1.1-2.38,3,.52,3.61,1.17,1.95-.62,2.8-1.47,4s-.84,1.26.72,2.54c2-.84,3.26-2.6,5.22-5.05-.82,3.57.49,3.64,2.76,2.81C86.35,378.47,79.35,382.31,72,385.64Z"/><path class="cls-154" d="M105.6,416c-1.65-2.53.54-4.33,1.2-6.43.38-1.18,2-2.47.76-3.54-1.56-1.32-2,1-3,1.59-.56.3-1,.89-1.92.59-1.45-8.93,1.4-17.7,1.43-26.59,1.31,3.11,2.59,4.25,4.12.07.44-1.19,1.76-1.5,3-1.7A66.38,66.38,0,0,0,108.73,396c-.09,5.1,3.43,9.54,2.54,14.7-1.25-.78-.32-2.16-1.39-3.08C107.56,410,107.07,413.22,105.6,416Z"/><path class="cls-155" d="M141.58,362.43c-2.82,8.06-4.14,16.68-9.13,23.93-.59.86-.84,1.67-1.95.73a1.05,1.05,0,0,1-.1-1.62c-1.56-9-.65-18-.79-27.18,2.21,1.51.45,4.35,2.41,5.68,1.51,1.09.6,3,1.45,4.49,3.33-1.27,3.24-5.27,5.72-7.13.61-.44,1.13-1.48,1.92-1C141.53,360.63,141.44,361.72,141.58,362.43Z"/><path class="cls-156" d="M125.68,362.42c-1.72,3.1-.82,6.47-.86,9.71-.09,8,1.08,16.11-.95,24.15-.77-10.74-1.55-21.47-.69-32.27a3.47,3.47,0,0,1,2-2.92Z"/><path class="cls-157" d="M79.22,356.78c-1.1-1.09-1.46.25-2,.68-1.14.89-1.11,0-1.24-.71v0c3.35-5.53,6.07-11.39,9-17.11A21.61,21.61,0,0,0,87.3,333a2.11,2.11,0,0,1,.77-.88,3,3,0,0,0,.72-.22c1.23.78,1.9.21,2.45-.93a17.09,17.09,0,0,1,2.55-4,7.77,7.77,0,0,1-2.12,5.35c-4.12,4.71-4.79,11.1-8.13,16.16-.12.18.22.67.35,1C82.33,351.91,80.78,354.35,79.22,356.78Z"/><path class="cls-17" d="M72.72,414.05c-.75,4.23-4.07,6.6-6.94,9.15-1.73,1.54-1.64-.44-1.78-1.52C67.7,420,69.52,416.26,72.72,414.05Z"/><path class="cls-158" d="M83.25,373.61c-1.4,1.64-1.67-.26-2.27-.79-.94-.84.08-1.35.5-1.92.92-1.23,2.67-1.91,2.52-3.84.32-.6.85-1.24,1.49-.9,1.13.58.42,1.41.17,2.31C85.14,370.34,81.87,370.91,83.25,373.61Z"/><path class="cls-133" d="M145.45,367c.12,2.29-.41,4.23-2.76,5.55-.56-2.3,1.36-3.6,1.39-5.41Z"/><path class="cls-147" d="M69.5,436.71c.1,2.07.41,4.19-1.44,6.48-.31-1.73-.53-2.93-.75-4.13C69.24,439.4,68.52,437.26,69.5,436.71Z"/><path class="cls-154" d="M113.47,388.15c-1.09-2.92,0-6-.69-9C114.67,382,113.5,385.14,113.47,388.15Z"/><path class="cls-105" d="M152.78,315.21c.16-1.68-.24-3.51,1.42-5.07.08,1.24.16,2.28.23,3.32Z"/><path class="cls-133" d="M119.33,391.82c-1.88-.92-2.33.9-3.3,1.72a2.93,2.93,0,0,1,2.09-3.57C119.3,389.61,119.22,391,119.33,391.82Z"/><path class="cls-153" d="M88,332.76c0,6.31-4,11.05-6.7,16.26-1.4,2.73-2.64,5.79-5.28,7.76-.4-2.56,2.67-3.94,2.36-6.73-2.16.48-1.76,2.94-3.3,3.68-.17-.13-.52-.35-.5-.39,3.49-7.4,1.18-15.54,3-23.19.65-2.78,3-5.6.93-8.74,0-.36,0-.73,0-1.09l.06-1.12c.24-2.48.53-5,2.2-7,.78-.93,1.79-1.74,3.07-1.2,1.12.48,1.19,1.67,1.14,2.74-.15,3.2-1.25,6.18-2.19,9.19-1.06,4-2.44,8-3.46,12,.07.57.77-.09.25.06.17-2.38.23-4.83,3.49-5.07,2.06,1,1.91,2.67,1.31,4.41a46,46,0,0,0-1.81,5.76,18,18,0,0,0,3.23-5C86.19,334.13,86.28,332.65,88,332.76Z"/><path class="cls-159" d="M81.62,323.16c.76-3,1.56-6.07,2.25-9.13.18-.83.66-2-.39-2.47s-2,.61-2.41,1.54c-1,2-1.75,4.06-2.61,6.1.11-1.73-2-1.95-2.23-3.9-.72-5.61,3.5-4.61,6.91-5.59-3.48-.4-1.52-3.08-2.49-4.49-.32-.47.33-1,.88-1,1.58,0,1.4,1.74,2.59,2.86.15-3.14,4.54-2.53,4.5-5.9,0-.28,1.14.2,1.67.59a6.78,6.78,0,0,0,4,1.47c-.27,1.08,0,2.57-1.84,2.49-2.06.48-2.22,2.42-2.79,3.91a64.31,64.31,0,0,0-3.19,11.92c-.22,1.3-.19,2.7-1.54,3.49C83.15,325.68,82.23,324.7,81.62,323.16Z"/><path class="cls-159" d="M76.22,308.5c-.9-1.14-1.83-1.89-1-3.07a.93.93,0,0,1,1.41-.18C78,306.34,77.23,307.31,76.22,308.5Z"/><path class="cls-31" d="M79,285.38c.35-1.28,1.56-1.64,2.47-2.33.09,1.18.43,2.55-.64,3.35C80,287.05,79.78,285.53,79,285.38Z"/><path class="cls-160" d="M105.74,312.66c-1.07,5.54-4.69,9.4-8.54,13.11C98,320.07,103.29,317.3,105.74,312.66Z"/><path class="cls-161" d="M90.43,340.81c1.15-2.11.07-4.72,1.57-6.78a5.51,5.51,0,0,1,4.15-2.74l-5.76,9.47Z"/><path class="cls-161" d="M90.39,340.76c-.55,1.69-1.57,3-4,4.5.88-2.82,1.67-4.3,4-4.45Z"/><path class="cls-106" d="M84.71,325.29c1.19-4.58,1.61-9.34,3.23-13.82a21.88,21.88,0,0,1,3-6c.59-.77,1.26-1,1.57.28-3,5.3-3.51,11.36-5.37,17-.88,2.68,3.09-.11,2,2.44-.79,1.91-.81,4.14-1.9,6a1.6,1.6,0,0,1-1.55,1.89c-1,.08-1.19-.79-1.39-1.58a9.59,9.59,0,0,1-.38-5.09A2.7,2.7,0,0,1,84.71,325.29Z"/><path class="cls-162" d="M84.73,325.26c.06,1.87,0,3.74.21,5.59.3,2.67,1.37,1.44,2.33.36l.8.88a1.89,1.89,0,0,1-.12.67c-1.87,3.52-3,7.56-7,10.11a20.15,20.15,0,0,1,2.33-8.46,3.58,3.58,0,0,0-.23-4C82.63,328.36,82.39,326.4,84.73,325.26Z"/><path class="cls-33" d="M168.77,76.79c-1.29-.73-2.34-1.64-2.38-3.28a5.71,5.71,0,0,1,3.63,1.9C171.67,77.58,169.17,76.29,168.77,76.79Z"/><path class="cls-163" d="M146.4,283.74c-.14-2.24,1.23-2.6,3.5-1.56,2.93,1.34,5.8,7.35,4.9,10.43-.21.72-.55,1.81-1.52,1.46-1.31-.46-2.89.35-4-1.19A15.93,15.93,0,0,1,146.4,283.74Z"/><path class="cls-164" d="M176.71,174.46c1.63.7,3.1,2.84,5,.07.68-1,1.08.62,1.48,1,2.15,2.27,4,4.68,7.66,4.87a5,5,0,0,1,4.4,4.07c.35,2.74,1.93,2.7,3.8,2.79-1,1.18-5,.74-2.21,4-.57,2.64-2.45,1.26-3.78,1.09-1-.13-2.23-.58-2.37-1.78-.2-1.76,1.71-1.63,2.71-2.36-2.38-3.59-5.17,0-7.69-.62-.74-.19-1.76,0-2.56-.44s-2.11-1-2-2.18c.1-1.53,1.49-.35,2.24-.74.92-.46,1.17-.95.58-1.81a2.67,2.67,0,0,0-.49-3c-.83,1,.41,2-.1,2.84-2.24-.62-4.42-1.68-6.82-.44-1.47.76-2.09-.67-2.82-1.46-1.34-1.43-.6-2,1-2C173.8,176.34,175.88,175.72,176.71,174.46Z"/><path class="cls-118" d="M168.31,171.06c.72-.05,2,.23,1.76-.82-.44-2,.37-2.86,2-2.68s1.46,1.84,1.48,3.11v1.17C168.82,174.34,168.82,174.34,168.31,171.06Z"/><path class="cls-165" d="M183.31,182.34c-.16-.21-.33-.41-.48-.63-.7-1-2.82-1.73-1-3.4,1.1-1,2.19-.57,3,.59,1.09,1.56,1.41,2.92-.94,3.57Z"/><path class="cls-37" d="M200.89,154.13c0-.95.35-2.49,1.11-1.87s2.16,1.9,2,3.54c-.1,1.1-.27,2.19-1.65,2.29C201.31,158.16,200.83,156.82,200.89,154.13Z"/><path class="cls-166" d="M216.69,155.92c1.74-2.49,4-3.44,6.69-1.75,1.8,1.14,3.45,2.67,1.48,5.07C221.67,159.27,218.22,160,216.69,155.92Z"/><path class="cls-42" d="M45.61,488.23c-2.27,3-6.07,4.68-7.38,8.53-1.68-1.95,0-3.08,1.08-4.33,3.74-4.13,6-8,6.94-11.77-4,.49-2.42,5.07-5.42,7,1.17-3.45.7-6.56,1.24-9.61.21-1.19.37-2.81-.87-3.17-1.56-.45-1.58,1.39-2,2.38s-.68,2-1.08,3.15c-3-5.25-1.42-10.77,3.53-13,4.43-2,7.78-5.3,11.29-8.44a3,3,0,0,1,1,2.48A22.34,22.34,0,0,0,56,471.71a2.28,2.28,0,0,1-.06,2.57c-4.28.9-5.66,4.86-7.89,7.79C46.79,483.76,46.4,486.15,45.61,488.23Z"/><path class="cls-167" d="M56,474.28c-.33-1.4-.32-3-1.07-4.16-2.35-3.46-2.3-7.21-2-11.07a2.71,2.71,0,0,0,1.56-2.48c.26-1.9,1.41-.88,2.3-.61.15,1.05-.33,2.23.67,3.1-2.44,1.26-3,5.31-1.68,10.11C56.24,470.81,57.74,472.52,56,474.28Z"/><path class="cls-168" d="M72.71,468.7l5.87-6.87c2,1.78-1.43,3.82.64,5.38L73,471.14C71.58,470.4,74.36,469.35,72.71,468.7Z"/><path class="cls-135" d="M65.44,450.45c-.32,1.1-.31,2.62-1,3.2s-1-1.26-1.94-1.43C62.14,449.42,64.68,451.43,65.44,450.45Z"/><path class="cls-136" d="M99.22,416.77a7.72,7.72,0,0,1-4-4.15c-.42-.85-1.36-2.23.1-2.61a2.34,2.34,0,0,1,3,1.76c.29,1.68.59,3.36.88,5Z"/><path class="cls-169" d="M130.4,385.47c0,.54.07,1.08.1,1.62a6.8,6.8,0,0,0,0,2c.41,1.29-.08,2.25-1.22,2.47s-1.17-1.16-1.46-1.95c-2-5.53-2.16-13.42-.15-17.35C128.14,377,127.94,381.56,130.4,385.47Z"/><path class="cls-170" d="M51.78,392.74l-2.2,1.69c-1.62-1.29-2.95-2.54-.29-4.19.6-.37,1.37-1.16.63-2a1.6,1.6,0,0,0-2.21,0c-2.48,2.4-3.31.34-4.18-1.49-1-2.16-1.86-4.43-3-6.53-1.25-2.31-1-3.44,1.89-3.41,1.6,0,3.19-.16,4.79-.25C48.94,381.9,53.36,386.47,51.78,392.74Z"/><path class="cls-148" d="M53.31,388.9c2.21,1.54,1.86,2.88.41,4.54C52.34,392,52.86,390.66,53.31,388.9Z"/><path class="cls-17" d="M50.43,428c-.88,1.55-2.78,1.51-4,2.54-.78-.18-1.66-.23-.72-1.4C47,427.51,48.79,428.09,50.43,428Z"/><path class="cls-171" d="M84.73,325.26c-1,1.56-.29,3.67-1.63,5.12-3.38.4-2.13,4.17-4.6,5.94,0-4.88,1.92-8.95,3.12-13.16l3.09,2.13Z"/></g></g></svg>