<svg xmlns="http://www.w3.org/2000/svg" xmlns:xlink="http://www.w3.org/1999/xlink" viewBox="0 0 91.35 185.38"><defs><style>.cls-1{fill:none;}.cls-2,.cls-33,.cls-4{fill:#ebf6f9;}.cls-12,.cls-2{opacity:0.8;}.cls-3{fill:url(#名称未設定グラデーション_102);}.cls-4{opacity:0.6;}.cls-35,.cls-5,.cls-6{fill:#9fcde3;}.cls-5{opacity:0.5;}.cls-33,.cls-6{opacity:0.7;}.cls-7{fill:url(#名称未設定グラデーション_111);}.cls-8{fill:url(#名称未設定グラデーション_114);}.cls-9{fill:url(#名称未設定グラデーション_114-2);}.cls-10{fill:url(#名称未設定グラデーション_114-3);}.cls-11{fill:url(#名称未設定グラデーション_114-4);}.cls-13{clip-path:url(#clip-path);}.cls-14{opacity:0.9;}.cls-15{fill:#c2d9e7;}.cls-16{fill:#96bdd5;}.cls-17{fill:#71a1c2;}.cls-18{fill:#fbfdfe;}.cls-19{fill:#fff;}.cls-20{fill:#6599bc;}.cls-21{fill:#f9fbfd;}.cls-22{fill:#86b0cc;}.cls-23{clip-path:url(#clip-path-2);}.cls-24{fill:#bdd6e5;}.cls-25{fill:#8ab3cf;}.cls-26{fill:#8db5d0;}.cls-27{fill:#6b9cbf;}.cls-28{fill:#90b8d2;}.cls-29{fill:#f3f8fb;}.cls-30{fill:#bad4e4;}.cls-31{fill:#5b90b6;}.cls-32{fill:#5aade0;}.cls-34{fill:#4790b6;}.cls-36{fill:#323333;}</style><linearGradient id="名称未設定グラデーション_102" x1="45.72" y1="96.1" x2="45.72" y2="184.53" gradientUnits="userSpaceOnUse"><stop offset="0" stop-color="#93cb8a"/><stop offset="0.23" stop-color="#91cb92"/><stop offset="0.59" stop-color="#8bcba9"/><stop offset="0.61" stop-color="#8bcbaa"/><stop offset="1" stop-color="#83a5bf"/></linearGradient><radialGradient id="名称未設定グラデーション_111" cx="45.72" cy="89.93" r="34.83" gradientTransform="translate(0 53.91) scale(1 0.4)" gradientUnits="userSpaceOnUse"><stop offset="0" stop-color="#8bcbaa"/><stop offset="1" stop-color="#93cb8a"/></radialGradient><radialGradient id="名称未設定グラデーション_114" cx="22.97" cy="89.46" r="8.63" gradientUnits="userSpaceOnUse"><stop offset="0" stop-color="#93cb8a"/><stop offset="0.38" stop-color="#91cb92"/><stop offset="0.97" stop-color="#8bcba9"/><stop offset="1" stop-color="#8bcbaa"/></radialGradient><radialGradient id="名称未設定グラデーション_114-2" cx="47.55" cy="90.09" r="13.93" xlink:href="#名称未設定グラデーション_114"/><radialGradient id="名称未設定グラデーション_114-3" cx="55.51" cy="86.73" r="17.35" xlink:href="#名称未設定グラデーション_114"/><radialGradient id="名称未設定グラデーション_114-4" cx="42.33" cy="78.52" r="4.24" xlink:href="#名称未設定グラデーション_114"/><clipPath id="clip-path"><path id="SVGID" class="cls-1" d="M43,87.83c-1.6.68-1.38,4.42-1.38,4.42s11,7.44,12.32,8.07,10.84-.73,12.34-1.72,4.07-7.48,5.31-10.3-19.31-9.79-19.31-9.79Z"/></clipPath><clipPath id="clip-path-2"><path id="SVGID-2" data-name="SVGID" class="cls-1" d="M14.15,80.34c2.7,4.46,7.68,8.43,11.73,12.29S45,92.91,47.4,91,29.09,75.71,29.09,75.71Z"/></clipPath></defs><title>アセット 23</title><g id="レイヤー_2" data-name="レイヤー 2"><g id="レイヤー_1-2" data-name="レイヤー 1"><path class="cls-2" d="M86,75.37h0c-.54-7.74-18.9-13.94-40.29-13.94S5.92,67.64,5.4,75.39h0v.08a4.61,4.61,0,0,0,0,.83,8.85,8.85,0,0,0,.16.87l10.64,97.68L16,173c.76,6.83,13.62,12.43,29.89,12.43S74.55,180.06,75.34,173l.2-1.73L85.78,77.15a8,8,0,0,0,.16-.85,4.72,4.72,0,0,0,0-.84Z"/><path class="cls-3" d="M8.21,89.93l8.66,79.58c.32,2.92,3.37,5.83,8.36,8,5.44,2.34,12.71,3.63,20.48,3.63,15.71,0,28.12-5,28.87-11.61l8.65-79.58Z"/><path class="cls-4" d="M45.68,171.71c-8,0-15.58-1.33-21.2-3.76-5.15-2.21-8.31-5.2-8.68-8.21l.43,3.92C20.36,169,31.67,173,45.68,173s25.48-3.8,29.53-9.33l.42-3.86C74.79,166.59,61.88,171.71,45.68,171.71Z"/><path class="cls-4" d="M91.34,68C91,80.24,66.18,86.59,45.67,86.59,23,86.59,0,80.24,0,68c0-16.61,20.45-34,45.67-34S91.78,51.42,91.34,68Z"/><path class="cls-4" d="M45.67,34.05C20.45,34.05,0,51.42,0,68,0,80.24,23,86.59,45.67,86.59,66.18,86.59,91,80.24,91.34,68,91.78,51.42,70.9,34.05,45.67,34.05Zm0,9.77c-5.75,0-10.42-1.79-10.42-4s4.67-4,10.42-4,10.43,1.79,10.43,4S51.43,43.82,45.67,43.82Z"/><path class="cls-5" d="M.08,68.25c0-9.67,20.41-17.51,45.59-17.51s45.6,7.84,45.6,17.51v7.46c0-9.67-20.41-17.51-45.6-17.51S.08,66,.08,75.71Z"/><ellipse class="cls-6" cx="45.68" cy="72" rx="44.56" ry="13.78"/><path class="cls-7" d="M83.23,89.93c-.86,7.75-16.8,14.22-37.51,14.22S9.07,97.72,8.21,89.93,25,75.71,45.72,75.71,84.09,82.13,83.23,89.93Z"/><path class="cls-8" d="M31.09,80.69a.36.36,0,0,1,.23.59c-1.58,1.79-5.5,2.35-9,5.45s-8.85,9.65-1.7,11.39a.08.08,0,0,1,0,.16c-4.76-.45-8.91-4.64-3.54-11C22.22,81.26,29,80.39,31.09,80.69Z"/><path class="cls-9" d="M62.79,89.8a.24.24,0,0,1,.08-.46c1.95.1,4.42,1.14,1.69,3.58-3.47,3.09-22.13,7.26-29.51,2.5-7-4.51-7.13-11.87-2.85-12.81a.38.38,0,0,1,.44.52c-1.25,3.09-.55,12,10.28,13.22C53.91,97.55,68,91.82,62.79,89.8Z"/><path class="cls-10" d="M54.36,88.81A.6.6,0,0,1,54.7,90c-5.4,1.9-14.52,2.76-19.1.12-6.59-3.8-4.71-7.78,6.63-9.25S70.6,81.28,76,84.72c5,3.19,4,6-2,8.37a.32.32,0,0,1-.36-.51C76.11,89.81,75,87,65,85.5c-11.29-1.71-28.67-.78-23.42,2.36C45.07,90,50.35,89.77,54.36,88.81Z"/><path class="cls-11" d="M36.52,79.2A22.46,22.46,0,0,1,48,77.71a.23.23,0,0,1,0,.46,91.75,91.75,0,0,0-11.38,1.37A.18.18,0,0,1,36.52,79.2Z"/><g class="cls-12"><g class="cls-13"><g class="cls-14"><path class="cls-15" d="M42.85,92.37c1.12-.14,1.72-1.06,2.41-1.75q3.43-3.45,6.74-7a2.9,2.9,0,0,1,3.41-.85c3.92,1.18,7.92,2.14,11.91,3.09a2.49,2.49,0,0,1,2.18,2.28,78.22,78.22,0,0,0,3.08,11.95,2.29,2.29,0,0,1-.71,2.84,84.6,84.6,0,0,0-9,9,2.32,2.32,0,0,1-2.92.56,69.42,69.42,0,0,0-12.1-3.22c-1.42-.26-1.65-1.28-2-2.44-1.15-4.22-1.7-8.61-3.73-12.57Zm5.72-2.54c-2.08-.54-2.23,1.35-3,2.41l-.75.81c-.22.69-.81,1.35-.49,2.1.76,1.74.86,3.65,1.44,5.43.63,1.93.81,4.14,2.8,5.38.42,1.92,1.43.74,2,.26,1.74-1.44,2.35-3.64,3.43-5.52,1.16-.18,1.73-1.23,2.62-1.81l.14.08.15,0c-1.3,3.16,1,5.59,1.74,8.37a4.25,4.25,0,0,0-2.77.93c1.61-.15,2.38.92,3.48,1.3.42.6.64,1.5,1.7,1.13.93.29,1.37-.46,1.84-1,1.08-1.19,2.06-2.47,3.09-3.71A3.62,3.62,0,0,0,69,102.4c.11-.31.23-.61.34-.92.39,0,.88.09,1-.43s-.41-.76-.83-.94L61.68,96.5c1-2.17,3.19-3.06,4.84-4.53.46.66.9,1.34,1.4,2s.79.46,1-.24c.36-1.37-2-6-3.44-6.53-2.47-.87-4.8-2.25-7.55-2.08l-2.42-.42a1,1,0,0,0-1.55.7l-.32.7c-1.75.32-2.71,1.68-3.78,2.89Z"/><path class="cls-16" d="M49.83,89c1.07-1.21,2-2.57,3.78-2.89.4.17.77.45.74.88-.15,2.39,2,3.71,2.56,5.8.44-2.6-1.32-5.38,1-7.66,2.75-.17,5.08,1.21,7.55,2.08-.53.72-.11,1.44,0,2.17a13.35,13.35,0,0,0-6.65,5.93c-2.05-1-2.89.85-4.1,1.8a65.4,65.4,0,0,1-7.78-2.65c.42-1.49,1.58-2.4,2.6-3.43C50.05,90.42,51.06,89.85,49.83,89Z"/><path class="cls-16" d="M66,106.07c-1,1.24-2,2.52-3.09,3.71-.47.51-.91,1.26-1.84,1,.07-1,1.5-1.82.3-2.78a2.12,2.12,0,0,0-1.88-.17c-.67.36.23,1.21-.12,1.82-1.1-.38-1.87-1.45-3.48-1.3a4.25,4.25,0,0,1,2.77-.93c-.7-2.78-3-5.21-1.74-8.37.48-.24.91,0,1.34.16,2.76.95,2.76.95,3.57-1.64,2.85.69,5,2.7,7.59,3.94-.11.31-.23.61-.34.92l-.73-.11a21.51,21.51,0,0,1-6.56-1.72c-.37,2.11.58,3.84.36,5.67,0,.46-.2,1.17.52,1.37s1-.22,1.43-.57c.68-.56.8-1.78,2-1.67Z"/><path class="cls-17" d="M58.77,95.26a13.35,13.35,0,0,1,6.65-5.93c.37.88.74,1.76,1.1,2.64-1.65,1.47-3.85,2.36-4.84,4.53l-1.83-.67Z"/><path class="cls-18" d="M48.53,106c-2-1.24-2.17-3.45-2.8-5.38-.58-1.78-.68-3.69-1.44-5.43-.32-.75.27-1.41.49-2.1.88.36,1.07,1.2,1.39,2,0,3.47,1.1,6.45,4,8.57C49.79,104.48,50,105.78,48.53,106Z"/><path class="cls-19" d="M58.77,95.26l1.08.57c-.06.13-.11.25-.16.38a3.82,3.82,0,0,0-3.1,2.68c-.89.58-1.46,1.63-2.62,1.81l-1.09-.44c.24-1.26,1.29-2.08,1.79-3.2C55.88,96.11,56.72,94.31,58.77,95.26Z"/><path class="cls-17" d="M57.9,85.08c-2.31,2.28-.55,5.06-1,7.66-.56-2.09-2.71-3.41-2.56-5.8,0-.43-.34-.71-.74-.88.11-.23.22-.46.32-.7a1.29,1.29,0,0,0,1.55-.7Z"/><path class="cls-20" d="M56.59,98.89a3.82,3.82,0,0,1,3.1-2.68c.71.42,1.73.36,2.1,1.33-.81,2.59-.81,2.59-3.57,1.64-.43-.15-.86-.4-1.34-.16l-.15,0Z"/><path class="cls-21" d="M66.52,92c-.36-.88-.73-1.76-1.1-2.64-.08-.73-.5-1.45,0-2.17,1.39.57,3.8,5.16,3.44,6.53-.18.7-.56.75-1,.24S67,92.63,66.52,92Z"/><path class="cls-16" d="M52.88,100.26l1.09.44c-1.08,1.88-1.69,4.08-3.43,5.52-.58.48-1.59,1.66-2-.26,1.43-.18,1.26-1.48,1.66-2.38A12.31,12.31,0,0,0,52.88,100.26Z"/><path class="cls-21" d="M61.79,97.54c-.37-1-1.39-.91-2.1-1.33.05-.13.1-.25.16-.38l1.83.67,7.88,3.61c.42.18,1,.28.83.94s-.62.41-1,.43C66.81,100.24,64.64,98.23,61.79,97.54Z"/><path class="cls-22" d="M46.17,95c-.32-.76-.51-1.6-1.39-2l.75-.81c1.74.12,2.56-.93,3-2.41L49.83,89c1.23.9.22,1.47-.34,2-1,1-2.18,1.94-2.6,3.43Z"/><path class="cls-17" d="M59.33,109.62c.35-.61-.55-1.46.12-1.82a2.12,2.12,0,0,1,1.88.17c1.2,1-.23,1.83-.3,2.78C60,111.12,59.75,110.22,59.33,109.62Z"/><path class="cls-21" d="M68.31,102.29l.73.11A3.62,3.62,0,0,1,66,106.07l.12-.7C66.6,104.18,68,103.6,68.31,102.29Z"/><path class="cls-21" d="M48.57,89.83c-.48,1.48-1.3,2.53-3,2.41C46.34,91.18,46.49,89.29,48.57,89.83Z"/><path class="cls-16" d="M55.48,84.66a1.29,1.29,0,0,1-1.55.7A1,1,0,0,1,55.48,84.66Z"/><path class="cls-15" d="M46.17,95l.72-.6a65.4,65.4,0,0,0,7.78,2.65c-.5,1.12-1.55,1.94-1.79,3.2a12.31,12.31,0,0,1-2.69,3.32C47.27,101.46,46.2,98.48,46.17,95Z"/><path class="cls-15" d="M68.31,102.29c-.35,1.31-1.71,1.89-2.23,3.08-1.22-.11-1.34,1.11-2,1.67-.42.35-.85.74-1.43.57s-.57-.91-.52-1.37c.22-1.83-.73-3.56-.36-5.67A21.51,21.51,0,0,0,68.31,102.29Z"/></g></g></g><g class="cls-12"><g class="cls-23"><path class="cls-24" d="M37.44,110.09C34,112,30.09,113,26.5,114.64a2.34,2.34,0,0,1-2.7-.85,68.91,68.91,0,0,0-9.7-8.09,2.89,2.89,0,0,1-1.31-3.55,73.4,73.4,0,0,0,2-12.32c.14-1.67.92-2.33,2.51-2.85,4-1.32,7.94-2.87,11.84-4.49a2.63,2.63,0,0,1,3.33.63,86.93,86.93,0,0,0,9.94,8.12c1.35.91,1.57,1.78,1.23,3.34-.86,3.93-1.61,7.89-2.08,11.88-.34,2.93-.75,3.54-3.79,3.45,0-.86,1.49-1.14.82-2.23.67-.6,1.63-1.1.81-2.24,1.77-2.33,1.81-5.1,2-7.83l-.62-.14a.4.4,0,0,0-.15-.19c1-.51.87-1.39.74-2.27.25-.45.35-1,0-1.3-1.68-1.29-2.88-3.13-4.79-4.13l-1.29-1.52c.5-2.31-1.33-2.27-2.72-2.69-.22-.4-.49-.71-1-.65a2.05,2.05,0,0,0-2.22-.52,33.2,33.2,0,0,0-3.53,1.4c-2.6,1-5.39,1.66-7.53,3.65-1.44,1-.93,2,.06,2.75a12.51,12.51,0,0,0,6.16,2.6c.17,1.17,1.06,1.88,1.74,2.72A14.3,14.3,0,0,0,20.51,99c-.75.42-1.4,1.26-2.16,1.35-1.22.15-.14-1.82-1.64-1.93.17,1.23-.75,2.12-1.1,3.24-.9.68-1.56,1.41-.52,2.49,1.28,2,3.49,2.65,5.25,4a3.4,3.4,0,0,0,4.1,2.57l.54.67c.5.53,1.14,1.72,1.66.31a23.7,23.7,0,0,0,1.81-6.3h0l.07-.58h0a.69.69,0,0,0,.33-.92l.82-1.55c2.29,1.08,3.69,3.08,5.17,5l-2.47,2.38c1.76.28,2.91-.45,4.14-.86Z"/><path class="cls-22" d="M37.44,110.09l-.94-1.21,2.08-1.2c.67,1.09-.86,1.37-.82,2.23Z"/><path class="cls-25" d="M36.53,89.58c1.91,1,3.11,2.84,4.79,4.13.4.3.3.85,0,1.3-.57-.72-1.1-1.78-2.22-1.11-2,1.17-4.25,1.71-6.07,3.38a7.59,7.59,0,0,0,3.54-.52c1.37-.33,2.86-1,4,.52a.4.4,0,0,1,.15.19l.62.14c-.2,2.73-.24,5.5-2,7.83l-1.45.13c-1.83-2.67-4.56-4.4-6.86-6.58.23-2.37-2-2.78-3.18-4,1.49-2.52,1.39-5.39,1.75-8.16l.58-.48a26.52,26.52,0,0,1,4.21,2.87C35,89.72,35.69,90.28,36.53,89.58Z"/><path class="cls-26" d="M25,111.38l-.54-.67-.39-.66a54.78,54.78,0,0,1,1.24-6.35c.31-1-.43-.79-1.08-.62-2,.52-4.06,1.26-6.23.89a1.76,1.76,0,0,1-.26-1.51c.19-1.29,0-1.89-1.36-.88-.17.14-.5.07-.75.1.35-1.12,1.27-2,1.1-3.24,1.5.11.42,2.08,1.64,1.93.76-.09,1.41-.93,2.16-1.35a14.3,14.3,0,0,1,5.68-1.7l.83.32c-.37,1.28-.76,2.54-1.1,3.83-.19.7-.28,1.43.86,1.14.76-.19,1.62.32,2.31-.32l.3-.28.27.35-.82,1.55c-.2.28-.46.53-.33.92h0c-.17.18-.25.36-.07.58h0C26.79,107.09,26.27,109.46,25,111.38Z"/><path class="cls-27" d="M29.66,102.36l-.27-.35c0-.18.09-.36.13-.54h.39l-.13-.26v0c.38-.17.59-.42.39-.85v0L31.08,99c2.3,2.18,5,3.91,6.86,6.58l-3.11,1.79C33.35,105.44,32,103.44,29.66,102.36Z"/><path class="cls-18" d="M18.23,89.25c2.14-2,4.93-2.61,7.53-3.65a33.2,33.2,0,0,1,3.53-1.4,2.05,2.05,0,0,1,2.22.52,5.86,5.86,0,0,1-2.74,1.72l-.14.13a6.21,6.21,0,0,0-3.74.81c-1.81.61-2.46,2.57-4,3.49C19.5,91.14,18.43,90.91,18.23,89.25Z"/><path class="cls-18" d="M31.08,99l-.92,1.42L28.6,98.55A3.09,3.09,0,0,0,27,97.64l-.83-.32c-.68-.84-1.57-1.55-1.74-2.72.12-.28.23-.56.34-.84,1.31-.3,1.93,1.16,3.11,1.21C29.08,96.21,31.31,96.62,31.08,99Z"/><path class="cls-27" d="M40.63,97.28c-1.15-1.55-2.64-.85-4-.52a7.59,7.59,0,0,1-3.54.52c1.82-1.67,4.11-2.21,6.07-3.38,1.12-.67,1.65.39,2.22,1.11C41.5,95.89,41.64,96.77,40.63,97.28Z"/><path class="cls-28" d="M24.79,93.76c-.11.28-.22.56-.34.84A12.51,12.51,0,0,1,18.29,92c-1-.77-1.5-1.8-.06-2.75.2,1.66,1.27,1.89,2.65,1.62A18.75,18.75,0,0,0,24.79,93.76Z"/><path class="cls-18" d="M34.83,107.36l3.11-1.79,1.45-.13c.82,1.14-.14,1.64-.81,2.24l-2.08,1.2c-1.23.41-2.38,1.14-4.14.86Z"/><path class="cls-21" d="M25,111.38c1.29-1.92,1.81-4.29,3.47-6a23.7,23.7,0,0,1-1.81,6.3C26.12,113.1,25.48,111.91,25,111.38Z"/><path class="cls-27" d="M15.61,101.68c.25,0,.58,0,.75-.1,1.32-1,1.55-.41,1.36.88A1.76,1.76,0,0,0,18,104a2.27,2.27,0,0,0-.28.26c-.88.32-1.73-.77-2.61-.06C14.05,103.09,14.71,102.36,15.61,101.68Z"/><path class="cls-20" d="M36.53,89.58c-.84.7-1.54.14-2.09-.38a26.52,26.52,0,0,0-4.21-2.87,2.46,2.46,0,0,1,2-.65,3.46,3.46,0,0,0,3,2.38Z"/><path class="cls-28" d="M15.09,104.17c.88-.71,1.73.38,2.61.06.23,2,2.32,2.35,3.38,3.62l-.74.29C18.58,106.82,16.37,106.12,15.09,104.17Z"/><path class="cls-21" d="M20.34,108.14l.74-.29c1,.71,1.72,1.81,3,2.2l.39.66A3.4,3.4,0,0,1,20.34,108.14Z"/><path class="cls-29" d="M35.24,88.06a3.46,3.46,0,0,1-3-2.38l.27-.31C33.91,85.79,35.74,85.75,35.24,88.06Z"/><path class="cls-16" d="M32.52,85.37l-.27.31a2.46,2.46,0,0,0-2,.65l-.58.48a.85.85,0,0,1-.88-.37,5.86,5.86,0,0,0,2.74-1.72C32,84.66,32.3,85,32.52,85.37Z"/><path class="cls-21" d="M28.51,104.83c-.13-.39.13-.64.33-.92A.69.69,0,0,1,28.51,104.83Z"/><path class="cls-27" d="M41.4,97.61l-.62-.14Z"/><path class="cls-21" d="M28.45,105.4c-.18-.22-.1-.4.07-.58C28.49,105,28.47,105.21,28.45,105.4Z"/><path class="cls-30" d="M28.77,86.44a.85.85,0,0,0,.88.37c-.36,2.77-.26,5.64-1.75,8.16-1.18,0-1.8-1.51-3.11-1.21a18.75,18.75,0,0,1-3.91-2.89c1.55-.92,2.2-2.88,4-3.49a3.72,3.72,0,0,0,3.74-.81Z"/><path class="cls-30" d="M24.05,110.05c-1.25-.39-2-1.49-3-2.2-1.06-1.27-3.15-1.58-3.38-3.62A2.27,2.27,0,0,1,18,104c2.17.37,4.19-.37,6.23-.89.65-.17,1.39-.37,1.08.62A54.78,54.78,0,0,0,24.05,110.05Z"/><path class="cls-20" d="M27,97.64a3.09,3.09,0,0,1,1.58.91c-2,1.53-.38,2.58.49,3.74-.69.64-1.55.13-2.31.32-1.14.29-1.05-.44-.86-1.14C26.26,100.18,26.65,98.92,27,97.64Z"/><path class="cls-31" d="M29.09,102.29c-.87-1.16-2.47-2.21-.49-3.74l1.56,1.86v0c-.5.12-.4.5-.39.85v0l-.26.26c0,.18-.09.36-.13.54Z"/><path class="cls-18" d="M29.77,101.24c0-.35-.11-.73.39-.85C30.36,100.82,30.15,101.07,29.77,101.24Z"/><path class="cls-18" d="M29.52,101.47l.26-.26.13.26Z"/><path class="cls-16" d="M28.63,86.57a3.72,3.72,0,0,1-3.74.81A6.21,6.21,0,0,1,28.63,86.57Z"/></g></g><rect class="cls-32" x="41.23" y="1.23" width="8.9" height="88.27"/><path class="cls-33" d="M41.23,86.5q2.22.09,4.44.09c1.47,0,3,0,4.45-.1V43.43a25.53,25.53,0,0,1-8.89,0Z"/><ellipse class="cls-34" cx="45.67" cy="1.23" rx="4.45" ry="1.23"/><path class="cls-35" d="M91.27,75.71c0,9.68-20.41,17.52-45.6,17.52S.08,85.39.08,75.71V68.25c0,9.68,20.41,17.52,45.59,17.52s45.6-7.84,45.6-17.52Z"/><path class="cls-36" d="M36.28,135.81c2.46,3.56,3.7,5.28,6.17,8.6.17,4.28.25,6.42.42,10.7a.59.59,0,0,1-.63.62c-1.35-.08-2-.13-3.37-.28a.71.71,0,0,1-.62-.63C37.46,147.23,37.07,143.42,36.28,135.81Z"/><path class="cls-36" d="M52.53,155.47h0a.54.54,0,0,1-.5-.2c-1.69-2.06-12.89-17-14.77-19.67-2-2.91-2-3.8-5.71-4.85a.87.87,0,0,1-.58-.66c0-.21,0-.31-.09-.52a.49.49,0,0,1,.61-.59,53.23,53.23,0,0,0,7.91,1.29.69.69,0,0,1,.51.32c5.49,8.46,8.26,12.39,13.73,19.66-.19,1.84-.29,2.75-.49,4.59A.71.71,0,0,1,52.53,155.47Z"/><path class="cls-36" d="M55.2,135.47c-.57,5.42-.86,8.13-1.43,13.55-1.88-2.55-2.83-3.86-4.72-6.55.19-4.56.29-6.84.48-11.39a.69.69,0,0,1,.63-.65A52.6,52.6,0,0,0,60,129a.48.48,0,0,1,.61.58c0,.23-.05.34-.09.57a.83.83,0,0,1-.55.66C56.64,131.85,55.49,133.86,55.2,135.47Z"/><path class="cls-36" d="M45.72,129h0a1.12,1.12,0,0,1-1.12-1.12V114.76a1.11,1.11,0,0,1,1.12-1.1h0a1.11,1.11,0,0,1,1.12,1.1V127.9A1.12,1.12,0,0,1,45.72,129Z"/><path class="cls-36" d="M49.37,120.54a8.18,8.18,0,0,1,5.48,7,.52.52,0,0,0,.62.47l1-.15a.78.78,0,0,0,.62-.79,9.9,9.9,0,0,0-6.81-8.64,1.15,1.15,0,0,0-1.52,1.07v.07A1,1,0,0,0,49.37,120.54Z"/><path class="cls-36" d="M36.59,127.55a8.19,8.19,0,0,1,5.47-7,1,1,0,0,0,.65-1h0a1.19,1.19,0,0,0-1.57-1.11,9.87,9.87,0,0,0-6.76,8.62.78.78,0,0,0,.62.79l1,.15A.52.52,0,0,0,36.59,127.55Z"/><path class="cls-36" d="M58.84,154.47c-1.41.29-2.12.42-3.53.64a.71.71,0,0,1-.8-.43,1.1,1.1,0,0,1,.24-1c1.31-1.56,2-2.36,3.27-4,.39-.5.65-1.2.19-1.62a.85.85,0,0,0-.77-.17,1.09,1.09,0,0,0-.61.4l-.31.38a1,1,0,0,1-1.31.32.92.92,0,0,1,0-1.31l.31-.38a3.67,3.67,0,0,1,2-1.28,2.31,2.31,0,0,1,2.08.42c1,.9.88,2.63-.32,4.19-.72.92-1.08,1.38-1.81,2.28l1.52-.31a.66.66,0,0,1,.83.75A1.39,1.39,0,0,1,58.84,154.47Z"/></g></g></svg>