<svg xmlns="http://www.w3.org/2000/svg" xmlns:xlink="http://www.w3.org/1999/xlink" viewBox="0 0 91.35 185.38"><defs><style>.cls-1{fill:none;}.cls-2,.cls-25,.cls-4{fill:#ebf6f9;}.cls-2,.cls-9{opacity:0.8;}.cls-3{fill:url(#名称未設定グラデーション_37);}.cls-4{opacity:0.6;}.cls-32,.cls-5,.cls-6{fill:#9fcde3;}.cls-5{opacity:0.5;}.cls-25,.cls-6{opacity:0.7;}.cls-7{fill:url(#名称未設定グラデーション_44);}.cls-8{fill:url(#名称未設定グラデーション_91);}.cls-10{clip-path:url(#clip-path);}.cls-11{fill:#bdd6e5;}.cls-12{fill:#86b0cc;}.cls-13{fill:#8ab3cf;}.cls-14{fill:#8db5d0;}.cls-15{fill:#6b9cbf;}.cls-16{fill:#fbfdfe;}.cls-17{fill:#90b8d2;}.cls-18{fill:#f9fbfd;}.cls-19{fill:#6599bc;}.cls-20{fill:#f3f8fb;}.cls-21{fill:#96bdd5;}.cls-22{fill:#bad4e4;}.cls-23{fill:#5b90b6;}.cls-24{fill:#d5d25d;}.cls-26{clip-path:url(#clip-path-2);}.cls-27{opacity:0.9;}.cls-28{fill:#c2d9e7;}.cls-29{fill:#71a1c2;}.cls-30{fill:#fff;}.cls-31{fill:#a6af4a;}.cls-33{fill:#323333;}</style><linearGradient id="名称未設定グラデーション_37" x1="45.72" y1="185.48" x2="45.72" y2="88.84" gradientUnits="userSpaceOnUse"><stop offset="0" stop-color="#ecdb7f"/><stop offset="0.24" stop-color="#fac87d"/><stop offset="0.69" stop-color="#dda2a7"/><stop offset="1" stop-color="#d3a2c9"/></linearGradient><radialGradient id="名称未設定グラデーション_44" cx="45.72" cy="89.93" r="28.38" gradientUnits="userSpaceOnUse"><stop offset="0" stop-color="#dda2a7"/><stop offset="1" stop-color="#d3a2c9"/></radialGradient><radialGradient id="名称未設定グラデーション_91" cx="53.85" cy="81.54" r="38.74" gradientUnits="userSpaceOnUse"><stop offset="0" stop-color="#d3a2c9"/><stop offset="1" stop-color="#dda2a7"/></radialGradient><clipPath id="clip-path"><path id="SVGID" class="cls-1" d="M44.24,82.74C48.32,86,54.36,88,59.48,90.26s18-6.3,19.65-9-22.44-8-22.44-8Z"/></clipPath><clipPath id="clip-path-2"><path id="SVGID-2" data-name="SVGID" class="cls-1" d="M20,86.94c-1.44,1-.57,4.6-.57,4.6S31.56,96.91,33,97.29s10.53-2.64,11.83-3.89,2.67-8.08,3.39-11.07-20.73-6.2-20.73-6.2Z"/></clipPath></defs><title>アセット 24</title><g id="レイヤー_2" data-name="レイヤー 2"><g id="レイヤー_1-2" data-name="レイヤー 1"><path class="cls-2" d="M86,75.37h0c-.54-7.74-18.9-13.94-40.29-13.94S5.92,67.64,5.4,75.39h0v.08a4.61,4.61,0,0,0,0,.83,8.85,8.85,0,0,0,.16.87l10.64,97.68L16,173c.76,6.83,13.62,12.43,29.89,12.43S74.55,180.06,75.34,173l.2-1.73L85.78,77.15a8,8,0,0,0,.16-.85,4.72,4.72,0,0,0,0-.84Z"/><path class="cls-3" d="M8.21,89.93l8.66,79.58c.32,2.92,3.37,5.83,8.36,8,5.44,2.34,12.71,3.63,20.48,3.63,15.71,0,28.12-5,28.87-11.61l8.65-79.58Z"/><path class="cls-4" d="M45.68,171.71c-8,0-15.58-1.33-21.2-3.76-5.15-2.21-8.31-5.2-8.68-8.21l.43,3.92C20.36,169,31.67,173,45.68,173s25.48-3.8,29.53-9.33l.42-3.86C74.79,166.59,61.88,171.71,45.68,171.71Z"/><path class="cls-4" d="M91.34,68C91,80.24,66.18,86.59,45.67,86.59,23,86.59,0,80.24,0,68c0-16.61,20.45-34,45.67-34S91.78,51.42,91.34,68Z"/><path class="cls-4" d="M45.67,34.05C20.45,34.05,0,51.42,0,68,0,80.24,23,86.59,45.67,86.59,66.18,86.59,91,80.24,91.34,68,91.78,51.42,70.9,34.05,45.67,34.05Zm0,9.77c-5.75,0-10.42-1.79-10.42-4s4.67-4,10.42-4,10.43,1.79,10.43,4S51.43,43.82,45.67,43.82Z"/><path class="cls-5" d="M.08,68.25c0-9.67,20.41-17.51,45.59-17.51s45.6,7.84,45.6,17.51v7.46c0-9.67-20.41-17.51-45.6-17.51S.08,66,.08,75.71Z"/><ellipse class="cls-6" cx="45.68" cy="72" rx="44.56" ry="13.78"/><path class="cls-7" d="M83.23,89.93c-.86,7.75-16.8,14.22-37.51,14.22S9.07,97.72,8.21,89.93,25,75.71,45.72,75.71,84.09,82.13,83.23,89.93Z"/><path class="cls-8" d="M31.09,80.69a.36.36,0,0,1,.23.59c-1.58,1.79-5.5,2.35-9,5.45s-8.85,9.65-1.7,11.39a.08.08,0,0,1,0,.16c-4.76-.45-8.91-4.64-3.54-11C22.22,81.26,29,80.39,31.09,80.69Z"/><path class="cls-8" d="M62.79,89.8a.24.24,0,0,1,.08-.46c1.95.1,4.42,1.14,1.69,3.58-3.47,3.09-22.13,7.26-29.51,2.5-7-4.51-7.13-11.87-2.85-12.81a.38.38,0,0,1,.44.52c-1.25,3.09-.55,12,10.28,13.22C53.91,97.55,68,91.82,62.79,89.8Z"/><path class="cls-8" d="M54.36,88.81A.6.6,0,0,1,54.7,90c-5.4,1.9-14.52,2.76-19.1.12-6.59-3.8-4.71-7.78,6.63-9.25S70.6,81.28,76,84.72c5,3.19,4,6-2,8.37a.32.32,0,0,1-.36-.51C76.11,89.81,75,87,65,85.5c-11.29-1.71-28.67-.78-23.42,2.36C45.07,90,50.35,89.77,54.36,88.81Z"/><path class="cls-8" d="M36.52,79.2A22.46,22.46,0,0,1,48,77.71a.23.23,0,0,1,0,.46,91.75,91.75,0,0,0-11.38,1.37A.18.18,0,0,1,36.52,79.2Z"/><g class="cls-9"><g class="cls-10"><path class="cls-11" d="M76.34,102.68c-2.59,3-5.91,5.25-8.72,8a2.33,2.33,0,0,1-2.82.14,68,68,0,0,0-11.89-4.27,2.89,2.89,0,0,1-2.45-2.89,73,73,0,0,0-2.37-12.25c-.44-1.62.07-2.51,1.38-3.54,3.32-2.61,6.48-5.43,9.59-8.28a2.62,2.62,0,0,1,3.34-.55,87.74,87.74,0,0,0,12.12,4.21c1.58.39,2.09,1.13,2.3,2.71.54,4,1.2,8,2.13,11.88.69,2.86.52,3.58-2.38,4.54-.33-.8,1-1.59,0-2.38.43-.8,1.17-1.59,0-2.39.87-2.79,0-5.41-.8-8l-.63.09a.37.37,0,0,0-.2-.13c.77-.83.33-1.61-.1-2.39.09-.5,0-1-.49-1.2-2-.63-3.77-2-5.91-2.23l-1.73-1c-.33-2.34-2-1.68-3.48-1.6a1,1,0,0,0-1.18-.26,2.05,2.05,0,0,0-2.26.28A32.17,32.17,0,0,0,57,83.7c-2.09,1.86-4.49,3.41-5.82,6-1,1.39-.2,2.18,1,2.56a12.52,12.52,0,0,0,6.68.33c.56,1,1.64,1.4,2.56,2a14,14,0,0,0-4.74,3.55c-.57.64-.89,1.66-1.57,2-1.1.56-.76-1.66-2.21-1.24.59,1.09,0,2.24.09,3.41-.62,1-1,1.86.36,2.52,1.87,1.39,4.19,1.29,6.3,1.92a3.39,3.39,0,0,0,4.73,1l.74.45c.65.33,1.66,1.22,1.66-.29a23.89,23.89,0,0,0-.46-6.53h0l-.14-.57h0a.68.68,0,0,0,0-1l.24-1.75c2.53.23,4.53,1.63,6.57,2.93l-1.49,3.08c1.74-.34,2.58-1.42,3.58-2.23Z"/><path class="cls-12" d="M76.34,102.68,75,101.87c.52-.61,1-1.23,1.54-1.84,1,.79-.33,1.58,0,2.38Z"/><path class="cls-13" d="M68.44,83.74c2.14.28,3.89,1.6,5.91,2.23.48.15.58.7.49,1.2-.78-.48-1.64-1.29-2.46-.28C70.94,88.66,69,90,67.84,92.15A7.64,7.64,0,0,0,71,90.45c1.17-.79,2.33-2,4-.89a.37.37,0,0,1,.2.13l.63-.09c.75,2.63,1.67,5.25.8,8l-1.32.63c-2.63-1.88-5.79-2.57-8.7-3.83-.6-2.3-2.84-1.91-4.37-2.68.54-2.88-.55-5.54-1.15-8.26l.37-.65a25.74,25.74,0,0,1,4.94,1.25C67,84.4,67.88,84.68,68.44,83.74Z"/><path class="cls-14" d="M65.08,108.18l-.74-.45-.59-.49a52.63,52.63,0,0,1-1-6.38c0-1-.68-.6-1.23-.22-1.73,1.2-3.38,2.59-5.54,3a1.74,1.74,0,0,1-.76-1.33c-.27-1.28-.7-1.76-1.59-.35-.11.18-.43.23-.66.34-.06-1.17.5-2.32-.09-3.41,1.45-.42,1.11,1.8,2.21,1.24.68-.34,1-1.36,1.57-2a14,14,0,0,1,4.74-3.55h.89c.09,1.33.17,2.65.29,4,.06.73.23,1.45,1.2.78.64-.44,1.62-.25,2.05-1.09l.19-.36.37.22-.24,1.75c-.09.32-.24.65,0,1h0c-.09.22-.1.43.14.57h0C65.3,103.53,65.63,105.93,65.08,108.18Z"/><path class="cls-15" d="M66.37,98.09,66,97.87l-.06-.56.36-.13-.21-.2v0c.29-.29.41-.6.06-.93v0l.38-1.66c2.91,1.26,6.07,2,8.7,3.83L72.94,101C70.9,99.72,68.9,98.32,66.37,98.09Z"/><path class="cls-16" d="M51.14,89.71c1.33-2.6,3.73-4.15,5.82-6a32.17,32.17,0,0,1,2.83-2.53,2.07,2.07,0,0,1,2.27-.28,5.84,5.84,0,0,1-2,2.56l-.08.17a6.19,6.19,0,0,0-3.24,2c-1.49,1.2-1.43,3.27-2.57,4.66C53,91.05,51.9,91.2,51.14,89.71Z"/><path class="cls-16" d="M66.55,94.44c-.13.56-.25,1.11-.38,1.66l-2.1-1.22a3,3,0,0,0-1.8-.31h-.89c-.92-.56-2-.92-2.56-2l0-.91c1.13-.73,2.21.43,3.33.07C63.71,92.53,66,92.14,66.55,94.44Z"/><path class="cls-15" d="M74.94,89.56c-1.62-1.07-2.78.1-4,.89a7.64,7.64,0,0,1-3.15,1.7c1.13-2.19,3.1-3.49,4.54-5.26.82-1,1.68-.2,2.46.28C75.27,88,75.71,88.73,74.94,89.56Z"/><path class="cls-17" d="M58.85,91.69l0,.91a12.52,12.52,0,0,1-6.68-.33c-1.2-.38-2-1.17-1-2.56.76,1.49,1.84,1.34,3,.61A18.56,18.56,0,0,0,58.85,91.69Z"/><path class="cls-16" d="M72.94,101l2.31-2.75,1.32-.63c1.17.8.43,1.59,0,2.39-.51.61-1,1.23-1.54,1.84-1,.81-1.84,1.89-3.58,2.23Z"/><path class="cls-18" d="M65.08,108.18c.55-2.25.22-4.65,1.2-6.82a23.89,23.89,0,0,1,.46,6.53C66.74,109.4,65.73,108.51,65.08,108.18Z"/><path class="cls-15" d="M53,102.28c.23-.11.55-.16.66-.34.89-1.41,1.32-.93,1.59.35a1.74,1.74,0,0,0,.76,1.33,2.21,2.21,0,0,0-.18.34c-.71.6-1.88-.13-2.47.84C52,104.14,52.33,103.23,53,102.28Z"/><path class="cls-19" d="M68.44,83.74c-.56.94-1.4.66-2.1.36a25.74,25.74,0,0,0-4.94-1.25,2.48,2.48,0,0,1,1.68-1.31,3.48,3.48,0,0,0,3.63,1.21Z"/><path class="cls-17" d="M53.31,104.8c.59-1,1.76-.24,2.47-.84.92,1.83,3,1.41,4.42,2.24l-.59.52C57.5,106.09,55.18,106.19,53.31,104.8Z"/><path class="cls-18" d="M59.61,106.72l.59-.52c1.19.32,2.24,1.11,3.55,1l.59.49A3.39,3.39,0,0,1,59.61,106.72Z"/><path class="cls-20" d="M66.71,82.75a3.48,3.48,0,0,1-3.63-1.21l.15-.39C64.67,81.07,66.38,80.41,66.71,82.75Z"/><path class="cls-21" d="M63.23,81.15l-.15.39a2.48,2.48,0,0,0-1.68,1.31L61,83.5a.88.88,0,0,1-1,0,5.84,5.84,0,0,0,2-2.56A1,1,0,0,1,63.23,81.15Z"/><path class="cls-18" d="M66.15,100.81c-.26-.32-.11-.65,0-1A.68.68,0,0,1,66.15,100.81Z"/><path class="cls-15" d="M75.77,89.6l-.63.09Z"/><path class="cls-18" d="M66.28,101.37c-.24-.14-.23-.35-.14-.57C66.19,101,66.24,101.18,66.28,101.37Z"/><path class="cls-22" d="M60.07,83.45a.88.88,0,0,0,1,0c.6,2.72,1.69,5.38,1.15,8.26-1.12.36-2.2-.8-3.33-.07a18.56,18.56,0,0,1-4.67-1.37c1.14-1.39,1.08-3.46,2.57-4.66a3.71,3.71,0,0,0,3.24-2Z"/><path class="cls-22" d="M63.75,107.24c-1.31.07-2.36-.72-3.55-1-1.43-.83-3.5-.41-4.42-2.24a2.21,2.21,0,0,1,.18-.34c2.16-.39,3.81-1.78,5.54-3,.55-.38,1.18-.82,1.23.22A52.63,52.63,0,0,0,63.75,107.24Z"/><path class="cls-19" d="M62.27,94.57a3,3,0,0,1,1.8.31c-1.34,2.12.53,2.56,1.74,3.35-.43.84-1.41.65-2.05,1.09-1,.67-1.14,0-1.2-.78C62.44,97.22,62.36,95.9,62.27,94.57Z"/><path class="cls-23" d="M65.81,98.23c-1.21-.79-3.08-1.23-1.74-3.35l2.1,1.22v0c-.42.28-.2.61-.06.93v0l-.15.33.06.56Z"/><path class="cls-16" d="M66.1,97c-.14-.32-.36-.65.06-.93C66.51,96.41,66.39,96.72,66.1,97Z"/><path class="cls-16" d="M65.94,97.31l.15-.33.21.2Z"/><path class="cls-21" d="M60,83.62a3.71,3.71,0,0,1-3.24,2A6.19,6.19,0,0,1,60,83.62Z"/></g></g><rect class="cls-24" x="41.23" y="1.23" width="8.9" height="88.27"/><path class="cls-25" d="M41.23,86.5q2.22.09,4.44.09c1.47,0,3,0,4.45-.1V43.43a25.53,25.53,0,0,1-8.89,0Z"/><g class="cls-9"><g class="cls-26"><g class="cls-27"><path class="cls-28" d="M20.67,91.43c1.08-.33,1.51-1.34,2.07-2.15,1.84-2.66,3.63-5.37,5.38-8.1a2.89,2.89,0,0,1,3.2-1.44c4.08.46,8.18.69,12.28.92a2.49,2.49,0,0,1,2.54,1.85A79,79,0,0,0,51.3,93.72a2.32,2.32,0,0,1-.19,2.93,85.32,85.32,0,0,0-7.3,10.48A2.29,2.29,0,0,1,41,108.2a68.76,68.76,0,0,0-12.48-1c-1.44,0-1.85-1-2.37-2.06-1.88-3.94-3.2-8.17-5.9-11.7Zm5.18-3.51c-2.14-.16-2,1.72-2.56,2.91l-.6.94c-.09.71-.55,1.47-.1,2.15C23.65,95.5,24.08,97.36,25,99c1,1.79,1.53,3.93,3.71,4.8.76,1.81,1.54.47,2-.1,1.45-1.72,1.66-4,2.39-6,1.11-.38,1.48-1.52,2.25-2.25l.15,0,.16,0c-.71,3.34,2,5.32,3.21,7.92a4.31,4.31,0,0,0-2.57,1.41c1.56-.44,2.51.48,3.66.67.52.51.89,1.36,1.87.8,1,.12,1.27-.7,1.64-1.28.85-1.36,1.6-2.79,2.38-4.2a3.62,3.62,0,0,0,2.38-4.16c.06-.32.12-.64.17-1,.39-.09.88-.06.92-.6s-.54-.67-1-.78l-8.4-2.15c.59-2.31,2.6-3.57,4-5.31.57.56,1.12,1.15,1.72,1.67s.86.32.91-.4c.11-1.42-3.08-5.51-4.54-5.81-2.59-.42-5.12-1.37-7.8-.72l-2.45,0c-.83-.2-1.31.1-1.4,1l-.2.74c-1.66.63-2.37,2.14-3.2,3.52Z"/><path class="cls-21" d="M26.94,86.83c.83-1.38,1.54-2.89,3.2-3.52.42.1.84.31.89.73.28,2.38,2.62,3.3,3.54,5.26,0-2.63-2.25-5-.38-7.72,2.68-.65,5.21.3,7.8.72-.39.79.15,1.43.36,2.13a13.31,13.31,0,0,0-5.5,7c-2.18-.57-2.69,1.35-3.71,2.5A65.46,65.46,0,0,1,25,92.73c.14-1.54,1.12-2.64,1.94-3.84C27.41,88.24,28.31,87.5,26.94,86.83Z"/><path class="cls-21" d="M45.85,100.81c-.78,1.41-1.53,2.84-2.38,4.2-.37.58-.67,1.4-1.64,1.28-.1-.94,1.15-2.06-.19-2.79a2.11,2.11,0,0,0-1.89.17c-.59.47.44,1.15.21,1.82-1.15-.19-2.1-1.11-3.66-.67a4.31,4.31,0,0,1,2.57-1.41c-1.19-2.6-3.92-4.58-3.21-7.92.43-.32.9-.16,1.35-.08,2.89.44,2.89.44,3.22-2.25,2.93.17,5.42,1.76,8.17,2.52,0,.33-.11.65-.17,1l-.74,0a21.24,21.24,0,0,1-6.76-.53c0,2.14,1.25,3.68,1.37,5.52,0,.47,0,1.18.75,1.26s.95-.4,1.31-.82c.56-.67.47-1.89,1.68-2Z"/><path class="cls-29" d="M36.85,91.45a13.31,13.31,0,0,1,5.5-7l1.55,2.41c-1.36,1.74-3.37,3-4,5.32L38,91.82Z"/><path class="cls-16" d="M28.68,103.8c-2.18-.87-2.74-3-3.71-4.8-.89-1.64-1.32-3.5-2.38-5.08-.45-.68,0-1.44.1-2.15.93.19,1.27,1,1.72,1.67.65,3.41,2.23,6.16,5.48,7.72C29.66,102.12,30.06,103.37,28.68,103.8Z"/><path class="cls-30" d="M36.85,91.45l1.17.38c0,.13-.06.26-.09.39a3.85,3.85,0,0,0-2.58,3.19c-.77.73-1.14,1.87-2.25,2.25L32,97.42c0-1.29.9-2.27,1.19-3.47C34.16,92.8,34.67,90.88,36.85,91.45Z"/><path class="cls-29" d="M34.19,81.58c-1.87,2.67.36,5.09.38,7.72-.92-2-3.26-2.88-3.54-5.26-.05-.42-.47-.63-.89-.73.07-.24.13-.49.2-.74a1.31,1.31,0,0,0,1.4-1Z"/><path class="cls-19" d="M35.35,95.41a3.85,3.85,0,0,1,2.58-3.19c.77.29,1.77,0,2.3.94-.33,2.69-.33,2.69-3.22,2.25-.45-.08-.92-.24-1.35.08l-.16,0Z"/><path class="cls-18" d="M43.9,86.84l-1.55-2.41c-.21-.7-.75-1.34-.36-2.13,1.46.3,4.65,4.39,4.54,5.81-.05.72-.41.83-.91.4S44.47,87.4,43.9,86.84Z"/><path class="cls-21" d="M32,97.42l1.15.24c-.73,2-.94,4.32-2.39,6-.49.57-1.27,1.91-2,.1,1.38-.43,1-1.68,1.21-2.64A12.22,12.22,0,0,0,32,97.42Z"/><path class="cls-18" d="M40.23,93.16c-.53-.89-1.53-.65-2.3-.94,0-.13,0-.26.09-.39l1.92.33,8.4,2.14c.44.11,1,.11,1,.78s-.53.51-.92.6C45.65,94.92,43.16,93.33,40.23,93.16Z"/><path class="cls-12" d="M24.41,93.44c-.45-.68-.79-1.48-1.72-1.67l.6-.94c1.74-.19,2.35-1.37,2.56-2.91.36-.36.73-.72,1.09-1.09,1.37.67.47,1.41,0,2.06-.82,1.2-1.8,2.3-1.94,3.84Z"/><path class="cls-29" d="M40,105.49c.23-.67-.8-1.35-.21-1.82a2.11,2.11,0,0,1,1.89-.17c1.34.73.09,1.85.19,2.79C40.85,106.85,40.48,106,40,105.49Z"/><path class="cls-18" d="M47.49,96.67l.74,0a3.62,3.62,0,0,1-2.38,4.16v-.71C46.14,98.83,47.39,98,47.49,96.67Z"/><path class="cls-18" d="M25.85,87.92c-.21,1.54-.82,2.72-2.56,2.91C23.89,89.64,23.71,87.76,25.85,87.92Z"/><path class="cls-21" d="M31.74,81.61a1.31,1.31,0,0,1-1.4,1C30.43,81.71,30.91,81.41,31.74,81.61Z"/><path class="cls-28" d="M24.41,93.44l.61-.71A65.46,65.46,0,0,0,33.14,94c-.29,1.2-1.18,2.18-1.19,3.47a12.22,12.22,0,0,1-2.06,3.74C26.64,99.6,25.06,96.85,24.41,93.44Z"/><path class="cls-28" d="M47.49,96.67c-.1,1.35-1.35,2.16-1.64,3.43-1.22.11-1.13,1.33-1.69,2-.36.42-.71.88-1.31.82s-.72-.79-.75-1.26c-.12-1.84-1.35-3.38-1.37-5.52A21.24,21.24,0,0,0,47.49,96.67Z"/></g></g></g><ellipse class="cls-31" cx="45.67" cy="1.23" rx="4.45" ry="1.23"/><path class="cls-32" d="M91.27,75.71c0,9.68-20.41,17.52-45.6,17.52S.08,85.39.08,75.71V68.25c0,9.68,20.41,17.52,45.59,17.52s45.6-7.84,45.6-17.52Z"/><path class="cls-33" d="M36.28,135.81c2.46,3.56,3.7,5.28,6.17,8.6.17,4.28.25,6.42.42,10.7a.59.59,0,0,1-.63.62c-1.35-.08-2-.13-3.37-.28a.71.71,0,0,1-.62-.63C37.46,147.23,37.07,143.42,36.28,135.81Z"/><path class="cls-33" d="M52.53,155.47h0a.54.54,0,0,1-.5-.2c-1.69-2.06-12.89-17-14.77-19.67-2-2.91-2-3.8-5.71-4.85a.87.87,0,0,1-.58-.66c0-.21,0-.31-.09-.52a.49.49,0,0,1,.61-.59,53.23,53.23,0,0,0,7.91,1.29.69.69,0,0,1,.51.32c5.49,8.46,8.26,12.39,13.73,19.66-.19,1.84-.29,2.75-.49,4.59A.71.71,0,0,1,52.53,155.47Z"/><path class="cls-33" d="M55.2,135.47c-.57,5.42-.86,8.13-1.43,13.55-1.88-2.55-2.83-3.86-4.72-6.55.19-4.56.29-6.84.48-11.39a.69.69,0,0,1,.63-.65A52.6,52.6,0,0,0,60,129a.48.48,0,0,1,.61.58c0,.23-.05.34-.09.57a.83.83,0,0,1-.55.66C56.64,131.85,55.49,133.86,55.2,135.47Z"/><path class="cls-33" d="M45.72,129h0a1.12,1.12,0,0,1-1.12-1.12V114.76a1.11,1.11,0,0,1,1.12-1.1h0a1.11,1.11,0,0,1,1.12,1.1V127.9A1.12,1.12,0,0,1,45.72,129Z"/><path class="cls-33" d="M49.37,120.54a8.18,8.18,0,0,1,5.48,7,.52.52,0,0,0,.62.47l1-.15a.78.78,0,0,0,.62-.79,9.9,9.9,0,0,0-6.81-8.64,1.15,1.15,0,0,0-1.52,1.07v.07A1,1,0,0,0,49.37,120.54Z"/><path class="cls-33" d="M36.59,127.55a8.19,8.19,0,0,1,5.47-7,1,1,0,0,0,.65-1h0a1.19,1.19,0,0,0-1.57-1.11,9.87,9.87,0,0,0-6.76,8.62.78.78,0,0,0,.62.79l1,.15A.53.53,0,0,0,36.59,127.55Z"/><path class="cls-33" d="M58.84,154.47c-1.41.29-2.12.42-3.53.64a.69.69,0,0,1-.79-.43,1,1,0,0,1,.23-1c1.31-1.56,2-2.36,3.27-4,.39-.5.65-1.2.19-1.62a.86.86,0,0,0-.77-.17,1.09,1.09,0,0,0-.61.4l-.31.38a1,1,0,0,1-1.31.32.93.93,0,0,1,0-1.31l.32-.38a3.67,3.67,0,0,1,2-1.28,2.31,2.31,0,0,1,2.08.42c1,.9.88,2.63-.32,4.19-.72.92-1.08,1.38-1.81,2.28l1.52-.31a.66.66,0,0,1,.83.75A1.37,1.37,0,0,1,58.84,154.47Z"/></g></g></svg>