<svg xmlns="http://www.w3.org/2000/svg" xmlns:xlink="http://www.w3.org/1999/xlink" viewBox="0 0 91.35 185.38"><defs><style>.cls-1{fill:none;}.cls-2,.cls-30,.cls-4{fill:#ebf6f9;}.cls-12,.cls-2{opacity:0.8;}.cls-3{fill:url(#名称未設定グラデーション_165);}.cls-4{opacity:0.6;}.cls-32,.cls-5,.cls-6{fill:#9fcde3;}.cls-5{opacity:0.5;}.cls-30,.cls-6{opacity:0.7;}.cls-7{fill:url(#名称未設定グラデーション_169);}.cls-8{fill:url(#名称未設定グラデーション_172);}.cls-9{fill:url(#名称未設定グラデーション_172-2);}.cls-10{fill:url(#名称未設定グラデーション_172-3);}.cls-11{fill:url(#名称未設定グラデーション_172-4);}.cls-13{clip-path:url(#clip-path);}.cls-14{opacity:0.9;}.cls-15{fill:#c2d9e7;}.cls-16{fill:#96bdd5;}.cls-17{fill:#71a1c2;}.cls-18{fill:#fbfdfe;}.cls-19{fill:#fff;}.cls-20{fill:#6599bc;}.cls-21{fill:#f9fbfd;}.cls-22{fill:#86b0cc;}.cls-23{clip-path:url(#clip-path-2);}.cls-24{fill:#bad4e4;}.cls-25{fill:#5b90b6;}.cls-26{fill:#8ab3cf;}.cls-27{fill:#f3f8fb;}.cls-28{fill:#6b9cbf;}.cls-29{fill:#c878af;}.cls-31{fill:#a93c91;}.cls-33{fill:#323333;}</style><linearGradient id="名称未設定グラデーション_165" x1="45.72" y1="189.79" x2="45.72" y2="101.36" gradientUnits="userSpaceOnUse"><stop offset="0" stop-color="#aadadb"/><stop offset="0.48" stop-color="#aad6f3"/><stop offset="1" stop-color="#f4d3e5"/></linearGradient><radialGradient id="名称未設定グラデーション_169" cx="45.72" cy="89.93" r="35.5" gradientTransform="translate(0 58.43) scale(1 0.35)" gradientUnits="userSpaceOnUse"><stop offset="0" stop-color="#aad6f3"/><stop offset="1" stop-color="#f4d3e5"/></radialGradient><radialGradient id="名称未設定グラデーション_172" cx="22.97" cy="89.46" r="8.63" gradientUnits="userSpaceOnUse"><stop offset="0" stop-color="#f4d3e5"/><stop offset="1" stop-color="#aad6f3"/></radialGradient><radialGradient id="名称未設定グラデーション_172-2" cx="47.55" cy="90.09" r="13.93" xlink:href="#名称未設定グラデーション_172"/><radialGradient id="名称未設定グラデーション_172-3" cx="55.51" cy="86.73" r="17.35" xlink:href="#名称未設定グラデーション_172"/><radialGradient id="名称未設定グラデーション_172-4" cx="42.33" cy="78.52" r="4.24" xlink:href="#名称未設定グラデーション_172"/><clipPath id="clip-path"><path id="SVGID" class="cls-1" d="M46.94,85.05c-1.6.69-1.38,4.42-1.38,4.42s11,7.45,12.33,8.08,10.83-.73,12.33-1.72,4.07-7.48,5.31-10.3-19.3-9.79-19.3-9.79Z"/></clipPath><clipPath id="clip-path-2"><path id="SVGID-2" data-name="SVGID" class="cls-1" d="M11,84.61s12.33,10,16.87,9.46,18.93-2.72,19.72-4.59-9.13-17.2-9.13-17.2Z"/></clipPath></defs><title>アセット 22</title><g id="レイヤー_2" data-name="レイヤー 2"><g id="レイヤー_1-2" data-name="レイヤー 1"><path class="cls-2" d="M86,75.37h0c-.54-7.74-18.9-13.94-40.29-13.94S5.92,67.64,5.4,75.39h0v.08a4.61,4.61,0,0,0,0,.83,8.85,8.85,0,0,0,.16.87l10.64,97.68L16,173c.76,6.83,13.62,12.43,29.89,12.43S74.55,180.06,75.34,173l.2-1.73L85.78,77.15a8,8,0,0,0,.16-.85,4.72,4.72,0,0,0,0-.84Z"/><path class="cls-3" d="M8.21,89.93l8.66,79.58c.32,2.92,3.37,5.83,8.36,8,5.44,2.34,12.71,3.63,20.48,3.63,15.71,0,28.12-5,28.87-11.61l8.65-79.58Z"/><path class="cls-4" d="M45.68,171.71c-8,0-15.58-1.33-21.2-3.76-5.15-2.21-8.31-5.2-8.68-8.21l.43,3.92C20.36,169,31.67,173,45.68,173s25.48-3.8,29.53-9.33l.42-3.86C74.79,166.59,61.88,171.71,45.68,171.71Z"/><path class="cls-4" d="M91.34,68C91,80.24,66.18,86.59,45.67,86.59,23,86.59,0,80.24,0,68c0-16.61,20.45-34,45.67-34S91.78,51.42,91.34,68Z"/><path class="cls-4" d="M45.67,34.05C20.45,34.05,0,51.42,0,68,0,80.24,23,86.59,45.67,86.59,66.18,86.59,91,80.24,91.34,68,91.78,51.42,70.9,34.05,45.67,34.05Zm0,9.77c-5.75,0-10.42-1.79-10.42-4s4.67-4,10.42-4,10.43,1.79,10.43,4S51.43,43.82,45.67,43.82Z"/><path class="cls-5" d="M.08,68.25c0-9.67,20.41-17.51,45.59-17.51s45.6,7.84,45.6,17.51v7.46c0-9.67-20.41-17.51-45.6-17.51S.08,66,.08,75.71Z"/><ellipse class="cls-6" cx="45.68" cy="72" rx="44.56" ry="13.78"/><path class="cls-7" d="M83.23,89.93c-.86,7.75-16.8,14.22-37.51,14.22S9.07,97.72,8.21,89.93,25,75.71,45.72,75.71,84.09,82.13,83.23,89.93Z"/><path class="cls-8" d="M31.09,80.69a.36.36,0,0,1,.23.59c-1.58,1.79-5.5,2.35-9,5.45s-8.85,9.65-1.7,11.39a.08.08,0,0,1,0,.16c-4.76-.45-8.91-4.64-3.54-11C22.22,81.26,29,80.39,31.09,80.69Z"/><path class="cls-9" d="M62.79,89.8a.24.24,0,0,1,.08-.46c1.95.1,4.42,1.14,1.69,3.58-3.47,3.09-22.13,7.26-29.51,2.5-7-4.51-7.13-11.87-2.85-12.81a.38.38,0,0,1,.44.52c-1.25,3.09-.55,12,10.28,13.22C53.91,97.55,68,91.82,62.79,89.8Z"/><path class="cls-10" d="M54.36,88.81A.6.6,0,0,1,54.7,90c-5.4,1.9-14.52,2.76-19.1.12-6.59-3.8-4.71-7.78,6.63-9.25S70.6,81.28,76,84.72c5,3.19,4,6-2,8.37a.32.32,0,0,1-.36-.51C76.11,89.81,75,87,65,85.5c-11.29-1.71-28.67-.78-23.42,2.36C45.07,90,50.35,89.77,54.36,88.81Z"/><path class="cls-11" d="M36.52,79.2A22.46,22.46,0,0,1,48,77.71a.23.23,0,0,1,0,.46,91.75,91.75,0,0,0-11.38,1.37A.18.18,0,0,1,36.52,79.2Z"/><g class="cls-12"><g class="cls-13"><g class="cls-14"><path class="cls-15" d="M46.8,89.59c1.12-.14,1.72-1,2.41-1.75,2.29-2.29,4.53-4.64,6.74-7A2.9,2.9,0,0,1,59.36,80c3.93,1.18,7.92,2.13,11.91,3.09a2.49,2.49,0,0,1,2.18,2.27,79.09,79.09,0,0,0,3.08,12,2.3,2.3,0,0,1-.71,2.85,85.44,85.44,0,0,0-9,9,2.32,2.32,0,0,1-2.92.57,68.55,68.55,0,0,0-12.1-3.22c-1.42-.26-1.65-1.28-2-2.45-1.15-4.21-1.7-8.61-3.72-12.56Zm5.72-2.53c-2.08-.54-2.23,1.34-3,2.41l-.75.81c-.22.69-.81,1.35-.49,2.1.77,1.74.86,3.65,1.44,5.42.63,1.94.81,4.14,2.8,5.39.42,1.91,1.44.74,2,.26,1.73-1.44,2.34-3.64,3.42-5.52,1.17-.18,1.73-1.23,2.62-1.81l.14.07.15.06c-1.3,3.16,1,5.59,1.75,8.37a4.26,4.26,0,0,0-2.78.93c1.61-.16,2.38.92,3.48,1.3.42.6.64,1.5,1.7,1.12.93.3,1.38-.45,1.84-1,1.08-1.19,2.07-2.47,3.09-3.71A3.62,3.62,0,0,0,73,99.63l.34-.93c.4,0,.88.09,1-.43s-.41-.75-.83-.94l-7.88-3.6c1-2.18,3.19-3.06,4.84-4.53.47.65.9,1.33,1.4,2s.79.46,1-.23c.36-1.38-2-6-3.44-6.53-2.47-.87-4.8-2.25-7.55-2.09l-2.42-.41c-.77-.34-1.3-.14-1.54.7l-.33.7c-1.75.32-2.71,1.67-3.77,2.89Z"/><path class="cls-16" d="M53.79,86.18c1.06-1.22,2-2.57,3.77-2.89.4.17.77.44.74.87-.14,2.39,2,3.72,2.56,5.81.44-2.6-1.32-5.38,1-7.67,2.75-.16,5.08,1.22,7.55,2.09-.52.71-.11,1.44,0,2.16a13.38,13.38,0,0,0-6.66,5.93c-2-.94-2.89.86-4.1,1.81a69.2,69.2,0,0,1-7.78-2.65c.42-1.49,1.58-2.4,2.6-3.43C54,87.65,55,87.08,53.79,86.18Z"/><path class="cls-16" d="M69.91,103.3c-1,1.24-2,2.52-3.09,3.71-.46.51-.91,1.26-1.84,1,.07-.94,1.5-1.82.3-2.77A2.08,2.08,0,0,0,63.4,105c-.66.35.23,1.21-.12,1.82-1.1-.38-1.87-1.46-3.48-1.3a4.26,4.26,0,0,1,2.78-.93c-.71-2.78-3-5.21-1.75-8.37.48-.24.91,0,1.34.16,2.76,1,2.76,1,3.57-1.65,2.85.7,5,2.71,7.59,3.94l-.34.93-.73-.12A21.35,21.35,0,0,1,65.7,97.8c-.36,2.1.58,3.84.36,5.67,0,.46-.19,1.16.52,1.37s1-.22,1.44-.58c.67-.55.79-1.77,2-1.67Z"/><path class="cls-17" d="M62.72,92.48a13.38,13.38,0,0,1,6.66-5.93l1.09,2.65c-1.65,1.47-3.85,2.35-4.84,4.53l-1.83-.67Z"/><path class="cls-18" d="M52.48,103.19c-2-1.25-2.17-3.45-2.8-5.39C49.1,96,49,94.12,48.24,92.38c-.32-.75.27-1.41.49-2.1.88.36,1.07,1.2,1.39,2,0,3.48,1.1,6.46,4,8.57C53.75,101.71,53.91,103,52.48,103.19Z"/><path class="cls-19" d="M62.72,92.48l1.08.58-.16.37a3.85,3.85,0,0,0-3.1,2.69c-.89.58-1.45,1.63-2.62,1.81l-1.09-.44c.25-1.27,1.29-2.08,1.79-3.2C59.83,93.34,60.67,91.54,62.72,92.48Z"/><path class="cls-17" d="M61.85,82.3c-2.31,2.29-.55,5.07-1,7.67-.56-2.09-2.7-3.42-2.56-5.81,0-.43-.34-.7-.74-.87l.33-.7a1.3,1.3,0,0,0,1.54-.7Z"/><path class="cls-20" d="M60.54,96.12a3.85,3.85,0,0,1,3.1-2.69c.71.43,1.73.37,2.1,1.33-.81,2.6-.81,2.6-3.57,1.65-.43-.15-.86-.4-1.34-.16l-.15-.06Z"/><path class="cls-21" d="M70.47,89.2l-1.09-2.65c-.09-.72-.5-1.45,0-2.16,1.39.56,3.8,5.15,3.44,6.53-.18.69-.56.74-1,.23S70.94,89.85,70.47,89.2Z"/><path class="cls-16" d="M56.83,97.49l1.09.44c-1.08,1.88-1.69,4.08-3.42,5.52-.58.48-1.6,1.65-2-.26,1.43-.18,1.27-1.48,1.66-2.39A12.12,12.12,0,0,0,56.83,97.49Z"/><path class="cls-21" d="M65.74,94.76c-.37-1-1.39-.9-2.1-1.33l.16-.37,1.83.67,7.88,3.6c.42.19,1,.29.83.94s-.61.42-1,.43C70.76,97.47,68.59,95.46,65.74,94.76Z"/><path class="cls-22" d="M50.12,92.23c-.32-.75-.51-1.59-1.39-2l.75-.81c1.75.12,2.56-.94,3-2.41l1.27-.88c1.22.9.21,1.47-.35,2-1,1-2.18,1.94-2.6,3.43Z"/><path class="cls-17" d="M63.28,106.85c.35-.61-.54-1.47.12-1.82a2.08,2.08,0,0,1,1.88.17c1.2,1-.23,1.83-.3,2.77C63.92,108.35,63.7,107.45,63.28,106.85Z"/><path class="cls-21" d="M72.26,99.51l.73.12a3.62,3.62,0,0,1-3.08,3.67l.12-.71C70.55,101.4,71.91,100.83,72.26,99.51Z"/><path class="cls-21" d="M52.52,87.06c-.48,1.47-1.29,2.53-3,2.41C50.29,88.4,50.44,86.52,52.52,87.06Z"/><path class="cls-16" d="M59.43,81.89a1.3,1.3,0,0,1-1.54.7C58.13,81.75,58.66,81.55,59.43,81.89Z"/><path class="cls-15" d="M50.12,92.23l.72-.59a69.2,69.2,0,0,0,7.78,2.65c-.5,1.12-1.54,1.93-1.79,3.2a12.12,12.12,0,0,1-2.69,3.31C51.22,98.69,50.15,95.71,50.12,92.23Z"/><path class="cls-15" d="M72.26,99.51c-.35,1.32-1.71,1.89-2.23,3.08-1.22-.1-1.34,1.12-2,1.67-.43.36-.85.74-1.44.58s-.57-.91-.52-1.37c.22-1.83-.72-3.57-.36-5.67A21.35,21.35,0,0,0,72.26,99.51Z"/></g></g></g><g class="cls-12"><g class="cls-23"><path class="cls-24" d="M18,90.25c2.36-3,4.7-6.08,7.08-9.09.74-.93,1.75-.8,2.79-.58A80.59,80.59,0,0,0,39.4,82.4a2.31,2.31,0,0,1,2.32,1.87,74,74,0,0,0,4.1,11c.47,1.09.69,2-.16,3-2.26,2.59-4.49,5.2-6.74,7.81-.58-.58,1.19-2.35-1.05-2.07.47-2.52,1.36-4.8,3.66-6.25,0,1-.46,1.95.21,3a5.74,5.74,0,0,1,2.47-2.65,1.62,1.62,0,0,0,.65-2.41A9.52,9.52,0,0,0,42,91.87c-.11-.47-.29-.9-.86-.93a.27.27,0,0,0-.29.39c.19.54.64.61,1.13.57.33,1.48,1.5,2.92.22,4.47-.09-.53-.11-1.11-.88-1.1a2.17,2.17,0,0,0-1.89,1.28c-1.5,2.37-1.73,5.43-4,7.35H35c-.53-1.59-1.73-2.9-1.89-4.64.56.15,1.15.54,1.64-.09a1.43,1.43,0,0,0,0-1.69c-.76-1.31-1.55-2.61-2.33-3.92C36.06,92.24,38,89.29,39.51,86v0l.37-.49c.11-.6,1-1.09.39-1.77s-.94.06-1.37.32A52.59,52.59,0,0,0,28,82.29c-.64-.52-1.14-.08-1.66.23-1.89,1-2.23,3.12-3.45,4.59a1.21,1.21,0,0,1-.38.06c-1.43.44-2,1.67-2.71,2.84l-1.69.33Z"/><path class="cls-24" d="M38.75,106.22c-1.85,3.17-1.51,3-5,2.26s-7-1.19-10.56-1.68a2.46,2.46,0,0,1-2.4-2,50.75,50.75,0,0,0-3.89-10.34c-.87-1.88-.83-3.19,1.08-4.19l.11.09a.52.52,0,0,0,.41.65l.09.81c-1.08.81-.68,1.72-.18,2.63.77,1.39,1.56,2.76,2.34,4.14,0,1.94,1.17,3.48,1.76,5.21a2.1,2.1,0,0,0,2.36,1.45c2,1.2,4.32,1.09,6.49,1.59a12.33,12.33,0,0,0,4.8-.24l.45,0C37.4,107,38,106.16,38.75,106.22Z"/><path class="cls-21" d="M38.75,106.22c-.74-.06-1.35.76-2.15.34-.11-1.13.93-1.71,1.27-2.63,2.24-.28.47,1.49,1.05,2.07A.32.32,0,0,1,38.75,106.22Z"/><path class="cls-22" d="M31.36,106.82c-2.18-.5-4.5-.39-6.5-1.59,0-.53-.07-1.06-.1-1.59.59-.49,1.75-.83,1.44-1.67s-1.41-.26-2.16-.23a.71.71,0,0,0-.2,0l-.71-1.15c2.12-1.51,4.43-2.87,4.46-5.95l1.56-.23,1.24-.17.82,2.35c-1.11.71-1.47,2-2.38,2.93-1.95,2-1.87,2,.67,2.88.7.23,1.41.45,2.11.7.87.32,1.28.12,1.12-.89-.2-1.26-.35-2.54-.52-3.8a1.53,1.53,0,0,1,.91.8c.16,1.74,1.36,3,1.89,4.64-.62.3-1.84-.85-1.9.53S32.1,106.15,31.36,106.82Z"/><path class="cls-22" d="M28,82.29A52.59,52.59,0,0,1,38.9,84.13c-1.27,1.94-3.35,3.24-4.23,5.48l0,0a.37.37,0,0,0-.36.48v0a.65.65,0,0,0-.77.53l0,0-.43.5-1,.53a19.14,19.14,0,0,0-1.89-4.77C29.41,85.36,27.85,84.22,28,82.29Z"/><path class="cls-25" d="M28,82.29c-.12,1.93,1.44,3.07,2.25,4.53a19.14,19.14,0,0,1,1.89,4.77c0,.26,0,.51.08.77-1,.24-1.34,1.15-1.8,1.92l-1.24.17c.07-1.28-.77-1.5-1.77-1.54-.32-3.47-2.26-6.77-1.07-10.39C26.83,82.21,27.33,81.77,28,82.29Z"/><path class="cls-22" d="M26.31,82.52c-1.19,3.62.75,6.92,1.07,10.39a4.2,4.2,0,0,1-3.82-.27,2.84,2.84,0,0,0-2.47-.38l0-.19-.22-1.43h0c.95-.12,1.19-.7,1-1.56l.6-.71c.54-.05,1.06-.18,1.09-.83,0-.46-.39-.4-.7-.43C24.08,85.64,24.42,83.5,26.31,82.52Z"/><path class="cls-26" d="M37.87,103.93c-.34.92-1.38,1.5-1.27,2.63l-.45,0-.78-2.68c2.3-1.92,2.53-5,4-7.35a2.17,2.17,0,0,1,1.89-1.28c.77,0,.79.57.88,1.1h0a.83.83,0,0,0-.3.87v0l-.36.47h0C39.23,99.13,38.34,101.41,37.87,103.93Z"/><path class="cls-18" d="M30.39,94.28c.46-.77.77-1.68,1.8-1.92l.24,1.19c.78,1.31,1.57,2.61,2.33,3.92a1.43,1.43,0,0,1,0,1.69c-.49.63-1.08.24-1.64.09a1.53,1.53,0,0,0-.91-.8c-.05-.76-.17-1.48-1-1.82Z"/><path class="cls-26" d="M32.43,93.55l-.24-1.19c0-.26,0-.51-.08-.77l1-.53c.25-.08.43-.21.43-.5l0,0a.73.73,0,0,0,.77-.53v0l.36-.48,0,0c1.88-.84,2.85-2.9,4.84-3.58C38,89.29,36.06,92.24,32.43,93.55Z"/><path class="cls-26" d="M42.17,96.37c1.28-1.55.11-3-.22-4.47l0,0a9.52,9.52,0,0,1,2.89,3.79,1.62,1.62,0,0,1-.65,2.41,5.74,5.74,0,0,0-2.47,2.65c-.67-1.09-.23-2.07-.21-3h0l.36-.47v0a.88.88,0,0,0,.3-.87Z"/><path class="cls-25" d="M35.37,103.9l.78,2.68a12.33,12.33,0,0,1-4.8.24c.75-.67,1.7-1.06,1.76-2.4s1.28-.23,1.9-.53Z"/><path class="cls-27" d="M39.51,86c-2,.68-3,2.74-4.84,3.58.88-2.24,3-3.54,4.23-5.48.43-.26.87-.86,1.37-.32S40,85,39.88,85.58c-.13.16-.25.33-.37.49Z"/><path class="cls-27" d="M22.47,88.37l-.6.71c-.51.41-1.05.81-1,1.56h0c-.46.24-1,.89-1.21-.23l.13-.4c.67-1.17,1.28-2.4,2.71-2.84C22.48,87.57,22.47,88,22.47,88.37Z"/><path class="cls-28" d="M22.47,88.37c0-.4,0-.8,0-1.2a1.21,1.21,0,0,0,.38-.06c.31,0,.73,0,.7.43C23.53,88.19,23,88.32,22.47,88.37Z"/><path class="cls-26" d="M42,91.9c-.49,0-.94,0-1.13-.57a.27.27,0,0,1,.29-.39c.57,0,.75.46.86.93Z"/><path class="cls-22" d="M19.77,90c0,.13-.08.27-.13.4L18.49,91a.52.52,0,0,1-.41-.65Z"/><path class="cls-26" d="M39.51,86.07c.12-.16.24-.33.37-.49C39.75,85.74,39.63,85.91,39.51,86.07Z"/><path class="cls-22" d="M20.74,98.57c-.78-1.38-1.57-2.75-2.34-4.14-.5-.91-.9-1.82.18-2.63l2.08.52A6.73,6.73,0,0,0,21.11,96a2.31,2.31,0,0,1,0,2.5A.7.7,0,0,0,20.74,98.57Z"/><path class="cls-18" d="M20.74,98.57a.84.84,0,0,1,.35,0l2,2.1.71,1.15.92,1.86c0,.53.07,1.06.1,1.59a2.1,2.1,0,0,1-2.36-1.45C21.91,102.05,20.69,100.51,20.74,98.57Z"/><path class="cls-28" d="M20.66,92.32l-2.08-.52L18.49,91l1.15-.58c.21,1.12.75.47,1.21.23.07.48.15,1,.22,1.43Z"/><path class="cls-24" d="M20.66,92.32l.41-.25,0,.19c1.76,1.9,4.36,1.56,6.5,2.42,0,3.08-2.34,4.44-4.46,5.95l-2-2.1a2.29,2.29,0,0,0,0-2.49A6.73,6.73,0,0,1,20.66,92.32Z"/><path class="cls-24" d="M31.21,96.63c.83.34.95,1.06,1,1.82.17,1.26.32,2.54.52,3.8.16,1-.25,1.21-1.12.89-.7-.25-1.41-.47-2.11-.7-2.54-.84-2.62-.92-.67-2.88C29.74,98.65,30.1,97.34,31.21,96.63Z"/><path class="cls-21" d="M27.59,94.68c-2.14-.86-4.74-.52-6.5-2.42a2.84,2.84,0,0,1,2.47.38,4.2,4.2,0,0,0,3.82.27c1,0,1.84.26,1.77,1.54Z"/><path class="cls-28" d="M24.76,103.64l-.92-1.86a.71.71,0,0,1,.2,0c.75,0,1.82-.67,2.16.23S25.35,103.15,24.76,103.64Z"/><path class="cls-27" d="M34.34,90.05a.73.73,0,0,1-.77.53A.65.65,0,0,1,34.34,90.05Z"/><path class="cls-27" d="M33.59,90.56c0,.29-.18.42-.43.5Z"/><path class="cls-27" d="M34.69,89.59l-.36.48A.37.37,0,0,1,34.69,89.59Z"/><path class="cls-28" d="M20.84,90.64c0-.75.52-1.15,1-1.56C22,89.94,21.79,90.52,20.84,90.64Z"/><path class="cls-24" d="M42.17,96.37a.88.88,0,0,1-.3.87A.83.83,0,0,1,42.17,96.37Z"/><path class="cls-24" d="M41.88,97.22l-.36.47Z"/></g></g><rect class="cls-29" x="41.23" y="1.23" width="8.9" height="88.27"/><path class="cls-30" d="M41.23,86.5q2.22.09,4.44.09c1.47,0,3,0,4.45-.1V43.43a25.53,25.53,0,0,1-8.89,0Z"/><ellipse class="cls-31" cx="45.67" cy="1.23" rx="4.45" ry="1.23"/><path class="cls-32" d="M91.27,75.71c0,9.68-20.41,17.52-45.6,17.52S.08,85.39.08,75.71V68.25c0,9.68,20.41,17.52,45.59,17.52s45.6-7.84,45.6-17.52Z"/><path class="cls-33" d="M36.28,135.81c2.46,3.56,3.7,5.28,6.17,8.6.17,4.28.25,6.42.42,10.7a.59.59,0,0,1-.63.62c-1.35-.08-2-.13-3.37-.28a.71.71,0,0,1-.62-.63C37.46,147.23,37.07,143.42,36.28,135.81Z"/><path class="cls-33" d="M52.53,155.47h0a.54.54,0,0,1-.5-.2c-1.69-2.06-12.89-17-14.77-19.67-2-2.91-2-3.8-5.71-4.85a.87.87,0,0,1-.58-.66c0-.21,0-.31-.09-.52a.49.49,0,0,1,.61-.59,53.23,53.23,0,0,0,7.91,1.29.69.69,0,0,1,.51.32c5.49,8.46,8.26,12.39,13.73,19.66-.2,1.84-.29,2.75-.49,4.59A.71.71,0,0,1,52.53,155.47Z"/><path class="cls-33" d="M55.2,135.47c-.57,5.42-.86,8.13-1.43,13.55-1.88-2.55-2.83-3.86-4.72-6.55.19-4.56.29-6.84.48-11.39a.69.69,0,0,1,.63-.65A52.6,52.6,0,0,0,60,129a.48.48,0,0,1,.61.58c0,.23-.05.34-.09.57a.83.83,0,0,1-.55.66C56.64,131.85,55.49,133.86,55.2,135.47Z"/><path class="cls-33" d="M45.72,129h0a1.12,1.12,0,0,1-1.12-1.12V114.76a1.11,1.11,0,0,1,1.12-1.1h0a1.11,1.11,0,0,1,1.12,1.1V127.9A1.12,1.12,0,0,1,45.72,129Z"/><path class="cls-33" d="M49.37,120.54a8.18,8.18,0,0,1,5.48,7,.52.52,0,0,0,.62.47l1-.15a.78.78,0,0,0,.62-.79,9.9,9.9,0,0,0-6.81-8.64,1.15,1.15,0,0,0-1.52,1.07v.07A1,1,0,0,0,49.37,120.54Z"/><path class="cls-33" d="M36.59,127.55a8.19,8.19,0,0,1,5.47-7,1,1,0,0,0,.65-1h0a1.19,1.19,0,0,0-1.57-1.11,9.87,9.87,0,0,0-6.76,8.62.78.78,0,0,0,.62.79l1,.15A.53.53,0,0,0,36.59,127.55Z"/><path class="cls-33" d="M58.84,154.47c-1.41.29-2.12.42-3.53.64a.7.7,0,0,1-.8-.43,1.1,1.1,0,0,1,.24-1c1.31-1.56,2-2.36,3.27-4,.39-.5.65-1.2.19-1.62a.86.86,0,0,0-.77-.17,1.09,1.09,0,0,0-.61.4l-.31.38a1,1,0,0,1-1.31.32.93.93,0,0,1,0-1.31l.32-.38a3.67,3.67,0,0,1,2-1.28,2.31,2.31,0,0,1,2.08.42c1,.9.88,2.63-.32,4.19-.72.92-1.08,1.38-1.81,2.28l1.52-.31a.66.66,0,0,1,.83.75A1.37,1.37,0,0,1,58.84,154.47Z"/></g></g></svg>