<svg xmlns="http://www.w3.org/2000/svg" viewBox="0 0 91.48 91.48"><defs><style>.cls-1{fill:#fff;}.cls-2{fill:none;}</style></defs><title>favicon</title><g id="レイヤー_2" data-name="レイヤー 2"><g id="レイヤー_1-2" data-name="レイヤー 1"><path class="cls-1" d="M25.39,49.55,38.71,66.84,39.61,90a1.35,1.35,0,0,1-1.35,1.41H31a1.36,1.36,0,0,1-1.35-1.22Z"/><path class="cls-1" d="M60.4,91.4h0a1.34,1.34,0,0,1-1.08-.54C55.67,86,31.57,54.13,27.51,48.8c-4.36-5.71-4.4-7.8-12.44-8.26a1.37,1.37,0,0,1-1.27-1.13l-.18-1.09A1.36,1.36,0,0,1,15,36.73H32.12a1.38,1.38,0,0,1,1.13.59L62.8,80.37l-1,9.81A1.36,1.36,0,0,1,60.4,91.4Z"/><path class="cls-1" d="M66.18,48.83l-3.1,28.91L52.91,62.64l1-24.61a1.35,1.35,0,0,1,1.35-1.3H76.52a1.36,1.36,0,0,1,1.35,1.57l-.19,1.2a1.35,1.35,0,0,1-1.21,1.14C69.27,41.32,66.82,45.45,66.18,48.83Z"/><rect class="cls-1" x="43.34" y="0.08" width="4.81" height="33.25" rx="2.4"/><path class="cls-1" d="M53.6,15.2A19.84,19.84,0,0,1,65.43,31.57a1.35,1.35,0,0,0,1.35,1.24h2.09a1.36,1.36,0,0,0,1.36-1.47A24.64,24.64,0,0,0,55.48,10.77a2.33,2.33,0,0,0-3.27,2.13v.15A2.34,2.34,0,0,0,53.6,15.2Z"/><path class="cls-1" d="M26.06,31.57a19.81,19.81,0,0,1,11.8-16.36A2.38,2.38,0,0,0,39.28,13h0a2.41,2.41,0,0,0-3.38-2.2A24.64,24.64,0,0,0,21.25,31.33a1.37,1.37,0,0,0,1.36,1.48H24.7A1.37,1.37,0,0,0,26.06,31.57Z"/><path class="cls-1" d="M74.1,91.4H66.41a1.79,1.79,0,0,1-1.71-1.18,2.1,2.1,0,0,1,.5-2.15l7.11-7.46c.86-.92,1.43-2.31.42-3.44a2.2,2.2,0,0,0-1.68-.68,1.89,1.89,0,0,0-1.33.62l-.68.72a2,2,0,0,1-2.84.22,2,2,0,0,1,0-2.83l.68-.73a6.3,6.3,0,0,1,4.35-2,5.86,5.86,0,0,1,4.55,1.86c2.2,2.44,1.91,6.1-.71,8.9l-4,4.14h3.31a1.8,1.8,0,0,1,1.82,2A2.24,2.24,0,0,1,74.1,91.4Z"/><rect class="cls-2" width="91.48" height="91.48"/></g></g></svg>