<svg xmlns="http://www.w3.org/2000/svg" viewBox="0 0 227.19 202.29"><defs><style>.cls-1{opacity:0.6;}.cls-2{fill:#bdd6e5;}.cls-3{fill:#8ab3cf;}.cls-4{fill:#8db5d0;}.cls-5{fill:#6b9cbf;}.cls-6{fill:#fbfdfe;}.cls-7{fill:#6599bc;}.cls-8{fill:#f9fbfd;}.cls-9{fill:#f3f8fb;}.cls-10{fill:#bad4e4;}.cls-11{fill:#5b90b6;}</style></defs><title>アセット 15</title><g id="レイヤー_2" data-name="レイヤー 2"><g id="レイヤー_1-2" data-name="レイヤー 1"><g class="cls-1"><path class="cls-2" d="M44.36,180.17c-13.72-20.62-21.93-48.85-41.69-70.46-4.17-4.56-3.16-11.38,1-17.62A655,655,0,0,0,49.9,10.74C53.31,3.58,58.08.45,65.9.81c31.69,1.46,63.37,2.39,95-.72,6.79-.67,13.42,2.39,15.94,8.5C189.1,38.17,208.26,63.73,224,91.28c4.39,7.69,4.5,13.43-.82,21.27a596.11,596.11,0,0,0-44.79,78.84c-4.22,8.88-9.87,11.79-18.29,10.67-27.25-3.63-54.56-1.81-81.82-1.13C57.13,201.46,57.15,202.21,44.36,180.17ZM184.49,52.25c6.54-8.88,1.92-18-12.91-25.66l-3.26-5.07c-2.76-4.44-4.8-10.43-11.48-9.2-11.14,2-22.15-1.36-33.08-.31-17.44,1.67-36-2.73-51.86,8.67-8.81-4.48-11.84,0-8.84,7.42,7,17.29,18.53,31,36.48,38.17-3,9.23,2.61,16.12,6.39,23.51-20.55-5.93-41.07-4-62.06.53-1.29-5.5,3.62-11.49-1.32-16.62L27.07,89.12c-4.22,3.35-12.38,3.3-10.37,12-4.77,5-.34,8.86,1.69,13,5.59,11.49,13.85,21.06,22,30.67,2.08,11.92,5,23.24,18.93,26.84l3.31,5.23c.91,5.42,1.53,15.5,9.05,6.24,12.34-15.17,26.74-29,35.59-46.87l7.29-4c13.48,10.55,15.9,26.88,21.7,41.45-4.51,1.67-9.13,3.09-13.48,5.1-2.46,1.13-6.06,2.26-5.71,5.69.39,3.84,4.14,3.14,6.91,3.55,13.24,2,26-1.52,38.92-3.4,5.45-.8,8.14-4.9,7.57-10.66,16.94-12.49,24.37-31.11,32-49.6l6.12-17.81c1.63-1.9,3.39-4.78,1.8-6.45-10.08-10.59-11-26.35-21.18-36.8Q186.89,57.78,184.49,52.25Z"/><path class="cls-3" d="M202.53,124.39c-7.64,18.49-15.07,37.11-32,49.6l-9.25-3.59c-9.48-19.71-18.63-39.6-31-57.79,8.46-13.87-4.8-21.84-8.79-32.32,3.38-4.1,7.35-7.86,10-12.38,7.17-12,11.87-25.68,23.21-35C167,35.6,169.09,47.41,175,55.69c3.57,5,5.86,11.82,14.23,7.64,10.15,10.45,11.11,26.21,21.19,36.8,1.59,1.67-.17,4.55-1.79,6.45-2.17-3.08-3-8.28-7.63-8-16.56.91-33.09,2.45-49.63,3.75l-.53,5C169.42,109.52,188.79,109.57,202.53,124.39Z"/><path class="cls-4" d="M40.44,144.85c-8.2-9.61-16.46-19.18-22-30.67-2-4.17-6.46-8-1.68-13,3.68,4.58,7.56,10.23,13.63,9.86,5.26-.32,5.89-7.06,7.56-11.26,4.48-11.27-10.22-3.93-10.83-10.63L42.55,73.69c4.94,5.13,0,11.12,1.32,16.62,21-4.48,41.51-6.46,62.07-.54.5.83,1,1.67,1.51,2.5A76.89,76.89,0,0,1,96,110.46c-9.76,12.05-8.43,15,7.06,17.55,2.71.45,5.62-.31,8.44-.52l1.67,2,1.4,2.75-7.29,4L62.68,176.92l-3.31-5.23c.25-1.31.49-2.63.74-3.94,6.78-15.12,14.54-29.72,25.14-44.08-15.13-3-28.35-5.65-41.58-8.24-3.2-.62-6.86-2.52-9.13,1.44-1.93,3.35,0,6.42,1.33,9.62,2.49,6,9.61,10.22,7.15,18.16C42.16,144.75,41.3,144.82,40.44,144.85Z"/><path class="cls-5" d="M114.61,132.26c-.46-.92-.93-1.83-1.4-2.75,2.17-1.24,3.63-2.92,3.49-5.6,6.61-1.27,8.55-8.17,13.62-11.3,12.32,18.19,21.47,38.08,31,57.79l-25,3.31C130.51,159.14,128.09,142.81,114.61,132.26Z"/><path class="cls-6" d="M71.9,20.68c15.84-11.4,34.42-7,51.86-8.67,10.93-1,21.94,2.36,33.08.31,6.68-1.23,8.72,4.76,11.48,9.2-5.22,4.1-11.48,4.05-17.63,4.46-23.28-5.75-45.58-5.41-65.43,10.4C78.29,33.29,70,31.36,71.9,20.68Z"/><path class="cls-6" d="M130.32,112.61c-5.07,3.13-7,10-13.62,11.3,1.48-5.32,5.42-10.42,1.48-16.23.07-7.68-6.21-10.93-10.73-15.41-.51-.83-1-1.67-1.51-2.5-3.79-7.38-9.41-14.27-6.4-23.5l4.23-3.45c8.51,3.2,10.44,13.07,17.76,17.47C125.52,90.77,138.78,98.74,130.32,112.61Z"/><path class="cls-7" d="M202.53,124.39c-13.74-14.82-33.11-14.87-51.66-17l.53-5c16.54-1.3,33.07-2.84,49.63-3.75,4.6-.25,5.46,5,7.63,8Q205.59,115.49,202.53,124.39Z"/><path class="cls-8" d="M136.31,173.71l25-3.31,9.25,3.59c.57,5.76-2.12,9.86-7.57,10.66-12.89,1.88-25.68,5.36-38.92,3.4-2.77-.41-6.52.29-6.91-3.55-.35-3.43,3.25-4.56,5.71-5.69C127.18,176.8,131.8,175.38,136.31,173.71Z"/><path class="cls-4" d="M103.77,62.82l-4.23,3.45c-18-7.18-29.46-20.88-36.48-38.17-3-7.38,0-11.9,8.84-7.42-2,10.68,6.39,12.61,13.36,15.7C90.17,46.08,95.5,55.48,103.77,62.82Z"/><path class="cls-8" d="M62.68,176.92l44.64-40.63c-8.85,17.87-23.25,31.7-35.59,46.87C64.21,192.42,63.59,182.34,62.68,176.92Z"/><path class="cls-5" d="M150.69,26c6.15-.41,12.41-.36,17.63-4.46l3.25,5.07c-2.29,11.88,3.75,19.55,12.92,25.66q2.38,5.53,4.78,11.08c-8.38,4.18-10.67-2.65-14.24-7.64-5.94-8.28-8-20.09-20.26-22.74Z"/><path class="cls-7" d="M27.07,89.12c.61,6.7,15.31-.64,10.83,10.63-1.67,4.2-2.3,10.94-7.56,11.26-6.07.37-9.95-5.28-13.63-9.86C14.69,92.42,22.85,92.47,27.07,89.12Z"/><path class="cls-9" d="M184.49,52.25c-9.17-6.11-15.21-13.78-12.92-25.66C186.41,34.2,191,43.37,184.49,52.25Z"/><path class="cls-6" d="M40.44,144.85c.86,0,1.72-.1,2.58-.2,5.71,7.69,9.71,16.64,17.09,23.1-.25,1.31-.49,2.63-.74,3.94C45.48,168.09,42.52,156.77,40.44,144.85Z"/><path class="cls-2" d="M150.69,26l4.08,7c-11.34,9.28-16,22.92-23.21,35-2.68,4.52-6.65,8.28-10,12.38-7.32-4.4-9.25-14.27-17.76-17.47-8.27-7.34-13.6-16.74-18.51-26.44C105.11,20.57,127.41,20.23,150.69,26Z"/><path class="cls-10" d="M60.11,167.75c-7.38-6.46-11.38-15.41-17.09-23.1,2.46-7.94-4.66-12.16-7.15-18.16-1.32-3.2-3.26-6.27-1.33-9.62,2.27-4,5.93-2.06,9.13-1.44,13.23,2.59,26.45,5.24,41.58,8.24C74.65,138,66.89,152.63,60.11,167.75Z"/><path class="cls-5" d="M107.45,92.27c4.52,4.48,10.8,7.73,10.73,15.41-7.48-7.42-10.53-1.62-10.84,4.68-.25,5,2.68,10.08,4.2,15.13-2.82.21-5.73,1-8.44.52-15.49-2.58-16.82-5.5-7.06-17.55A76.89,76.89,0,0,0,107.45,92.27Z"/><path class="cls-11" d="M111.54,127.49c-1.52-5-4.45-10.17-4.2-15.13.31-6.3,3.36-12.1,10.84-4.68,3.94,5.81,0,10.91-1.48,16.23.14,2.68-1.32,4.36-3.49,5.6Z"/></g></g></g></svg>