<svg xmlns="http://www.w3.org/2000/svg" viewBox="0 0 237.75 241.92"><defs><style>.cls-1{opacity:0.65;}.cls-2{fill:#bdd6e5;}.cls-3{fill:#8ab3cf;}.cls-4{fill:#8db5d0;}.cls-5{fill:#6b9cbf;}.cls-6{fill:#fbfdfe;}.cls-7{fill:#6599bc;}.cls-8{fill:#f9fbfd;}.cls-9{fill:#f3f8fb;}.cls-10{fill:#bad4e4;}.cls-11{fill:#5b90b6;}</style></defs><title>アセット 16</title><g id="レイヤー_2" data-name="レイヤー 2"><g id="レイヤー_1-2" data-name="レイヤー 1"><g class="cls-1"><path class="cls-2" d="M120.09,236.49C94,229.84,66.79,213,35.08,210c-6.69-.64-10.84-6.89-12-14.95A711.3,711.3,0,0,0,1.1,95.64C-1.36,87.37.21,81.37,6.79,76,33.44,54.05,59.7,31.72,83,6.13c5-5.49,12.58-7.85,19.06-4.76,31.43,15,65.52,21.67,98.28,32.47,9.14,3,13.42,7.57,14.83,17.77a646.85,646.85,0,0,0,21.29,96.3c3.06,10.26.62,16.72-7,22-24.64,16.93-45.38,38.3-66.89,58.71C145.92,244.38,146.47,245,120.09,236.49ZM140,31.09c-1.18-11.94-11.6-16-29.12-11.31l-6.33-1.73c-5.46-1.57-11.47-4.92-16,.95-7.5,9.76-18.88,15-26.94,23.84C48.8,56.9,30.59,66.89,26.12,87.63c-10.38,2.81-9.54,8.67-1.74,12.45,18.27,8.84,37.54,11.51,57.27,4.23C86,114,95.5,115.43,103.94,118.63c-20.91,10.2-36,26.75-49.73,45.65-5-3.5-5.44-11.91-13.17-12.46-.43,8.14-.84,15.94-1.26,23.75-1,5.78-7.59,11.69.39,17.27-.18,7.54,6.19,7.41,10.86,9.29,12.89,5.2,26.53,6.92,40.16,8.7,10.37,8.11,21,15.09,34.84,7.88l6.48,1.81c4.69,3.71,12.54,11.4,11.87-1.56-1.1-21.24.45-42.89-5.43-63.78l3-8.57c18.57-1.3,32.43,10.13,47.73,17.66-2.43,4.63-5.12,9.15-7.18,13.95-1.16,2.7-3.24,6.24-.46,8.75,3.12,2.82,5.63-.48,8.17-2.17,12.12-8.06,19.91-20.2,29-31.1,3.82-4.62,3-9.9-1.66-14.13,4.58-22.42-3-42.88-10.29-63.37q-4-9.42-8-18.85c-.07-2.72-.75-6.33-3.25-6.52C180,49.63,167.78,37.6,152,36.55Z"/><path class="cls-3" d="M207.17,76.2c7.3,20.49,14.87,41,10.29,63.37l-10.08,3.84c-22-9-43.9-18.4-67.11-24.11-3.28-17.36-19.78-14.14-30.65-19.69-.25-5.78.21-11.7-.91-17.31-3-15-9.13-29.39-6.74-45.14,11.84-6.8,22.1,1.24,32.93,3.6,6.52,1.42,13.35,5.27,17.06-4.21C167.78,37.6,180,49.63,195.89,50.83c2.5.19,3.18,3.8,3.25,6.52-4-.91-8.48-4.48-12-.93-12.71,12.8-24.93,26.09-37.34,39.19l3.24,4.46C169.6,88.31,185.28,74.24,207.17,76.2Z"/><path class="cls-4" d="M91.19,210.83c-13.63-1.78-27.27-3.5-40.16-8.7-4.67-1.88-11-1.75-10.85-9.3,6.31,1,13.56,2.75,18.19-2,4-4.09-.38-10-2.09-14.61-4.6-12.36-11.12,4.28-16.5-.69.42-7.81.83-15.61,1.26-23.75,7.73.55,8.13,9,13.17,12.46,13.69-18.9,28.82-35.45,49.73-45.65l3,.92a83.77,83.77,0,0,1,4,23c.9,16.84,4.09,18.22,18.49,9,2.51-1.61,4.3-4.35,6.43-6.56l2.83.4,3.13,1.2-3,8.57q-3.21,32.67-6.44,65.34L126,218.71,123.76,215c-5.54-17.14-9.92-34.58-11.82-53.91-14.4,8.6-27,16.1-39.58,23.65-3,1.83-7.38,3-6.33,7.82.89,4.1,4.69,5.17,8.09,6.79,6.38,3,15.21,1.25,19,9.46C92.51,209.5,91.86,210.18,91.19,210.83Z"/><path class="cls-5" d="M141.91,146.61l-3.13-1.19c.84-2.59.8-5-1.28-7.07,4.42-5.84,1-12.83,2.77-19,23.21,5.71,45.09,15.11,67.11,24.11q-8.88,10.43-17.74,20.86C174.34,156.74,160.48,145.31,141.91,146.61Z"/><path class="cls-6" d="M26.11,87.63C30.59,66.89,48.8,56.9,61.67,42.84,69.73,34,81.11,28.76,88.61,19c4.5-5.87,10.51-2.52,16-.95-1.22,7.12-6.32,11.64-11,16.45-23,12.32-40.75,28.84-45.25,56.07C40.46,93.16,32.32,97.68,26.11,87.63Z"/><path class="cls-6" d="M140.27,119.3c-1.8,6.22,1.65,13.21-2.77,19-2.67-5.38-3.2-12.36-10.62-14.19-5.54-6.24-13-4.3-19.9-4.61l-3-.92c-8.44-3.2-18-4.67-22.29-14.32l.9-5.87c9.2-3.62,18,3,27.07,1.17C120.49,105.16,137,101.94,140.27,119.3Z"/><path class="cls-7" d="M207.17,76.2c-21.89-2-37.57,12.11-54.14,23.87l-3.24-4.46c12.41-13.1,24.63-26.39,37.34-39.19,3.53-3.55,8,0,12,.93Q203.16,66.77,207.17,76.2Z"/><path class="cls-8" d="M189.64,164.27q8.87-10.43,17.74-20.86l10.08-3.84c4.66,4.23,5.48,9.51,1.66,14.13-9,10.9-16.83,23-29,31.1-2.54,1.69-5,5-8.17,2.17-2.78-2.51-.7-6.05.46-8.75C184.52,173.42,187.21,168.9,189.64,164.27Z"/><path class="cls-4" d="M82.55,98.44l-.9,5.87c-19.73,7.28-39,4.61-57.27-4.23-7.8-3.78-8.64-9.64,1.74-12.45,6.2,10.05,14.34,5.53,22.22,3C59.37,94.84,70.52,98.54,82.55,98.44Z"/><path class="cls-8" d="M132.51,220.52q3.23-32.67,6.44-65.34c5.88,20.89,4.33,42.54,5.43,63.78C145.05,231.92,137.2,224.23,132.51,220.52Z"/><path class="cls-5" d="M93.59,34.5c4.67-4.81,9.77-9.33,11-16.45l6.33,1.73C117.7,31,128.18,32.84,140,31.09L152,36.55c-3.71,9.48-10.54,5.63-17.06,4.21-10.83-2.36-21.09-10.4-32.93-3.6Z"/><path class="cls-7" d="M39.78,175.57c5.38,5,11.9-11.67,16.5.69,1.71,4.61,6.11,10.52,2.09,14.61-4.63,4.71-11.88,3-18.19,2C32.19,187.26,38.81,181.35,39.78,175.57Z"/><path class="cls-9" d="M140,31.09c-11.85,1.75-22.33-.05-29.12-11.31C128.43,15.1,138.85,19.15,140,31.09Z"/><path class="cls-6" d="M91.19,210.83c.67-.65,1.32-1.33,1.93-2,10.22,2,20,6.35,30.64,6.19l2.27,3.73C112.19,225.92,101.56,218.94,91.19,210.83Z"/><path class="cls-2" d="M93.59,34.5,102,37.16c-2.39,15.75,3.75,30.19,6.74,45.14,1.12,5.61.66,11.53.91,17.31-9.11,1.78-17.87-4.79-27.07-1.17-12,.1-23.18-3.6-34.21-7.86C52.84,63.34,70.61,46.82,93.59,34.5Z"/><path class="cls-10" d="M123.76,215c-10.67.16-20.42-4.15-30.64-6.19-3.79-8.21-12.62-6.42-19-9.46-3.4-1.62-7.2-2.69-8.09-6.79-1-4.86,3.29-6,6.33-7.82,12.57-7.55,25.18-15.05,39.58-23.65C113.84,180.4,118.22,197.84,123.76,215Z"/><path class="cls-5" d="M107,119.55c6.92.31,14.36-1.63,19.89,4.61-11.44-.54-9.68,6.37-5.34,11.69C125,140,131.05,142,136,145c-2.13,2.21-3.92,5-6.43,6.56-14.4,9.2-17.59,7.82-18.49-9A83.77,83.77,0,0,0,107,119.55Z"/><path class="cls-11" d="M136,145c-4.9-3-11-5-14.42-9.16-4.34-5.32-6.1-12.23,5.34-11.69,7.43,1.83,8,8.81,10.63,14.19,2.08,2.06,2.12,4.48,1.28,7.07C137.84,145.27,136.89,145.14,136,145Z"/></g></g></g></svg>