<svg xmlns="http://www.w3.org/2000/svg" viewBox="0 0 374.88 165.23"><defs><style>.cls-1{fill:#fff;}</style></defs><title>アセット 12</title><g id="レイヤー_2" data-name="レイヤー 2"><g id="レイヤー_1-2" data-name="レイヤー 1"><path class="cls-1" d="M180.17,148.76a.88.88,0,0,1,0-1.75h13.37a.83.83,0,0,1,.78.88.8.8,0,0,1-.78.87h-5.66V164a.91.91,0,0,1-1,.82.88.88,0,0,1-1-.82V148.76Z"/><path class="cls-1" d="M201.9,156c0-2-1.1-2.92-3.37-2.92a6.85,6.85,0,0,0-3.67,1.1,1,1,0,0,1-.54.2.88.88,0,0,1-.8-.8c0-1,2.68-2.12,5-2.12,3.4,0,5.21,1.66,5.21,4.73v4.5a7.74,7.74,0,0,0,.46,2.89,1.16,1.16,0,0,1,.1.46.88.88,0,0,1-1,.82.83.83,0,0,1-.75-.59,7.68,7.68,0,0,1-.52-2H202a5.42,5.42,0,0,1-4.84,2.54,4,4,0,0,1-4.32-3.95c0-2.79,2.63-4.36,7.32-4.36h1.75Zm-1.47,1.92c-3.71,0-5.59,1-5.59,2.92a2.41,2.41,0,0,0,2.66,2.37c2.31,0,4.4-1.83,4.4-3.86v-1.43Z"/><path class="cls-1" d="M213.12,157.49c2.55.9,3.61,2,3.61,3.69,0,2.31-1.86,3.67-5,3.67-2.5,0-5.16-1.18-5.16-2.31a.84.84,0,0,1,.8-.84c.26,0,.37,0,.82.39a6,6,0,0,0,3.57,1.1c1.94,0,2.91-.65,2.91-1.94,0-1.08-.77-1.71-2.87-2.4l-1.15-.37a7.59,7.59,0,0,1-2.57-1.32,2.69,2.69,0,0,1-1-2.24c0-2.06,1.86-3.46,4.56-3.46,2.25,0,4.45,1,4.45,2a.81.81,0,0,1-.76.82,1,1,0,0,1-.6-.22,5.38,5.38,0,0,0-3.05-1c-1.55,0-2.59.73-2.59,1.81s.47,1.36,2.63,2.12Z"/><path class="cls-1" d="M221,148.67a.87.87,0,0,1,1-.8.86.86,0,0,1,.95.8v3.09h3.33a.72.72,0,0,1,.69.78.68.68,0,0,1-.69.75h-3.33v7.91a2.87,2.87,0,0,0,.21,1.52,1.15,1.15,0,0,0,1,.49,3.5,3.5,0,0,0,1.75-.49.82.82,0,0,1,.39-.11.75.75,0,0,1,.69.82.78.78,0,0,1-.43.65,5.46,5.46,0,0,1-2.62.67c-2,0-2.94-1.11-2.94-3.35v-8.11h-2.54a.69.69,0,0,1-.67-.75.7.7,0,0,1,.67-.78H221Z"/><path class="cls-1" d="M230.43,158.31a5.06,5.06,0,0,0,1.17,3.61,4.29,4.29,0,0,0,3.32,1.27,4.78,4.78,0,0,0,3.78-1.64.78.78,0,0,1,.59-.3,1,1,0,0,1,.91.86,1.12,1.12,0,0,1-.39.76,6.93,6.93,0,0,1-5,2c-3.93,0-6.42-2.57-6.42-6.61s2.53-6.78,6.09-6.78a5.57,5.57,0,0,1,4.19,1.79,5.82,5.82,0,0,1,1.58,3.8c0,.93-.37,1.26-1.42,1.26Zm7.82-1.45c-.19-2.31-1.68-3.82-3.78-3.82a4,4,0,0,0-3.31,1.85,4.6,4.6,0,0,0-.69,2Z"/><path class="cls-1" d="M253.86,162.22a.45.45,0,0,0,.49.5h7.46a.8.8,0,0,1,.75.88.82.82,0,0,1-.75.91h-8.06a1.72,1.72,0,0,1-1.93-1.95v-15a1,1,0,0,1,2,0Z"/><path class="cls-1" d="M272.81,156c0-2-1.11-2.92-3.37-2.92a6.86,6.86,0,0,0-3.68,1.1,1,1,0,0,1-.54.2.88.88,0,0,1-.8-.8c0-1,2.68-2.12,5-2.12,3.39,0,5.2,1.66,5.2,4.73v4.5a8,8,0,0,0,.46,2.89,1.2,1.2,0,0,1,.11.46.88.88,0,0,1-1,.82.83.83,0,0,1-.75-.59,8.1,8.1,0,0,1-.52-2h-.09a5.41,5.41,0,0,1-4.84,2.54,4,4,0,0,1-4.32-3.95c0-2.79,2.64-4.36,7.33-4.36h1.75Zm-1.47,1.92c-3.72,0-5.6,1-5.6,2.92a2.41,2.41,0,0,0,2.66,2.37c2.31,0,4.41-1.83,4.41-3.86v-1.43Z"/><path class="cls-1" d="M279.12,164.08a.84.84,0,0,1-.87.75c-.52,0-.8-.32-.8-.9V146.58a1,1,0,0,1,1.9,0V154a4.86,4.86,0,0,1,4.26-2.55c3.46,0,5.94,2.79,5.94,6.65s-2.42,6.7-6,6.7a5.06,5.06,0,0,1-4.3-2.14Zm.23-3.4a4.51,4.51,0,0,0,3.94,2.51c2.52,0,4.25-2.05,4.25-5s-1.79-5.08-4.25-5.08c-1.6,0-3,1.1-3.94,3.11Z"/><path class="cls-1" d="M295.45,163a1.71,1.71,0,1,1-3.41,0,1.71,1.71,0,0,1,3.41,0Z"/><path class="cls-1" d="M134.59,120.15a3,3,0,0,1-2.81,2.18,2.85,2.85,0,0,1-3.11-2.62,4.9,4.9,0,0,1,.31-1.56l18-45.16a4.17,4.17,0,0,1,4-2.74,4.11,4.11,0,0,1,4,2.74l17.9,45.16a4,4,0,0,1,.37,1.56,3,3,0,0,1-3.12,2.62,3.14,3.14,0,0,1-2.86-2.18L162,106.68H139.77Zm20.46-32.37c-1.56-4.12-3.49-9.73-4-11.36h-.25c-.62,2.25-2.25,6.87-4,11.36l-5.37,14.09h18.9Z"/><path class="cls-1" d="M180,75.68a2.1,2.1,0,0,1-2-2.31,2.14,2.14,0,0,1,2-2.31H195.6a2.1,2.1,0,0,1,2.06,2.31,2.07,2.07,0,0,1-2.06,2.31h-4.92V117h4.92a2,2,0,0,1,2.06,2.24,2.16,2.16,0,0,1-2.06,2.38H180a2.16,2.16,0,0,1-2-2.38,2,2,0,0,1,2-2.24h5V75.68Z"/><path class="cls-1" d="M215.11,82a2.49,2.49,0,0,1-.72-1.5,2.17,2.17,0,0,1,1.92-1.92,2.35,2.35,0,0,1,1.5.72l14.28,14.34,14.28-14.34a2.49,2.49,0,0,1,1.5-.72,2.17,2.17,0,0,1,1.92,1.92A2.42,2.42,0,0,1,249,82.1L234.73,96.32,249,110.54a2.42,2.42,0,0,1,.78,1.56,2.06,2.06,0,0,1-1.92,1.92,2.2,2.2,0,0,1-1.5-.72L232.09,99,217.81,113.3a2.35,2.35,0,0,1-1.5.72,2.17,2.17,0,0,1-1.92-1.92,2.2,2.2,0,0,1,.72-1.5l14.34-14.28Z"/><path class="cls-1" d="M264.59,75.11a3.3,3.3,0,0,1-.75-2,3.11,3.11,0,0,1,3.06-2.81,3.16,3.16,0,0,1,2.43,1.44l14.91,21.7,14.91-21.7a3.16,3.16,0,0,1,2.43-1.44,3.07,3.07,0,0,1,3.06,2.81,3.3,3.3,0,0,1-.75,2L287,98.26V120a2.84,2.84,0,0,1-5.61,0V98.26Z"/><path class="cls-1" d="M337,103.18c0,11.36-7.55,19.4-18.21,19.4s-18.22-8-18.22-19.46c0-11.16,7.68-19.21,18.34-19.21C329.28,83.91,337,92.08,337,103.18Zm-30.69,0c0,8.61,5.12,14.6,12.54,14.6,7.23,0,12.41-6,12.41-14.6s-5.3-14.59-12.54-14.59S306.26,94.83,306.26,103.18Z"/><path class="cls-1" d="M369.39,86.4A2.54,2.54,0,0,1,372.2,84a2.45,2.45,0,0,1,2.68,2.37V120c0,1.38-1.06,2.31-2.68,2.31s-2.81-.93-2.81-2.31v-5.17c-3.55,4.67-8.54,7.48-13.41,7.48-4.37,0-8.17-1.68-10.29-4.55-1.69-2.37-2.5-5.43-2.5-9.73V86.4A2.48,2.48,0,0,1,345.94,84a2.51,2.51,0,0,1,2.74,2.37v20.84c0,6.67,2.81,10.29,8,10.29s10-3.62,12.72-9.36Z"/><path class="cls-1" d="M21.33,89.51l24.11,31.28,1.64,41.83a2.47,2.47,0,0,1-2.46,2.56H31.48A2.45,2.45,0,0,1,29,163Z"/><path class="cls-1" d="M84.69,165.23h0a2.42,2.42,0,0,1-2-1c-6.6-8.74-50.2-66.46-57.56-76.1-7.88-10.34-8-14.11-22.51-15a2.46,2.46,0,0,1-2.29-2l-.33-2a2.45,2.45,0,0,1,2.42-2.87H33.52a2.46,2.46,0,0,1,2,1.07L89,145.28,87.13,163A2.46,2.46,0,0,1,84.69,165.23Z"/><path class="cls-1" d="M95.14,88.21l-5.6,52.31-18.4-27.33L73,68.67a2.46,2.46,0,0,1,2.46-2.36h38.43a2.46,2.46,0,0,1,2.43,2.84L116,71.33a2.44,2.44,0,0,1-2.18,2.06C100.74,74.62,96.3,82.08,95.14,88.21Z"/><rect class="cls-1" x="53.81" width="8.7" height="60.16" rx="4.35"/><path class="cls-1" d="M72.39,27.36A35.82,35.82,0,0,1,93.78,57a2.45,2.45,0,0,0,2.44,2.23H100a2.46,2.46,0,0,0,2.45-2.66A44.55,44.55,0,0,0,75.78,19.34a4.22,4.22,0,0,0-5.92,3.85v.26A4.25,4.25,0,0,0,72.39,27.36Z"/><path class="cls-1" d="M22.54,57A35.84,35.84,0,0,1,43.9,27.38a4.32,4.32,0,0,0,2.56-4h0a4.35,4.35,0,0,0-6.11-4,44.54,44.54,0,0,0-26.5,37.12,2.46,2.46,0,0,0,2.46,2.66H20.1A2.45,2.45,0,0,0,22.54,57Z"/><path class="cls-1" d="M109.65,165.23H96.14a3.14,3.14,0,0,1-3-2.07,3.72,3.72,0,0,1,.88-3.78l12.49-13.1c1.51-1.61,2.52-4.07.73-6a3.78,3.78,0,0,0-2.94-1.2,3.29,3.29,0,0,0-2.34,1.09l-1.19,1.26a3.56,3.56,0,0,1-5,.39,3.5,3.5,0,0,1,.06-5l1.2-1.27a11.12,11.12,0,0,1,7.65-3.55,10.3,10.3,0,0,1,8,3.26c3.87,4.29,3.36,10.72-1.25,15.64l-6.94,7.28h5.82a3.16,3.16,0,0,1,3.2,3.53A4,4,0,0,1,109.65,165.23Z"/></g></g></svg>