<svg xmlns="http://www.w3.org/2000/svg" viewBox="0 0 76.37 113.69"><defs><style>.cls-1{font-size:13.35px;font-family:TBUDRGoStd-Regular-90ms-RKSJ-H, TBUDRGothic Std;}.cls-1,.cls-2{fill:#fff;}</style></defs><title>アセット 5</title><g id="レイヤー_2" data-name="レイヤー 2"><g id="レイヤー_1-2" data-name="レイヤー 1"><text class="cls-1" transform="translate(0 108.05)">Taste Lab.</text><path class="cls-2" d="M15.33,49.47,28.65,66.75l.91,23.12a1.36,1.36,0,0,1-1.36,1.41H20.94a1.35,1.35,0,0,1-1.35-1.21Z"/><path class="cls-2" d="M50.34,91.31h0a1.35,1.35,0,0,1-1.08-.54c-3.65-4.83-27.74-36.73-31.81-42C13.09,43,13.05,40.92,5,40.45a1.34,1.34,0,0,1-1.26-1.12l-.19-1.1A1.36,1.36,0,0,1,4.9,36.64H22.07a1.39,1.39,0,0,1,1.12.59L52.74,80.29,51.69,90.1A1.35,1.35,0,0,1,50.34,91.31Z"/><path class="cls-2" d="M56.12,48.75,53,77.65,42.85,62.55l1-24.6a1.36,1.36,0,0,1,1.36-1.31H66.47a1.36,1.36,0,0,1,1.34,1.57l-.19,1.21a1.36,1.36,0,0,1-1.2,1.14C59.21,41.24,56.76,45.36,56.12,48.75Z"/><rect class="cls-2" x="33.28" width="4.81" height="33.25" rx="2.4"/><path class="cls-2" d="M43.54,15.12A19.79,19.79,0,0,1,55.37,31.49a1.35,1.35,0,0,0,1.35,1.23h2.1a1.36,1.36,0,0,0,1.35-1.47A24.61,24.61,0,0,0,45.42,10.69a2.33,2.33,0,0,0-3.27,2.13V13A2.35,2.35,0,0,0,43.54,15.12Z"/><path class="cls-2" d="M16,31.48A19.81,19.81,0,0,1,27.8,15.13a2.39,2.39,0,0,0,1.42-2.19h0a2.41,2.41,0,0,0-3.38-2.2A24.63,24.63,0,0,0,11.19,31.25a1.37,1.37,0,0,0,1.36,1.47h2.1A1.36,1.36,0,0,0,16,31.48Z"/><path class="cls-2" d="M64,91.31H56.35a1.79,1.79,0,0,1-1.71-1.17,2.12,2.12,0,0,1,.5-2.15l7.11-7.46c.86-.92,1.43-2.32.42-3.44A2.17,2.17,0,0,0,61,76.4a1.87,1.87,0,0,0-1.34.63l-.67.71a2,2,0,0,1-2.85.23,2,2,0,0,1,0-2.84l.68-.72a6.38,6.38,0,0,1,4.35-2,5.89,5.89,0,0,1,4.55,1.86c2.21,2.44,1.92,6.1-.71,8.9L61.1,87.29h3.32a1.79,1.79,0,0,1,1.81,2A2.24,2.24,0,0,1,64,91.31Z"/></g></g></svg>