<svg xmlns="http://www.w3.org/2000/svg" xmlns:xlink="http://www.w3.org/1999/xlink" viewBox="0 0 223.28 154.96"><defs><style>.cls-1{fill:url(#名称未設定グラデーション_17);}.cls-2{fill:url(#名称未設定グラデーション_32);}.cls-3{fill:url(#名称未設定グラデーション_17-2);}.cls-4{fill:url(#名称未設定グラデーション_32-2);}.cls-5{fill:url(#名称未設定グラデーション_17-3);}.cls-6{fill:url(#名称未設定グラデーション_17-4);}.cls-7{fill:url(#名称未設定グラデーション_32-3);}.cls-8{fill:url(#名称未設定グラデーション_17-5);}.cls-9{fill:url(#名称未設定グラデーション_32-4);}.cls-10{fill:url(#名称未設定グラデーション_32-5);}</style><linearGradient id="名称未設定グラデーション_17" x1="2639.84" y1="3223.57" x2="2593.17" y2="3288.82" gradientTransform="translate(-953.07 -3935.05) rotate(23.01)" gradientUnits="userSpaceOnUse"><stop offset="0" stop-color="#9dcc6a"/><stop offset="1" stop-color="#68b56c"/></linearGradient><linearGradient id="名称未設定グラデーション_32" x1="2579.84" y1="3256.37" x2="2623.26" y2="3256.37" xlink:href="#名称未設定グラデーション_17"/><linearGradient id="名称未設定グラデーション_17-2" x1="2587.53" y1="3221.03" x2="2541.85" y2="3284.89" xlink:href="#名称未設定グラデーション_17"/><linearGradient id="名称未設定グラデーション_32-2" x1="2551.06" y1="3256.1" x2="2578.49" y2="3256.1" xlink:href="#名称未設定グラデーション_17"/><linearGradient id="名称未設定グラデーション_17-3" x1="2517.77" y1="3247.38" x2="2489.21" y2="3287.3" xlink:href="#名称未設定グラデーション_17"/><linearGradient id="名称未設定グラデーション_17-4" x1="2608.07" y1="3291.17" x2="2576.52" y2="3335.28" xlink:href="#名称未設定グラデーション_17"/><linearGradient id="名称未設定グラデーション_32-3" x1="2551.06" y1="3294.58" x2="2598.12" y2="3294.58" xlink:href="#名称未設定グラデーション_17"/><linearGradient id="名称未設定グラデーション_17-5" x1="2531.06" y1="3300.17" x2="2472.69" y2="3381.78" xlink:href="#名称未設定グラデーション_17"/><linearGradient id="名称未設定グラデーション_32-4" x1="2507.77" y1="3304.16" x2="2549.85" y2="3304.16" xlink:href="#名称未設定グラデーション_17"/><linearGradient id="名称未設定グラデーション_32-5" x1="2500.48" y1="3263.39" x2="2546.86" y2="3263.39" xlink:href="#名称未設定グラデーション_17"/></defs><title>アセット 41</title><g id="レイヤー_2" data-name="レイヤー 2"><g id="レイヤー_1-2" data-name="レイヤー 1"><path class="cls-1" d="M129.92,75c13.8-12.54,49.58-34.89,77.7-18.56s17.09,63.63-23,63.41c13.74-17.24,12.19-22.86,4.7-20.35S150,116.37,129.92,75Z"/><path class="cls-2" d="M143.17,83.58c14-4.85,39.46-9.68,51-8.89C178.26,74.23,150.57,77.52,143.17,83.58Z"/><path class="cls-3" d="M185,23.44c-20.48,9.71-54.67,6.29-72.08,26.65s-.07,29.77-.07,29.77c14.43,5.47,27.26,10.26,40.09-1.38S178,41,185,23.44Z"/><path class="cls-4" d="M113.49,79.88c14.89-6.52,39.63-27.28,42.85-30.73C145.23,59.48,129.37,77.57,113.49,79.88Z"/><path class="cls-5" d="M113.28,85.23C89.36,84.33,69.91,81.11,61.69,68c-10.84-17.31,4.14-59.81.38-68,12.4,9,42.31,23.15,47.22,34.81S124.06,68.07,113.28,85.23Z"/><path class="cls-6" d="M113.05,79.78c-7.24,20.15-13.32,39.63,7.4,55.15s53,24.41,80.21,17.84C183.87,115.26,161.45,83.1,113.05,79.78Z"/><path class="cls-7" d="M112.69,81.77c1.1,7,17.33,35.55,32.43,44C129.52,116.08,113.88,96.15,112.69,81.77Z"/><path class="cls-8" d="M112.88,79.86C86.93,69.42,67.54,68.49,46,86.2S2.86,122.23,0,122.77c27.63,6.48,62.56,10.21,77.76,4.69S116.7,104.56,112.88,79.86Z"/><path class="cls-9" d="M111.93,80.46c-16.25,12.82-47.88,27.43-57.81,28.47C77.26,103.28,102.62,94.47,111.93,80.46Z"/><path class="cls-10" d="M109.56,78.39c-8-9.8-27.26-37.28-30.66-46.47C87.36,50.86,101.29,73.42,109.56,78.39Z"/></g></g></svg>